<?xml version="1.0" encoding="UTF-8"?>
<svg width="50" height="35" version="1.1" viewBox="0 0 13.229 9.2604" xmlns="http://www.w3.org/2000/svg">
	<g transform="matrix(0 .62719 -.62719 0 10.926 .94404)" stroke="#111" stroke-linejoin="round">
		<path transform="matrix(4.0603 .070872 -.069785 3.998 20.009 -1134.8)" d="m1.6832 286.97-0.42391 8e-3 -0.21852-0.36332 0.20539-0.37092 0.42391-8e-3 0.21852 0.36333z" fill="#46a926" stroke-width=".10469" style="paint-order:normal"/>
		<path transform="matrix(2.9247 .051051 -.050268 2.8799 18.421 -813.45)" d="m1.6832 286.97-0.42391 8e-3 -0.21852-0.36332 0.20539-0.37092 0.42391-8e-3 0.21852 0.36333z" fill="#d8d04f" stroke-width=".091152" style="paint-order:normal"/>
		<path transform="matrix(4.0603 .070872 -.069785 3.998 22.591 -1136.3)" d="m1.6832 286.97-0.42391 8e-3 -0.21852-0.36332 0.20539-0.37092 0.42391-8e-3 0.21852 0.36333z" fill="#46a926" stroke-width=".10469" style="paint-order:normal"/>
		<path transform="matrix(2.9247 .051051 -.050268 2.8799 13.738 -813.45)" d="m1.6832 286.97-0.42391 8e-3 -0.21852-0.36332 0.20539-0.37092 0.42391-8e-3 0.21852 0.36333z" fill="#d8d04f" stroke-width=".091152" style="paint-order:normal"/>
		<g fill="#46a926" stroke-width=".10469">
			<path transform="matrix(4.0603 .070872 -.069785 3.998 17.425 -1136.3)" d="m1.6832 286.97-0.42391 8e-3 -0.21852-0.36332 0.20539-0.37092 0.42391-8e-3 0.21852 0.36333z" style="paint-order:normal"/>
			<path transform="matrix(4.0603 .070872 -.069785 3.998 20.007 -1137.8)" d="m1.6832 286.97-0.42391 8e-3 -0.21852-0.36332 0.20539-0.37092 0.42391-8e-3 0.21852 0.36333z" style="paint-order:normal"/>
			<path transform="matrix(4.0603 .070872 -.069785 3.998 22.588 -1139.2)" d="m1.6832 286.97-0.42391 8e-3 -0.21852-0.36332 0.20539-0.37092 0.42391-8e-3 0.21852 0.36333z" style="paint-order:normal"/>
			<path transform="matrix(4.0603 .070872 -.069785 3.998 17.423 -1139.2)" d="m1.6832 286.97-0.42391 8e-3 -0.21852-0.36332 0.20539-0.37092 0.42391-8e-3 0.21852 0.36333z" style="paint-order:normal"/>
			<path transform="matrix(4.0603 .070872 -.069785 3.998 20.005 -1140.7)" d="m1.6832 286.97-0.42391 8e-3 -0.21852-0.36332 0.20539-0.37092 0.42391-8e-3 0.21852 0.36333z" style="paint-order:normal"/>
		</g>
		<g fill="#d8d04f">
			<path transform="matrix(2.9247 .051051 -.050268 2.8799 13.732 -821.46)" d="m1.6832 286.97-0.42391 8e-3 -0.21852-0.36332 0.20539-0.37092 0.42391-8e-3 0.21852 0.36333z" stroke-width=".091152" style="paint-order:normal"/>
			<path transform="matrix(4.0603 .070872 -.069785 3.998 20.003 -1143.6)" d="m1.6832 286.97-0.42391 8e-3 -0.21852-0.36332 0.20539-0.37092 0.42391-8e-3 0.21852 0.36333z" stroke-width=".06566" style="paint-order:normal"/>
			<path transform="matrix(2.9247 .051051 -.050268 2.8799 18.415 -821.46)" d="m1.6832 286.97-0.42391 8e-3 -0.21852-0.36332 0.20539-0.37092 0.42391-8e-3 0.21852 0.36333z" stroke-width=".091152" style="paint-order:normal"/>
		</g>
		<path transform="matrix(.99797 .01742 -.01742 .99797 4.6496 -283.11)" d="m5.6256 284.86-0.23441-7e-3 -0.11118-0.20648 0.12323-0.19953 0.23441 7e-3 0.11118 0.20648z" fill="#111" stroke-width=".17789" style="paint-order:normal"/>
		<path transform="matrix(-.99797 -.01742 -.01742 .99797 4.6496 -283.11)" d="m-6.9056 284.83-0.23441-7e-3 -0.11118-0.20648 0.12323-0.19952 0.23441 7e-3 0.11118 0.20648z" fill="#111" stroke-width=".17789" style="paint-order:normal"/>
	</g>
</svg>
