<?xml version="1.0" encoding="UTF-8"?>
<svg width="50" height="35" version="1.1" viewBox="0 0 13.229 9.2604" xmlns="http://www.w3.org/2000/svg" xmlns:cc="http://creativecommons.org/ns#" xmlns:dc="http://purl.org/dc/elements/1.1/" xmlns:rdf="http://www.w3.org/1999/02/22-rdf-syntax-ns#">
	<metadata>
		<rdf:RDF>
			<cc:Work rdf:about="">
				<dc:format>image/svg+xml</dc:format>
				<dc:type rdf:resource="http://purl.org/dc/dcmitype/StillImage"/>
				<dc:title/>
			</cc:Work>
		</rdf:RDF>
	</metadata>
	<g transform="translate(0 -287.74)" stroke-width=".26458">
		<path d="m2.7781 289.46h2.4845l0.24267 0.75721h4.9457v5.0636h-7.6729z" fill="#ac939d" stroke="#241c1f" stroke-linejoin="round"/>
		<path d="m2.5135 291.05h8.2021l-0.2308 4.2333h-7.7405z" fill="#c8b7be" stroke="#241c1f" stroke-linejoin="round" style="paint-order:normal"/>
		<g fill="#00f" aria-label="?">
			<path d="m10.957 295.73h0.68802v0.86087h-0.68802zm0.66768-0.49822h-0.64735v-0.52194q0-0.34232 0.0949-0.56262t0.39993-0.51178l0.30503-0.30164q0.19319-0.17963 0.27792-0.33893 0.08812-0.15929 0.08812-0.32537 0-0.30164-0.22369-0.48805-0.2203-0.18641-0.58634-0.18641-0.26775 0-0.57278 0.11862-0.30164 0.11863-0.6304 0.34571v-0.63718q0.31859-0.19319 0.64396-0.28809 0.32876-0.0949 0.67785-0.0949 0.62362 0 0.99983 0.32876 0.3796 0.32876 0.3796 0.86765 0 0.25758-0.12201 0.49144-0.12201 0.23047-0.42705 0.52195l-0.29826 0.29147q-0.1593 0.1593-0.22708 0.25081-0.0644 0.0881-0.09151 0.17285-0.02033 0.0712-0.0305 0.17285-0.01017 0.10168-0.01017 0.27792z" fill="#00f" stroke-width=".26458"/>
		</g>
	</g>
</svg>
