<?xml version="1.0" encoding="UTF-8"?>
<svg width="50" height="35" version="1.1" viewBox="0 0 13.229 9.2604" xmlns="http://www.w3.org/2000/svg" xmlns:cc="http://creativecommons.org/ns#" xmlns:dc="http://purl.org/dc/elements/1.1/" xmlns:rdf="http://www.w3.org/1999/02/22-rdf-syntax-ns#">
	<metadata>
		<rdf:RDF>
			<cc:Work rdf:about="">
				<dc:format>image/svg+xml</dc:format>
				<dc:type rdf:resource="http://purl.org/dc/dcmitype/StillImage"/>
				<dc:title/>
			</cc:Work>
		</rdf:RDF>
	</metadata>
	<g transform="translate(0 -287.74)">
		<rect x="3.9687" y="289.06" width="5.0271" height="6.0854" rx=".063891" ry=".063891" fill="#fff" stroke="#241c1f" stroke-width=".52917" style="paint-order:normal"/>
		<g fill="#333" stroke="#1a1a1a">
			<g stroke-width=".52917">
				<path d="m4.7624 291.44h2.6458z"/>
				<path d="m4.7624 290.12h3.175z"/>
				<path d="m4.7624 292.77h3.4396z"/>
			</g>
			<path d="m4.7624 294.09h1.8521z" stroke-width=".52917"/>
		</g>
		<g transform="translate(0 -.32679)" fill="#00f" stroke-width=".17353" aria-label="?">
			<path d="m7.6793 295.41h0.68802v0.86087h-0.68802zm0.66768-0.49822h-0.64735v-0.52195q0-0.34231 0.094899-0.56261 0.094899-0.22031 0.39993-0.51178l0.30503-0.30165q0.19319-0.17963 0.27792-0.33892 0.088121-0.1593 0.088121-0.32537 0-0.30165-0.22369-0.48805-0.2203-0.18641-0.58634-0.18641-0.26775 0-0.57278 0.11862-0.30164 0.11862-0.6304 0.3457v-0.63718q0.31859-0.19318 0.64396-0.28808 0.32876-0.0949 0.67785-0.0949 0.62362 0 0.99983 0.32876 0.3796 0.32875 0.3796 0.86765 0 0.25758-0.12201 0.49144-0.12201 0.23047-0.42705 0.52194l-0.29825 0.29148q-0.1593 0.1593-0.22708 0.25081-0.064396 0.0881-0.09151 0.17285-0.020336 0.0712-0.030503 0.17285-0.010168 0.10168-0.010168 0.27792z" fill="#00f" stroke-width=".17353"/>
		</g>
	</g>
</svg>
