<?xml version="1.0" encoding="UTF-8"?>
<svg width="50" height="35" version="1.1" viewBox="0 0 13.229 9.2604" xmlns="http://www.w3.org/2000/svg" xmlns:cc="http://creativecommons.org/ns#" xmlns:dc="http://purl.org/dc/elements/1.1/" xmlns:rdf="http://www.w3.org/1999/02/22-rdf-syntax-ns#">
	<defs>
		<linearGradient id="a" x1="2.0986" x2="11.201" y1="294.98" y2="289.31" gradientTransform="translate(0 1.428e-6)" gradientUnits="userSpaceOnUse">
			<stop stop-color="#0be" offset="0"/>
			<stop stop-color="#87e6ff" offset="1"/>
		</linearGradient>
	</defs>
	<metadata>
		<rdf:RDF>
			<cc:Work rdf:about="">
				<dc:format>image/svg+xml</dc:format>
				<dc:type rdf:resource="http://purl.org/dc/dcmitype/StillImage"/>
				<dc:title/>
			</cc:Work>
		</rdf:RDF>
	</metadata>
	<g transform="translate(0 -287.74)">
		<rect x="1.4551" y="289.2" width="10.319" height="6.35" rx=".1497" ry=".14996" fill="url(#a)" stroke="#000" stroke-linecap="round" stroke-width=".26458" style="paint-order:stroke fill markers"/>
		<path d="m4.8086 291.04s0.92154 1.3553 0.72798 2.0561c-0.083872 0.30367-0.13907 0.59438-0.72798 0.60273-0.58891 8e-3 -0.64411-0.29906-0.72798-0.60273-0.19356-0.70083 0.72798-2.0561 0.72798-2.0561z" fill="#f00" opacity=".94"/>
		<path d="m6.6146 291.04s0.92154 1.3552 0.72798 2.056c-0.083872 0.30366-0.13907 0.59435-0.72798 0.6027-0.58891 8e-3 -0.64411-0.29904-0.72798-0.6027-0.19356-0.70078 0.72798-2.056 0.72798-2.056z" fill="#0f0" opacity=".94"/>
		<path d="m8.4206 291.04s0.92154 1.3552 0.72798 2.056c-0.08387 0.30366-0.13907 0.59435-0.72798 0.6027-0.58891 8e-3 -0.64411-0.29904-0.72798-0.6027-0.19356-0.70078 0.72798-2.056 0.72798-2.056z" fill="#00f" opacity=".94"/>
	</g>
</svg>
