<?xml version="1.0" encoding="UTF-8"?>
<svg width="50" height="35" version="1.1" viewBox="0 0 13.229 9.2604" xmlns="http://www.w3.org/2000/svg" xmlns:cc="http://creativecommons.org/ns#" xmlns:dc="http://purl.org/dc/elements/1.1/" xmlns:rdf="http://www.w3.org/1999/02/22-rdf-syntax-ns#" xmlns:xlink="http://www.w3.org/1999/xlink">
	<defs>
		<linearGradient id="a">
			<stop stop-color="#b40000" offset="0"/>
			<stop stop-color="#ff2121" offset="1"/>
		</linearGradient>
		<radialGradient id="b" cx="6.6146" cy="291.27" r="2.8619" gradientTransform="translate(0 6.1263e-5)" gradientUnits="userSpaceOnUse" xlink:href="#a"/>
		<radialGradient id="c" cx="6.6146" cy="291.27" r="2.8619" gradientTransform="matrix(.70712 -.7071 .75294 .75296 -217.37 76.632)" gradientUnits="userSpaceOnUse" xlink:href="#a"/>
	</defs>
	<metadata>
		<rdf:RDF>
			<cc:Work rdf:about="">
				<dc:format>image/svg+xml</dc:format>
				<dc:type rdf:resource="http://purl.org/dc/dcmitype/StillImage"/>
				<dc:title/>
			</cc:Work>
		</rdf:RDF>
	</metadata>
	<g transform="translate(0 -287.74)">
		<g stroke-width=".26458" aria-label="False">
			<path d="m3.3886 294.37h1.1459v0.22704h-0.87612v0.58764h0.79064v0.22704h-0.79064v0.95225h-0.26978z"/>
			<path d="m5.3799 295.61q-0.29783 0-0.41268 0.0681t-0.11486 0.23238q0 0.13089 0.085475 0.20835 0.086811 0.0761 0.23506 0.0761 0.20434 0 0.32721-0.14424 0.12421-0.14557 0.12421-0.38597v-0.0548zm0.49015-0.1015v0.85342h-0.24574v-0.22705q-0.08414 0.13623-0.20968 0.20167-0.12554 0.0641-0.30718 0.0641-0.22971 0-0.36594-0.12821-0.13489-0.12955-0.13489-0.34591 0-0.25242 0.16828-0.38063 0.16961-0.12821 0.50484-0.12821h0.34457v-0.024q0-0.16962-0.11219-0.26177-0.11085-0.0935-0.31252-0.0935-0.12821 0-0.24975 0.0307t-0.23372 0.0922v-0.22704q0.13489-0.0521 0.26177-0.0775 0.12688-0.0267 0.24708-0.0267 0.32454 0 0.4848 0.16828 0.16027 0.16828 0.16027 0.51018z"/>
			<path d="m6.3762 294.28h0.24574v2.0781h-0.24574z"/>
			<path d="m8.0897 294.91v0.23238q-0.10417-0.0534-0.21636-0.0801t-0.23239-0.0267q-0.18297 0-0.27512 0.0561-0.090817 0.0561-0.090817 0.16828 0 0.0855 0.065442 0.13489 0.065442 0.0481 0.2631 0.0921l0.084139 0.0187q0.26177 0.0561 0.37128 0.15893 0.11085 0.1015 0.11085 0.28447 0 0.20835-0.16561 0.32988-0.16427 0.12154-0.45275 0.12154-0.1202 0-0.25108-0.024-0.12955-0.0227-0.27379-0.0695v-0.25375q0.13623 0.0708 0.26844 0.10684 0.13222 0.0347 0.26177 0.0347 0.17362 0 0.26711-0.0588 0.093488-0.0601 0.093488-0.16828 0-0.10017-0.068113-0.15359-0.066777-0.0534-0.29516-0.10283l-0.085475-0.02q-0.22838-0.0481-0.32988-0.14691-0.1015-0.10016-0.1015-0.27378 0-0.21102 0.14958-0.32588 0.14958-0.11486 0.4247-0.11486 0.13623 0 0.25642 0.02t0.2217 0.0601z"/>
			<path d="m9.8406 295.55v0.12019h-1.1299q0.016027 0.25376 0.15225 0.38731 0.13756 0.13222 0.38197 0.13222 0.14157 0 0.27379-0.0347 0.13355-0.0347 0.26444-0.10417v0.23238q-0.13222 0.0561-0.27112 0.0855-0.1389 0.0294-0.2818 0.0294-0.35793 0-0.56761-0.20835-0.20835-0.20834-0.20835-0.5636 0-0.36727 0.19766-0.5823 0.199-0.21636 0.53555-0.21636 0.30183 0 0.47679 0.19499 0.17629 0.19366 0.17629 0.52755zm-0.24574-0.0721q-0.00267-0.20167-0.11352-0.32187-0.10951-0.1202-0.29115-0.1202-0.20567 0-0.32988 0.11619-0.12287 0.1162-0.14157 0.32721z"/>
		</g>
		<g fill="#f00" stroke-linecap="round" stroke-width="1.4">
			<path d="m4.4597 293.43 4.3097-4.3097" stroke="url(#b)"/>
			<path d="m8.7694 293.43-4.3097-4.3097" stroke="url(#c)"/>
		</g>
	</g>
</svg>
