<?xml version="1.0" encoding="UTF-8"?>
<svg width="50" height="35" version="1.1" viewBox="0 0 13.229 9.2604" xmlns="http://www.w3.org/2000/svg" xmlns:xlink="http://www.w3.org/1999/xlink">
	<g transform="translate(0 -287.74)">
		<g stroke-width=".26458" aria-label="None">
			<path d="m3.1148 294.35h0.37827l0.92065 1.737v-1.737h0.27258v2.0763h-0.37827l-0.92065-1.737v1.737h-0.27258z"/>
			<path d="m5.8378 295.05q-0.20583 0-0.32543 0.16132-0.1196 0.15994-0.1196 0.43947t0.11821 0.44086q0.1196 0.15993 0.32682 0.15993 0.20443 0 0.32404-0.16133 0.1196-0.16132 0.1196-0.43946 0-0.27675-0.1196-0.43807-0.1196-0.16272-0.32404-0.16272zm0-0.21695q0.33377 0 0.5243 0.21695t0.19053 0.60079q0 0.38245-0.19053 0.60079-0.19053 0.21695-0.5243 0.21695-0.33516 0-0.52569-0.21695-0.18914-0.21834-0.18914-0.60079 0-0.38384 0.18914-0.60079 0.19053-0.21695 0.52569-0.21695z"/>
			<path d="m8.2715 295.49v0.94012h-0.25589v-0.93178q0-0.22112-0.086224-0.33099t-0.25867-0.10987q-0.20722 0-0.32682 0.13212t-0.1196 0.3602v0.88032h-0.25728v-1.5576h0.25728v0.24198q0.091787-0.14046 0.21556-0.20999 0.12516-0.0695 0.28788-0.0695 0.26841 0 0.40609 0.16689 0.13768 0.16549 0.13768 0.48814z"/>
			<path d="m10.114 295.59v0.12516h-1.1765q0.016689 0.26424 0.15854 0.40331 0.14324 0.13768 0.39774 0.13768 0.14742 0 0.2851-0.0362 0.13907-0.0362 0.27536-0.10848v0.24199q-0.13768 0.0584-0.28231 0.089-0.14463 0.0306-0.29344 0.0306-0.37271 0-0.59105-0.21695-0.21695-0.21695-0.21695-0.58688 0-0.38245 0.20583-0.60635 0.20722-0.2253 0.55768-0.2253 0.3143 0 0.49648 0.20304 0.18357 0.20166 0.18357 0.54934zm-0.25589-0.0751q-0.00278-0.21-0.11821-0.33516-0.11404-0.12517-0.30318-0.12517-0.21417 0-0.34351 0.12099-0.12795 0.121-0.14742 0.34073z"/>
		</g>
		<ellipse cx="6.6145" cy="291.44" rx="2.6458" ry="2.6458" fill="none" stroke="#2a7fff" stroke-linecap="round" stroke-linejoin="round" stroke-width=".52917" style="paint-order:stroke fill markers"/>
	</g>
</svg>
