<?xml version="1.0" encoding="UTF-8" standalone="no"?>
<!-- Created with Inkscape (http://www.inkscape.org/) -->

<svg
   xmlns:dc="http://purl.org/dc/elements/1.1/"
   xmlns:cc="http://creativecommons.org/ns#"
   xmlns:rdf="http://www.w3.org/1999/02/22-rdf-syntax-ns#"
   xmlns:svg="http://www.w3.org/2000/svg"
   xmlns="http://www.w3.org/2000/svg"
   xmlns:sodipodi="http://sodipodi.sourceforge.net/DTD/sodipodi-0.dtd"
   xmlns:inkscape="http://www.inkscape.org/namespaces/inkscape"
   width="50"
   height="35"
   version="1.0"
   id="svg20"
   sodipodi:docname="python.svg"
   inkscape:version="0.92.4 5da689c313, 2019-01-14">
  <sodipodi:namedview
     pagecolor="#ffffff"
     bordercolor="#666666"
     borderopacity="1"
     objecttolerance="10"
     gridtolerance="10"
     guidetolerance="10"
     inkscape:pageopacity="0"
     inkscape:pageshadow="2"
     inkscape:window-width="1854"
     inkscape:window-height="1016"
     id="namedview22"
     showgrid="false"
     inkscape:zoom="38.14336"
     inkscape:cx="23.653831"
     inkscape:cy="8.5052031"
     inkscape:window-x="66"
     inkscape:window-y="27"
     inkscape:window-maximized="1"
     inkscape:current-layer="svg20" />
  <metadata
     id="metadata2">
    <rdf:RDF>
      <cc:Work
         rdf:about="">
        <dc:format>image/svg+xml</dc:format>
        <dc:type
           rdf:resource="http://purl.org/dc/dcmitype/StillImage" />
        <dc:title />
      </cc:Work>
    </rdf:RDF>
  </metadata>
  <defs
     id="defs14">
    <linearGradient
       id="linearGradient1475-3"
       x1="150.96"
       x2="112.03"
       y1="192.35"
       y2="137.27"
       gradientTransform="matrix(.15016 0 0 .15161 6.1623 -.62371)"
       gradientUnits="userSpaceOnUse">
      <stop
         stop-color="#ffd43b"
         offset="0"
         id="stop4" />
      <stop
         stop-color="#ffe873"
         offset="1"
         id="stop6" />
    </linearGradient>
    <linearGradient
       id="linearGradient1478-5"
       x1="26.649"
       x2="135.67"
       y1="20.604"
       y2="114.4"
       gradientTransform="matrix(.15016 0 0 .15161 6.1623 -.62371)"
       gradientUnits="userSpaceOnUse">
      <stop
         stop-color="#5a9fd4"
         offset="0"
         id="stop9" />
      <stop
         stop-color="#306998"
         offset="1"
         id="stop11" />
    </linearGradient>
  </defs>
  <path
     d="m24.823 2.5002c-1.2235 0.0057-2.3919 0.11003-3.42 0.29196-3.0286 0.53506-3.5785 1.655-3.5785 3.7203v2.7277h7.1571v0.90923h-9.843c-2.08 0-3.9014 1.2502-4.4711 3.6286-0.65713 2.7261-0.68628 4.4273 0 7.2738 0.50875 2.1189 1.7237 3.6286 3.8038 3.6286h2.4608v-3.2699c0-2.3623 2.0439-4.4461 4.4711-4.4461h7.1487c1.99 0 3.5785-1.6385 3.5785-3.6369v-6.8151c0-1.9396-1.6363-3.3966-3.5785-3.7203-1.2295-0.20466-2.5052-0.29764-3.7287-0.29196zm-3.8705 2.1938c0.73928 0 1.343 0.61358 1.343 1.368 0 0.75176-0.60372 1.3597-1.343 1.3597-0.74192 0-1.343-0.60791-1.343-1.3597-1e-6 -0.75444 0.60107-1.368 1.343-1.368z"
     fill="url(#linearGradient1478-5)"
     id="path16" />
  <path
     d="m33.023 10.149v3.1781c0 2.464-2.089 4.5378-4.4711 4.5378h-7.1487c-1.9582 0-3.5785 1.6759-3.5785 3.6369v6.8151c0 1.9396 1.6866 3.0805 3.5785 3.6369 2.2655 0.66615 4.438 0.78654 7.1487 0 1.8018-0.52169 3.5785-1.5716 3.5785-3.6369v-2.7277h-7.1487v-0.90923h10.727c2.08 0 2.8552-1.4509 3.5785-3.6286 0.74723-2.2419 0.71543-4.3979 0-7.2738-0.51405-2.0707-1.4958-3.6286-3.5785-3.6286zm-4.0206 17.259c0.74193 1e-6 1.343 0.60791 1.343 1.3597 0 0.75444-0.60106 1.368-1.343 1.368-0.73928 0-1.343-0.61358-1.343-1.368 0-0.75176 0.60372-1.3597 1.343-1.3597z"
     fill="url(#linearGradient1475-3)"
     id="path18" />
  <path
     style="fill:#ffffff;fill-opacity:1;fill-rule:nonzero;stroke:none;stroke-width:1.5;stroke-linecap:round;stroke-linejoin:round;stroke-miterlimit:4;stroke-dasharray:none;stroke-opacity:1;paint-order:stroke fill markers"
     d="M 20.647647,7.3743068 C 20.454922,7.325466 20.217801,7.2002756 20.067604,7.0680666 19.588332,6.6461945 19.486922,5.8729178 19.839408,5.3280164 20.09133,4.9385749 20.496393,4.7134202 20.943831,4.7141219 c 0.371506,5.826e-4 0.677702,0.1259961 0.936446,0.3835542 0.515717,0.513355 0.535709,1.3399794 0.04522,1.8697654 -0.168935,0.1824698 -0.337326,0.2956454 -0.549409,0.3692574 -0.205189,0.071219 -0.5297,0.087973 -0.728442,0.037608 z"
     id="path4556"
     inkscape:connector-curvature="0" />
  <path
     style="fill:#ffffff;fill-opacity:1;fill-rule:nonzero;stroke:none;stroke-width:1.5;stroke-linecap:round;stroke-linejoin:round;stroke-miterlimit:4;stroke-dasharray:none;stroke-opacity:1;paint-order:stroke fill markers"
     d="m 28.653512,30.076481 c -0.43727,-0.117588 -0.842396,-0.53844 -0.944315,-0.980969 -0.03493,-0.151683 -0.03493,-0.50374 0,-0.655422 0.150439,-0.653204 0.837237,-1.111948 1.499047,-1.001285 1.080508,0.180676 1.501425,1.531787 0.716222,2.29902 -0.184314,0.180097 -0.358752,0.282364 -0.579867,0.339957 -0.19094,0.04973 -0.503496,0.04915 -0.691087,-0.0013 z"
     id="path4558"
     inkscape:connector-curvature="0" />
</svg>
