<?xml version="1.0" encoding="UTF-8"?>
<svg width="50" height="35" version="1.1" viewBox="0 0 13.229 9.2604" xmlns="http://www.w3.org/2000/svg">
	<g transform="matrix(1 0 0 1 5.2209 .53306)" stroke-width=".26458">
		<g fill-opacity="0">
			<path d="m6.4208 5.2878h0.26458v0.26458h-0.26458"/>
			<path d="m6.1562 5.2878h0.26458v0.26458h-0.26458"/>
			<path d="m5.8916 5.2878h0.26458v0.26458h-0.26458"/>
			<path d="m5.6271 5.2878h0.26458v0.26458h-0.26458"/>
			<path d="m5.3625 5.2878h0.26458v0.26458h-0.26458"/>
			<path d="m5.0979 5.2878h0.26458v0.26458h-0.26458"/>
			<path d="m4.8333 5.2878h0.26458v0.26458h-0.26458"/>
			<path d="m4.5687 5.2878h0.26458v0.26458h-0.26458"/>
		</g>
		<path d="m4.3041 5.2878h0.26458v0.26458h-0.26458"/>
		<g fill-opacity="0">
			<path d="m4.0396 5.2878h0.26458v0.26458h-0.26458"/>
			<path d="m3.775 5.2878h0.26458v0.26458h-0.26458"/>
			<path d="m3.5104 5.2878h0.26458v0.26458h-0.26458"/>
			<path d="m3.2458 5.2878h0.26458v0.26458h-0.26458"/>
			<path d="m2.9812 5.2878h0.26458v0.26458h-0.26458"/>
			<path d="m2.7166 5.2878h0.26458v0.26458h-0.26458"/>
			<path d="m2.4521 5.2878h0.26458v0.26458h-0.26458"/>
			<path d="m2.1875 5.2878h0.26458v0.26458h-0.26458"/>
			<path d="m1.9229 5.2878h0.26458v0.26458h-0.26458"/>
			<path d="m1.6583 5.2878h0.26458v0.26458h-0.26458"/>
			<path d="m1.3937 5.2878h0.26458v0.26458h-0.26458"/>
			<path d="m1.1291 5.2878h0.26458v0.26458h-0.26458"/>
			<path d="m0.86456 5.2878h0.26458v0.26458h-0.26458"/>
			<path d="m0.59998 5.2878h0.26458v0.26458h-0.26458"/>
			<path d="m0.33539 5.2878h0.26458v0.26458h-0.26458"/>
			<path d="m0.07081 5.2878h0.26458v0.26458h-0.26458"/>
			<path d="m6.4208 5.0232h0.26458v0.26458h-0.26458"/>
			<path d="m6.1562 5.0232h0.26458v0.26458h-0.26458"/>
			<path d="m5.8916 5.0232h0.26458v0.26458h-0.26458"/>
			<path d="m5.6271 5.0232h0.26458v0.26458h-0.26458"/>
			<path d="m5.3625 5.0232h0.26458v0.26458h-0.26458"/>
			<path d="m5.0979 5.0232h0.26458v0.26458h-0.26458"/>
			<path d="m4.8333 5.0232h0.26458v0.26458h-0.26458"/>
		</g>
		<g>
			<path d="m4.5687 5.0232h0.26458v0.26458h-0.26458"/>
			<path d="m4.3041 5.0232h0.26458v0.26458h-0.26458"/>
			<path d="m4.0396 5.0232h0.26458v0.26458h-0.26458"/>
		</g>
		<g fill-opacity="0">
			<path d="m3.775 5.0232h0.26458v0.26458h-0.26458"/>
			<path d="m3.5104 5.0232h0.26458v0.26458h-0.26458"/>
			<path d="m3.2458 5.0232h0.26458v0.26458h-0.26458"/>
			<path d="m2.9812 5.0232h0.26458v0.26458h-0.26458"/>
			<path d="m2.7166 5.0232h0.26458v0.26458h-0.26458"/>
			<path d="m2.4521 5.0232h0.26458v0.26458h-0.26458"/>
			<path d="m2.1875 5.0232h0.26458v0.26458h-0.26458"/>
			<path d="m1.9229 5.0232h0.26458v0.26458h-0.26458"/>
			<path d="m1.6583 5.0232h0.26458v0.26458h-0.26458"/>
			<path d="m1.3937 5.0232h0.26458v0.26458h-0.26458"/>
			<path d="m1.1291 5.0232h0.26458v0.26458h-0.26458"/>
			<path d="m0.86456 5.0232h0.26458v0.26458h-0.26458"/>
		</g>
		<path d="m0.59998 5.0232h0.26458v0.26458h-0.26458"/>
		<g fill-opacity="0">
			<path d="m0.33539 5.0232h0.26458v0.26458h-0.26458"/>
			<path d="m0.07081 5.0232h0.26458v0.26458h-0.26458"/>
			<path d="m6.4208 4.7586h0.26458v0.26458h-0.26458"/>
			<path d="m6.1562 4.7586h0.26458v0.26458h-0.26458"/>
			<path d="m5.8916 4.7586h0.26458v0.26458h-0.26458"/>
			<path d="m5.6271 4.7586h0.26458v0.26458h-0.26458"/>
			<path d="m5.3625 4.7586h0.26458v0.26458h-0.26458"/>
			<path d="m5.0979 4.7586h0.26458v0.26458h-0.26458"/>
			<path d="m4.8333 4.7586h0.26458v0.26458h-0.26458"/>
		</g>
		<g>
			<path d="m4.5687 4.7586h0.26458v0.26458h-0.26458"/>
			<path d="m4.3041 4.7586h0.26458v0.26458h-0.26458"/>
			<path d="m4.0396 4.7586h0.26458v0.26458h-0.26458"/>
			<path d="m3.775 4.7586h0.26458v0.26458h-0.26458"/>
		</g>
		<path d="m3.5104 4.7586h0.26458v0.26458h-0.26458" fill-opacity="0"/>
		<path d="m3.2458 4.7586h0.26458v0.26458h-0.26458" fill-opacity="0"/>
		<g>
			<path d="m2.9812 4.7586h0.26458v0.26458h-0.26458"/>
			<path d="m2.7166 4.7586h0.26458v0.26458h-0.26458"/>
			<path d="m2.4521 4.7586h0.26458v0.26458h-0.26458"/>
			<path d="m2.1875 4.7586h0.26458v0.26458h-0.26458"/>
		</g>
		<g fill-opacity="0">
			<path d="m1.9229 4.7586h0.26458v0.26458h-0.26458"/>
			<path d="m1.6583 4.7586h0.26458v0.26458h-0.26458"/>
			<path d="m1.3937 4.7586h0.26458v0.26458h-0.26458"/>
			<path d="m1.1291 4.7586h0.26458v0.26458h-0.26458"/>
		</g>
		<g>
			<path d="m0.86456 4.7586h0.26458v0.26458h-0.26458"/>
			<path d="m0.59998 4.7586h0.26458v0.26458h-0.26458"/>
			<path d="m0.33539 4.7586h0.26458v0.26458h-0.26458"/>
		</g>
		<g fill-opacity="0">
			<path d="m0.07081 4.7586h0.26458v0.26458h-0.26458"/>
			<path d="m6.4208 4.494h0.26458v0.26458h-0.26458"/>
			<path d="m6.1562 4.494h0.26458v0.26458h-0.26458"/>
			<path d="m5.8916 4.494h0.26458v0.26458h-0.26458"/>
			<path d="m5.6271 4.494h0.26458v0.26458h-0.26458"/>
			<path d="m5.3625 4.494h0.26458v0.26458h-0.26458"/>
			<path d="m5.0979 4.494h0.26458v0.26458h-0.26458"/>
			<path d="m4.8333 4.494h0.26458v0.26458h-0.26458"/>
			<path d="m4.5687 4.494h0.26458v0.26458h-0.26458"/>
		</g>
		<g>
			<path d="m4.3041 4.494h0.26458v0.26458h-0.26458"/>
			<path d="m4.0396 4.494h0.26458v0.26458h-0.26458"/>
			<path d="m3.775 4.494h0.26458v0.26458h-0.26458"/>
			<path d="m3.5104 4.494h0.26458v0.26458h-0.26458"/>
			<path d="m3.2458 4.494h0.26458v0.26458h-0.26458"/>
			<path d="m2.9812 4.494h0.26458v0.26458h-0.26458"/>
			<path d="m2.7166 4.494h0.26458v0.26458h-0.26458"/>
			<path d="m2.4521 4.494h0.26458v0.26458h-0.26458"/>
			<path d="m2.1875 4.494h0.26458v0.26458h-0.26458"/>
			<path d="m1.9229 4.494h0.26458v0.26458h-0.26458"/>
			<path d="m1.6583 4.494h0.26458v0.26458h-0.26458"/>
		</g>
		<path d="m1.3937 4.494h0.26458v0.26458h-0.26458" fill-opacity="0"/>
		<g>
			<path d="m1.1291 4.494h0.26458v0.26458h-0.26458"/>
			<path d="m0.86456 4.494h0.26458v0.26458h-0.26458"/>
			<path d="m0.59998 4.494h0.26458v0.26458h-0.26458"/>
			<path d="m0.33539 4.494h0.26458v0.26458h-0.26458"/>
			<path d="m0.07081 4.494h0.26458v0.26458h-0.26458"/>
		</g>
		<g fill-opacity="0">
			<path d="m6.4208 4.2294h0.26458v0.26458h-0.26458"/>
			<path d="m6.1562 4.2294h0.26458v0.26458h-0.26458"/>
			<path d="m5.8916 4.2294h0.26458v0.26458h-0.26458"/>
			<path d="m5.6271 4.2294h0.26458v0.26458h-0.26458"/>
			<path d="m5.3625 4.2294h0.26458v0.26458h-0.26458"/>
			<path d="m5.0979 4.2294h0.26458v0.26458h-0.26458"/>
			<path d="m4.8333 4.2294h0.26458v0.26458h-0.26458"/>
			<path d="m4.5687 4.2294h0.26458v0.26458h-0.26458"/>
		</g>
		<g>
			<path d="m4.3041 4.2294h0.26458v0.26458h-0.26458"/>
			<path d="m4.0396 4.2294h0.26458v0.26458h-0.26458"/>
			<path d="m3.775 4.2294h0.26458v0.26458h-0.26458"/>
			<path d="m3.5104 4.2294h0.26458v0.26458h-0.26458"/>
			<path d="m3.2458 4.2294h0.26458v0.26458h-0.26458"/>
			<path d="m2.9812 4.2294h0.26458v0.26458h-0.26458"/>
			<path d="m2.7166 4.2294h0.26458v0.26458h-0.26458"/>
			<path d="m2.4521 4.2294h0.26458v0.26458h-0.26458"/>
			<path d="m2.1875 4.2294h0.26458v0.26458h-0.26458"/>
			<path d="m1.9229 4.2294h0.26458v0.26458h-0.26458"/>
			<path d="m1.6583 4.2294h0.26458v0.26458h-0.26458"/>
			<path d="m1.3937 4.2294h0.26458v0.26458h-0.26458"/>
			<path d="m1.1291 4.2294h0.26458v0.26458h-0.26458"/>
			<path d="m0.86456 4.2294h0.26458v0.26458h-0.26458"/>
			<path d="m0.59998 4.2294h0.26458v0.26458h-0.26458"/>
			<path d="m0.33539 4.2294h0.26458v0.26458h-0.26458"/>
		</g>
		<g fill-opacity="0">
			<path d="m0.07081 4.2294h0.26458v0.26458h-0.26458"/>
			<path d="m6.4208 3.9648h0.26458v0.26458h-0.26458"/>
			<path d="m6.1562 3.9648h0.26458v0.26458h-0.26458"/>
			<path d="m5.8916 3.9648h0.26458v0.26458h-0.26458"/>
			<path d="m5.6271 3.9648h0.26458v0.26458h-0.26458"/>
			<path d="m5.3625 3.9648h0.26458v0.26458h-0.26458"/>
			<path d="m5.0979 3.9648h0.26458v0.26458h-0.26458"/>
			<path d="m4.8333 3.9648h0.26458v0.26458h-0.26458"/>
			<path d="m4.5687 3.9648h0.26458v0.26458h-0.26458"/>
			<path d="m4.3041 3.9648h0.26458v0.26458h-0.26458"/>
		</g>
		<g>
			<path d="m4.0396 3.9648h0.26458v0.26458h-0.26458"/>
			<path d="m3.775 3.9648h0.26458v0.26458h-0.26458"/>
			<path d="m3.5104 3.9648h0.26458v0.26458h-0.26458"/>
			<path d="m3.2458 3.9648h0.26458v0.26458h-0.26458"/>
			<path d="m2.9812 3.9648h0.26458v0.26458h-0.26458"/>
			<path d="m2.7166 3.9648h0.26458v0.26458h-0.26458"/>
			<path d="m2.4521 3.9648h0.26458v0.26458h-0.26458"/>
			<path d="m2.1875 3.9648h0.26458v0.26458h-0.26458"/>
			<path d="m1.9229 3.9648h0.26458v0.26458h-0.26458"/>
			<path d="m1.6583 3.9648h0.26458v0.26458h-0.26458"/>
			<path d="m1.3937 3.9648h0.26458v0.26458h-0.26458"/>
			<path d="m1.1291 3.9648h0.26458v0.26458h-0.26458"/>
			<path d="m0.86456 3.9648h0.26458v0.26458h-0.26458"/>
		</g>
		<g fill-opacity="0">
			<path d="m0.59998 3.9648h0.26458v0.26458h-0.26458"/>
			<path d="m0.33539 3.9648h0.26458v0.26458h-0.26458"/>
			<path d="m0.07081 3.9648h0.26458v0.26458h-0.26458"/>
			<path d="m6.4208 3.7003h0.26458v0.26458h-0.26458"/>
			<path d="m6.1562 3.7003h0.26458v0.26458h-0.26458"/>
			<path d="m5.8916 3.7003h0.26458v0.26458h-0.26458"/>
			<path d="m5.6271 3.7003h0.26458v0.26458h-0.26458"/>
			<path d="m5.3625 3.7003h0.26458v0.26458h-0.26458"/>
			<path d="m5.0979 3.7003h0.26458v0.26458h-0.26458"/>
			<path d="m4.8333 3.7003h0.26458v0.26458h-0.26458"/>
			<path d="m4.5687 3.7003h0.26458v0.26458h-0.26458"/>
		</g>
		<g>
			<path d="m4.3041 3.7003h0.26458v0.26458h-0.26458"/>
			<path d="m4.0396 3.7003h0.26458v0.26458h-0.26458"/>
			<path d="m3.775 3.7003h0.26458v0.26458h-0.26458"/>
			<path d="m3.5104 3.7003h0.26458v0.26458h-0.26458"/>
			<path d="m3.2458 3.7003h0.26458v0.26458h-0.26458"/>
			<path d="m2.9812 3.7003h0.26458v0.26458h-0.26458"/>
			<path d="m2.7166 3.7003h0.26458v0.26458h-0.26458"/>
			<path d="m2.4521 3.7003h0.26458v0.26458h-0.26458"/>
			<path d="m2.1875 3.7003h0.26458v0.26458h-0.26458"/>
			<path d="m1.9229 3.7003h0.26458v0.26458h-0.26458"/>
			<path d="m1.6583 3.7003h0.26458v0.26458h-0.26458"/>
			<path d="m1.3937 3.7003h0.26458v0.26458h-0.26458"/>
			<path d="m1.1291 3.7003h0.26458v0.26458h-0.26458"/>
			<path d="m0.86456 3.7003h0.26458v0.26458h-0.26458"/>
			<path d="m0.59998 3.7003h0.26458v0.26458h-0.26458"/>
		</g>
		<g fill-opacity="0">
			<path d="m0.33539 3.7003h0.26458v0.26458h-0.26458"/>
			<path d="m0.07081 3.7003h0.26458v0.26458h-0.26458"/>
			<path d="m6.4208 3.4357h0.26458v0.26458h-0.26458"/>
			<path d="m6.1562 3.4357h0.26458v0.26458h-0.26458"/>
		</g>
		<g>
			<path d="m5.8916 3.4357h0.26458v0.26458h-0.26458"/>
			<path d="m5.6271 3.4357h0.26458v0.26458h-0.26458"/>
			<path d="m5.3625 3.4357h0.26458v0.26458h-0.26458"/>
		</g>
		<path d="m5.0979 3.4357h0.26458v0.26458h-0.26458" fill-opacity="0"/>
		<path d="m4.8333 3.4357h0.26458v0.26458h-0.26458" fill-opacity="0"/>
		<g>
			<path d="m4.5687 3.4357h0.26458v0.26458h-0.26458"/>
			<path d="m4.3041 3.4357h0.26458v0.26458h-0.26458"/>
			<path d="m4.0396 3.4357h0.26458v0.26458h-0.26458"/>
			<path d="m3.775 3.4357h0.26458v0.26458h-0.26458"/>
			<path d="m3.5104 3.4357h0.26458v0.26458h-0.26458"/>
			<path d="m3.2458 3.4357h0.26458v0.26458h-0.26458"/>
			<path d="m2.9812 3.4357h0.26458v0.26458h-0.26458"/>
			<path d="m2.7166 3.4357h0.26458v0.26458h-0.26458"/>
			<path d="m2.4521 3.4357h0.26458v0.26458h-0.26458"/>
			<path d="m2.1875 3.4357h0.26458v0.26458h-0.26458"/>
			<path d="m1.9229 3.4357h0.26458v0.26458h-0.26458"/>
			<path d="m1.6583 3.4357h0.26458v0.26458h-0.26458"/>
			<path d="m1.3937 3.4357h0.26458v0.26458h-0.26458"/>
			<path d="m1.1291 3.4357h0.26458v0.26458h-0.26458"/>
			<path d="m0.86456 3.4357h0.26458v0.26458h-0.26458"/>
			<path d="m0.59998 3.4357h0.26458v0.26458h-0.26458"/>
		</g>
		<g fill-opacity="0">
			<path d="m0.33539 3.4357h0.26458v0.26458h-0.26458"/>
			<path d="m0.07081 3.4357h0.26458v0.26458h-0.26458"/>
			<path d="m6.4208 3.1711h0.26458v0.26458h-0.26458"/>
		</g>
		<g>
			<path d="m6.1562 3.1711h0.26458v0.26458h-0.26458"/>
			<path d="m5.8916 3.1711h0.26458v0.26458h-0.26458"/>
			<path d="m5.6271 3.1711h0.26458v0.26458h-0.26458"/>
			<path d="m5.3625 3.1711h0.26458v0.26458h-0.26458"/>
			<path d="m5.0979 3.1711h0.26458v0.26458h-0.26458"/>
			<path d="m4.8333 3.1711h0.26458v0.26458h-0.26458"/>
			<path d="m4.5687 3.1711h0.26458v0.26458h-0.26458"/>
			<path d="m4.3041 3.1711h0.26458v0.26458h-0.26458"/>
			<path d="m4.0396 3.1711h0.26458v0.26458h-0.26458"/>
			<path d="m3.775 3.1711h0.26458v0.26458h-0.26458"/>
			<path d="m3.5104 3.1711h0.26458v0.26458h-0.26458"/>
			<path d="m3.2458 3.1711h0.26458v0.26458h-0.26458"/>
			<path d="m2.9812 3.1711h0.26458v0.26458h-0.26458"/>
			<path d="m2.7166 3.1711h0.26458v0.26458h-0.26458"/>
			<path d="m2.4521 3.1711h0.26458v0.26458h-0.26458"/>
			<path d="m2.1875 3.1711h0.26458v0.26458h-0.26458"/>
			<path d="m1.9229 3.1711h0.26458v0.26458h-0.26458"/>
			<path d="m1.6583 3.1711h0.26458v0.26458h-0.26458"/>
			<path d="m1.3937 3.1711h0.26458v0.26458h-0.26458"/>
			<path d="m1.1291 3.1711h0.26458v0.26458h-0.26458"/>
			<path d="m0.86456 3.1711h0.26458v0.26458h-0.26458"/>
			<path d="m0.59998 3.1711h0.26458v0.26458h-0.26458"/>
			<path d="m0.33539 3.1711h0.26458v0.26458h-0.26458"/>
		</g>
		<path d="m0.07081 3.1711h0.26458v0.26458h-0.26458" fill-opacity="0"/>
		<g>
			<path d="m6.4208 2.9065h0.26458v0.26458h-0.26458"/>
			<path d="m6.1562 2.9065h0.26458v0.26458h-0.26458"/>
			<path d="m5.8916 2.9065h0.26458v0.26458h-0.26458"/>
			<path d="m5.6271 2.9065h0.26458v0.26458h-0.26458"/>
			<path d="m5.3625 2.9065h0.26458v0.26458h-0.26458"/>
			<path d="m5.0979 2.9065h0.26458v0.26458h-0.26458"/>
			<path d="m4.8333 2.9065h0.26458v0.26458h-0.26458"/>
			<path d="m4.5687 2.9065h0.26458v0.26458h-0.26458"/>
			<path d="m4.3041 2.9065h0.26458v0.26458h-0.26458"/>
			<path d="m4.0396 2.9065h0.26458v0.26458h-0.26458"/>
			<path d="m3.775 2.9065h0.26458v0.26458h-0.26458"/>
			<path d="m3.5104 2.9065h0.26458v0.26458h-0.26458"/>
			<path d="m3.2458 2.9065h0.26458v0.26458h-0.26458"/>
			<path d="m2.9812 2.9065h0.26458v0.26458h-0.26458"/>
			<path d="m2.7166 2.9065h0.26458v0.26458h-0.26458"/>
			<path d="m2.4521 2.9065h0.26458v0.26458h-0.26458"/>
			<path d="m2.1875 2.9065h0.26458v0.26458h-0.26458"/>
			<path d="m1.9229 2.9065h0.26458v0.26458h-0.26458"/>
			<path d="m1.6583 2.9065h0.26458v0.26458h-0.26458"/>
			<path d="m1.3937 2.9065h0.26458v0.26458h-0.26458"/>
			<path d="m1.1291 2.9065h0.26458v0.26458h-0.26458"/>
			<path d="m0.86456 2.9065h0.26458v0.26458h-0.26458"/>
			<path d="m0.59998 2.9065h0.26458v0.26458h-0.26458"/>
			<path d="m0.33539 2.9065h0.26458v0.26458h-0.26458"/>
		</g>
		<path d="m0.07081 2.9065h0.26458v0.26458h-0.26458" fill-opacity="0"/>
		<path d="m6.4208 2.6419h0.26458v0.26458h-0.26458" fill-opacity="0"/>
		<g>
			<path d="m6.1562 2.6419h0.26458v0.26458h-0.26458"/>
			<path d="m5.8916 2.6419h0.26458v0.26458h-0.26458"/>
			<path d="m5.6271 2.6419h0.26458v0.26458h-0.26458"/>
			<path d="m5.3625 2.6419h0.26458v0.26458h-0.26458"/>
			<path d="m5.0979 2.6419h0.26458v0.26458h-0.26458"/>
			<path d="m4.8333 2.6419h0.26458v0.26458h-0.26458"/>
			<path d="m4.5687 2.6419h0.26458v0.26458h-0.26458"/>
			<path d="m4.3041 2.6419h0.26458v0.26458h-0.26458"/>
			<path d="m4.0396 2.6419h0.26458v0.26458h-0.26458"/>
			<path d="m3.775 2.6419h0.26458v0.26458h-0.26458"/>
			<path d="m3.5104 2.6419h0.26458v0.26458h-0.26458"/>
			<path d="m3.2458 2.6419h0.26458v0.26458h-0.26458"/>
			<path d="m2.9812 2.6419h0.26458v0.26458h-0.26458"/>
			<path d="m2.7166 2.6419h0.26458v0.26458h-0.26458"/>
			<path d="m2.4521 2.6419h0.26458v0.26458h-0.26458"/>
			<path d="m2.1875 2.6419h0.26458v0.26458h-0.26458"/>
			<path d="m1.9229 2.6419h0.26458v0.26458h-0.26458"/>
			<path d="m1.6583 2.6419h0.26458v0.26458h-0.26458"/>
			<path d="m1.3937 2.6419h0.26458v0.26458h-0.26458"/>
			<path d="m1.1291 2.6419h0.26458v0.26458h-0.26458"/>
			<path d="m0.86456 2.6419h0.26458v0.26458h-0.26458"/>
			<path d="m0.59998 2.6419h0.26458v0.26458h-0.26458"/>
			<path d="m0.33539 2.6419h0.26458v0.26458h-0.26458"/>
		</g>
		<g fill-opacity="0">
			<path d="m0.07081 2.6419h0.26458v0.26458h-0.26458"/>
			<path d="m6.4208 2.3774h0.26458v0.26458h-0.26458"/>
			<path d="m6.1562 2.3774h0.26458v0.26458h-0.26458"/>
		</g>
		<g>
			<path d="m5.8916 2.3774h0.26458v0.26458h-0.26458"/>
			<path d="m5.6271 2.3774h0.26458v0.26458h-0.26458"/>
			<path d="m5.3625 2.3774h0.26458v0.26458h-0.26458"/>
		</g>
		<path d="m5.0979 2.3774h0.26458v0.26458h-0.26458" fill-opacity="0"/>
		<path d="m4.8333 2.3774h0.26458v0.26458h-0.26458" fill-opacity="0"/>
		<g>
			<path d="m4.5687 2.3774h0.26458v0.26458h-0.26458"/>
			<path d="m4.3041 2.3774h0.26458v0.26458h-0.26458"/>
			<path d="m4.0396 2.3774h0.26458v0.26458h-0.26458"/>
			<path d="m3.775 2.3774h0.26458v0.26458h-0.26458"/>
			<path d="m3.5104 2.3774h0.26458v0.26458h-0.26458"/>
			<path d="m3.2458 2.3774h0.26458v0.26458h-0.26458"/>
			<path d="m2.9812 2.3774h0.26458v0.26458h-0.26458"/>
			<path d="m2.7166 2.3774h0.26458v0.26458h-0.26458"/>
			<path d="m2.4521 2.3774h0.26458v0.26458h-0.26458"/>
			<path d="m2.1875 2.3774h0.26458v0.26458h-0.26458"/>
			<path d="m1.9229 2.3774h0.26458v0.26458h-0.26458"/>
			<path d="m1.6583 2.3774h0.26458v0.26458h-0.26458"/>
			<path d="m1.3937 2.3774h0.26458v0.26458h-0.26458"/>
			<path d="m1.1291 2.3774h0.26458v0.26458h-0.26458"/>
			<path d="m0.86456 2.3774h0.26458v0.26458h-0.26458"/>
			<path d="m0.59998 2.3774h0.26458v0.26458h-0.26458"/>
		</g>
		<g fill-opacity="0">
			<path d="m0.33539 2.3774h0.26458v0.26458h-0.26458"/>
			<path d="m0.07081 2.3774h0.26458v0.26458h-0.26458"/>
			<path d="m6.4208 2.1128h0.26458v0.26458h-0.26458"/>
			<path d="m6.1562 2.1128h0.26458v0.26458h-0.26458"/>
			<path d="m5.8916 2.1128h0.26458v0.26458h-0.26458"/>
			<path d="m5.6271 2.1128h0.26458v0.26458h-0.26458"/>
			<path d="m5.3625 2.1128h0.26458v0.26458h-0.26458"/>
			<path d="m5.0979 2.1128h0.26458v0.26458h-0.26458"/>
			<path d="m4.8333 2.1128h0.26458v0.26458h-0.26458"/>
			<path d="m4.5687 2.1128h0.26458v0.26458h-0.26458"/>
		</g>
		<g>
			<path d="m4.3041 2.1128h0.26458v0.26458h-0.26458"/>
			<path d="m4.0396 2.1128h0.26458v0.26458h-0.26458"/>
			<path d="m3.775 2.1128h0.26458v0.26458h-0.26458"/>
			<path d="m3.5104 2.1128h0.26458v0.26458h-0.26458"/>
			<path d="m3.2458 2.1128h0.26458v0.26458h-0.26458"/>
			<path d="m2.9812 2.1128h0.26458v0.26458h-0.26458"/>
			<path d="m2.7166 2.1128h0.26458v0.26458h-0.26458"/>
			<path d="m2.4521 2.1128h0.26458v0.26458h-0.26458"/>
			<path d="m2.1875 2.1128h0.26458v0.26458h-0.26458"/>
			<path d="m1.9229 2.1128h0.26458v0.26458h-0.26458"/>
			<path d="m1.6583 2.1128h0.26458v0.26458h-0.26458"/>
			<path d="m1.3937 2.1128h0.26458v0.26458h-0.26458"/>
			<path d="m1.1291 2.1128h0.26458v0.26458h-0.26458"/>
			<path d="m0.86456 2.1128h0.26458v0.26458h-0.26458"/>
			<path d="m0.59998 2.1128h0.26458v0.26458h-0.26458"/>
		</g>
		<g fill-opacity="0">
			<path d="m0.33539 2.1128h0.26458v0.26458h-0.26458"/>
			<path d="m0.07081 2.1128h0.26458v0.26458h-0.26458"/>
			<path d="m6.4208 1.8482h0.26458v0.26458h-0.26458"/>
			<path d="m6.1562 1.8482h0.26458v0.26458h-0.26458"/>
			<path d="m5.8916 1.8482h0.26458v0.26458h-0.26458"/>
			<path d="m5.6271 1.8482h0.26458v0.26458h-0.26458"/>
			<path d="m5.3625 1.8482h0.26458v0.26458h-0.26458"/>
			<path d="m5.0979 1.8482h0.26458v0.26458h-0.26458"/>
			<path d="m4.8333 1.8482h0.26458v0.26458h-0.26458"/>
			<path d="m4.5687 1.8482h0.26458v0.26458h-0.26458"/>
			<path d="m4.3041 1.8482h0.26458v0.26458h-0.26458"/>
		</g>
		<g>
			<path d="m4.0396 1.8482h0.26458v0.26458h-0.26458"/>
			<path d="m3.775 1.8482h0.26458v0.26458h-0.26458"/>
			<path d="m3.5104 1.8482h0.26458v0.26458h-0.26458"/>
			<path d="m3.2458 1.8482h0.26458v0.26458h-0.26458"/>
			<path d="m2.9812 1.8482h0.26458v0.26458h-0.26458"/>
			<path d="m2.7166 1.8482h0.26458v0.26458h-0.26458"/>
			<path d="m2.4521 1.8482h0.26458v0.26458h-0.26458"/>
			<path d="m2.1875 1.8482h0.26458v0.26458h-0.26458"/>
			<path d="m1.9229 1.8482h0.26458v0.26458h-0.26458"/>
			<path d="m1.6583 1.8482h0.26458v0.26458h-0.26458"/>
			<path d="m1.3937 1.8482h0.26458v0.26458h-0.26458"/>
			<path d="m1.1291 1.8482h0.26458v0.26458h-0.26458"/>
			<path d="m0.86456 1.8482h0.26458v0.26458h-0.26458"/>
		</g>
		<g fill-opacity="0">
			<path d="m0.59998 1.8482h0.26458v0.26458h-0.26458"/>
			<path d="m0.33539 1.8482h0.26458v0.26458h-0.26458"/>
			<path d="m0.07081 1.8482h0.26458v0.26458h-0.26458"/>
			<path d="m6.4208 1.5836h0.26458v0.26458h-0.26458"/>
			<path d="m6.1562 1.5836h0.26458v0.26458h-0.26458"/>
			<path d="m5.8916 1.5836h0.26458v0.26458h-0.26458"/>
			<path d="m5.6271 1.5836h0.26458v0.26458h-0.26458"/>
			<path d="m5.3625 1.5836h0.26458v0.26458h-0.26458"/>
			<path d="m5.0979 1.5836h0.26458v0.26458h-0.26458"/>
			<path d="m4.8333 1.5836h0.26458v0.26458h-0.26458"/>
			<path d="m4.5687 1.5836h0.26458v0.26458h-0.26458"/>
		</g>
		<g>
			<path d="m4.3041 1.5836h0.26458v0.26458h-0.26458"/>
			<path d="m4.0396 1.5836h0.26458v0.26458h-0.26458"/>
			<path d="m3.775 1.5836h0.26458v0.26458h-0.26458"/>
			<path d="m3.5104 1.5836h0.26458v0.26458h-0.26458"/>
			<path d="m3.2458 1.5836h0.26458v0.26458h-0.26458"/>
			<path d="m2.9812 1.5836h0.26458v0.26458h-0.26458"/>
			<path d="m2.7166 1.5836h0.26458v0.26458h-0.26458"/>
			<path d="m2.4521 1.5836h0.26458v0.26458h-0.26458"/>
			<path d="m2.1875 1.5836h0.26458v0.26458h-0.26458"/>
			<path d="m1.9229 1.5836h0.26458v0.26458h-0.26458"/>
			<path d="m1.6583 1.5836h0.26458v0.26458h-0.26458"/>
			<path d="m1.3937 1.5836h0.26458v0.26458h-0.26458"/>
			<path d="m1.1291 1.5836h0.26458v0.26458h-0.26458"/>
			<path d="m0.86456 1.5836h0.26458v0.26458h-0.26458"/>
			<path d="m0.59998 1.5836h0.26458v0.26458h-0.26458"/>
			<path d="m0.33539 1.5836h0.26458v0.26458h-0.26458"/>
		</g>
		<g fill-opacity="0">
			<path d="m0.07081 1.5836h0.26458v0.26458h-0.26458"/>
			<path d="m6.4208 1.319h0.26458v0.26458h-0.26458"/>
			<path d="m6.1562 1.319h0.26458v0.26458h-0.26458"/>
			<path d="m5.8916 1.319h0.26458v0.26458h-0.26458"/>
			<path d="m5.6271 1.319h0.26458v0.26458h-0.26458"/>
			<path d="m5.3625 1.319h0.26458v0.26458h-0.26458"/>
			<path d="m5.0979 1.319h0.26458v0.26458h-0.26458"/>
			<path d="m4.8333 1.319h0.26458v0.26458h-0.26458"/>
			<path d="m4.5687 1.319h0.26458v0.26458h-0.26458"/>
		</g>
		<g>
			<path d="m4.3041 1.319h0.26458v0.26458h-0.26458"/>
			<path d="m4.0396 1.319h0.26458v0.26458h-0.26458"/>
			<path d="m3.775 1.319h0.26458v0.26458h-0.26458"/>
			<path d="m3.5104 1.319h0.26458v0.26458h-0.26458"/>
			<path d="m3.2458 1.319h0.26458v0.26458h-0.26458"/>
			<path d="m2.9812 1.319h0.26458v0.26458h-0.26458"/>
			<path d="m2.7166 1.319h0.26458v0.26458h-0.26458"/>
			<path d="m2.4521 1.319h0.26458v0.26458h-0.26458"/>
			<path d="m2.1875 1.319h0.26458v0.26458h-0.26458"/>
			<path d="m1.9229 1.319h0.26458v0.26458h-0.26458"/>
			<path d="m1.6583 1.319h0.26458v0.26458h-0.26458"/>
		</g>
		<path d="m1.3937 1.319h0.26458v0.26458h-0.26458" fill-opacity="0"/>
		<g>
			<path d="m1.1291 1.319h0.26458v0.26458h-0.26458"/>
			<path d="m0.86456 1.319h0.26458v0.26458h-0.26458"/>
			<path d="m0.59998 1.319h0.26458v0.26458h-0.26458"/>
			<path d="m0.33539 1.319h0.26458v0.26458h-0.26458"/>
			<path d="m0.07081 1.319h0.26458v0.26458h-0.26458"/>
		</g>
		<g fill-opacity="0">
			<path d="m6.4208 1.0544h0.26458v0.26458h-0.26458"/>
			<path d="m6.1562 1.0544h0.26458v0.26458h-0.26458"/>
			<path d="m5.8916 1.0544h0.26458v0.26458h-0.26458"/>
			<path d="m5.6271 1.0544h0.26458v0.26458h-0.26458"/>
			<path d="m5.3625 1.0544h0.26458v0.26458h-0.26458"/>
			<path d="m5.0979 1.0544h0.26458v0.26458h-0.26458"/>
			<path d="m4.8333 1.0544h0.26458v0.26458h-0.26458"/>
		</g>
		<g>
			<path d="m4.5687 1.0544h0.26458v0.26458h-0.26458"/>
			<path d="m4.3041 1.0544h0.26458v0.26458h-0.26458"/>
			<path d="m4.0396 1.0544h0.26458v0.26458h-0.26458"/>
			<path d="m3.775 1.0544h0.26458v0.26458h-0.26458"/>
		</g>
		<path d="m3.5104 1.0544h0.26458v0.26458h-0.26458" fill-opacity="0"/>
		<path d="m3.2458 1.0544h0.26458v0.26458h-0.26458" fill-opacity="0"/>
		<g>
			<path d="m2.9812 1.0544h0.26458v0.26458h-0.26458"/>
			<path d="m2.7166 1.0544h0.26458v0.26458h-0.26458"/>
			<path d="m2.4521 1.0544h0.26458v0.26458h-0.26458"/>
			<path d="m2.1875 1.0544h0.26458v0.26458h-0.26458"/>
		</g>
		<g fill-opacity="0">
			<path d="m1.9229 1.0544h0.26458v0.26458h-0.26458"/>
			<path d="m1.6583 1.0544h0.26458v0.26458h-0.26458"/>
			<path d="m1.3937 1.0544h0.26458v0.26458h-0.26458"/>
			<path d="m1.1291 1.0544h0.26458v0.26458h-0.26458"/>
		</g>
		<g>
			<path d="m0.86456 1.0544h0.26458v0.26458h-0.26458"/>
			<path d="m0.59998 1.0544h0.26458v0.26458h-0.26458"/>
			<path d="m0.33539 1.0544h0.26458v0.26458h-0.26458"/>
		</g>
		<g fill-opacity="0">
			<path d="m0.07081 1.0544h0.26458v0.26458h-0.26458"/>
			<path d="m6.4208 0.78985h0.26458v0.26458h-0.26458"/>
			<path d="m6.1562 0.78985h0.26458v0.26458h-0.26458"/>
			<path d="m5.8916 0.78985h0.26458v0.26458h-0.26458"/>
			<path d="m5.6271 0.78985h0.26458v0.26458h-0.26458"/>
			<path d="m5.3625 0.78985h0.26458v0.26458h-0.26458"/>
			<path d="m5.0979 0.78985h0.26458v0.26458h-0.26458"/>
			<path d="m4.8333 0.78985h0.26458v0.26458h-0.26458"/>
		</g>
		<g>
			<path d="m4.5687 0.78985h0.26458v0.26458h-0.26458"/>
			<path d="m4.3041 0.78985h0.26458v0.26458h-0.26458"/>
			<path d="m4.0396 0.78985h0.26458v0.26458h-0.26458"/>
		</g>
		<g fill-opacity="0">
			<path d="m3.775 0.78985h0.26458v0.26458h-0.26458"/>
			<path d="m3.5104 0.78985h0.26458v0.26458h-0.26458"/>
			<path d="m3.2458 0.78985h0.26458v0.26458h-0.26458"/>
			<path d="m2.9812 0.78985h0.26458v0.26458h-0.26458"/>
			<path d="m2.7166 0.78985h0.26458v0.26458h-0.26458"/>
			<path d="m2.4521 0.78985h0.26458v0.26458h-0.26458"/>
			<path d="m2.1875 0.78985h0.26458v0.26458h-0.26458"/>
			<path d="m1.9229 0.78985h0.26458v0.26458h-0.26458"/>
			<path d="m1.6583 0.78985h0.26458v0.26458h-0.26458"/>
			<path d="m1.3937 0.78985h0.26458v0.26458h-0.26458"/>
			<path d="m1.1291 0.78985h0.26458v0.26458h-0.26458"/>
			<path d="m0.86456 0.78985h0.26458v0.26458h-0.26458"/>
		</g>
		<path d="m0.59998 0.78985h0.26458v0.26458h-0.26458"/>
		<g fill-opacity="0">
			<path d="m0.33539 0.78985h0.26458v0.26458h-0.26458"/>
			<path d="m0.07081 0.78985h0.26458v0.26458h-0.26458"/>
			<path d="m6.4208 0.52527h0.26458v0.26458h-0.26458"/>
			<path d="m6.1562 0.52527h0.26458v0.26458h-0.26458"/>
			<path d="m5.8916 0.52527h0.26458v0.26458h-0.26458"/>
			<path d="m5.6271 0.52527h0.26458v0.26458h-0.26458"/>
			<path d="m5.3625 0.52527h0.26458v0.26458h-0.26458"/>
			<path d="m5.0979 0.52527h0.26458v0.26458h-0.26458"/>
			<path d="m4.8333 0.52527h0.26458v0.26458h-0.26458"/>
			<path d="m4.5687 0.52527h0.26458v0.26458h-0.26458"/>
		</g>
		<path d="m4.3041 0.52527h0.26458v0.26458h-0.26458"/>
		<g fill-opacity="0">
			<path d="m4.0396 0.52527h0.26458v0.26458h-0.26458"/>
			<path d="m3.775 0.52527h0.26458v0.26458h-0.26458"/>
			<path d="m3.5104 0.52527h0.26458v0.26458h-0.26458"/>
			<path d="m3.2458 0.52527h0.26458v0.26458h-0.26458"/>
			<path d="m2.9812 0.52527h0.26458v0.26458h-0.26458"/>
			<path d="m2.7166 0.52527h0.26458v0.26458h-0.26458"/>
			<path d="m2.4521 0.52527h0.26458v0.26458h-0.26458"/>
			<path d="m2.1875 0.52527h0.26458v0.26458h-0.26458"/>
			<path d="m1.9229 0.52527h0.26458v0.26458h-0.26458"/>
			<path d="m1.6583 0.52527h0.26458v0.26458h-0.26458"/>
			<path d="m1.3937 0.52527h0.26458v0.26458h-0.26458"/>
			<path d="m1.1291 0.52527h0.26458v0.26458h-0.26458"/>
			<path d="m0.86456 0.52527h0.26458v0.26458h-0.26458"/>
			<path d="m0.59998 0.52527h0.26458v0.26458h-0.26458"/>
			<path d="m0.33539 0.52527h0.26458v0.26458h-0.26458"/>
			<path d="m0.07081 0.52527h0.26458v0.26458h-0.26458"/>
		</g>
	</g>
	<g fill="none" stroke="#000" stroke-width=".52917">
		<path d="m5.0271 2.1167h-2.9104"/>
		<path d="m5.0271 3.7042h-1.8521"/>
		<path d="m5.0271 5.2917h-2.9104"/>
	</g>
	<g fill="#f00" stroke-width=".26458" aria-label="Turbo">
		<path d="m1.8193 6.4442h2.0571v0.43505h-0.74003v1.797h-0.57558v-1.797h-0.74153z"/>
		<path d="m3.7957 8.0244v-1.0226h0.53821v0.16744q0 0.13605-0.0015 0.34236-0.0015 0.20482-0.0015 0.27359 0 0.20183 0.010465 0.29153 0.010465 0.088206 0.03588 0.12857 0.03289 0.052325 0.085216 0.080731 0.05382 0.028405 0.12259 0.028405 0.16744 0 0.26312-0.12857 0.095681-0.12857 0.095681-0.35731v-0.82674h0.53523v1.6744h-0.53522v-0.24219q-0.1211 0.14651-0.25714 0.21678-0.13455 0.068771-0.29751 0.068771-0.29003 0-0.44252-0.17791-0.151-0.17791-0.151-0.51728z"/>
		<path d="m7.2373 7.4578q-0.070266-0.03289-0.14053-0.047841-0.068771-0.016445-0.13904-0.016445-0.20631 0-0.31844 0.13306-0.11063 0.13156-0.11063 0.37824v0.77143h-0.53522v-1.6744h0.53522v0.27508q0.10316-0.16445 0.23621-0.2392 0.13455-0.076246 0.32143-0.076246 0.02691 0 0.058306 0.00299 0.031395 0.0015 0.091196 0.00897z"/>
		<path d="m8.3944 8.3309q0.17193 0 0.26163-0.12558 0.091196-0.12558 0.091196-0.36478 0-0.2392-0.091196-0.36478-0.089701-0.12558-0.26163-0.12558-0.17193 0-0.26462 0.12708-0.091196 0.12558-0.091196 0.36329 0 0.23771 0.091196 0.36478 0.092691 0.12558 0.26462 0.12558zm-0.35581-1.0839q0.11063-0.14651 0.24518-0.21528 0.13455-0.070266 0.30947-0.070266 0.30947 0 0.5083 0.24668 0.19884 0.24518 0.19884 0.63239 0 0.38721-0.19884 0.63389-0.19884 0.24518-0.5083 0.24518-0.17492 0-0.30947-0.068771-0.13455-0.070265-0.24518-0.21678v0.24219h-0.53522v-2.3262h0.53522z"/>
		<path d="m10.492 7.3442q-0.17791 0-0.27209 0.12857-0.09269 0.12708-0.09269 0.36777 0 0.2407 0.09269 0.36927 0.09419 0.12708 0.27209 0.12708 0.17492 0 0.26761-0.12708 0.09269-0.12857 0.09269-0.36927 0-0.2407-0.09269-0.36777-0.09269-0.12857-0.26761-0.12857zm0-0.38272q0.43206 0 0.67425 0.23322 0.24369 0.23322 0.24369 0.64585 0 0.41262-0.24369 0.64585-0.24219 0.23322-0.67425 0.23322-0.43355 0-0.67874-0.23322-0.24369-0.23322-0.24369-0.64585 0-0.41262 0.24369-0.64585 0.24518-0.23322 0.67874-0.23322z"/>
	</g>
</svg>
