<?xml version="1.0" encoding="UTF-8"?>
<svg width="50" height="35" version="1.0" xmlns="http://www.w3.org/2000/svg" xmlns:cc="http://creativecommons.org/ns#" xmlns:dc="http://purl.org/dc/elements/1.1/" xmlns:rdf="http://www.w3.org/1999/02/22-rdf-syntax-ns#">
	<metadata>
		<rdf:RDF>
			<cc:Work rdf:about="">
				<dc:format>image/svg+xml</dc:format>
				<dc:type rdf:resource="http://purl.org/dc/dcmitype/StillImage"/>
				<dc:title/>
			</cc:Work>
		</rdf:RDF>
	</metadata>
	<defs>
		<linearGradient id="b" x1="150.96" x2="112.03" y1="192.35" y2="137.27" gradientTransform="matrix(.15016 0 0 .15161 6.1623 -.62371)" gradientUnits="userSpaceOnUse">
			<stop stop-color="#ffd43b" offset="0"/>
			<stop stop-color="#ffe873" offset="1"/>
		</linearGradient>
		<linearGradient id="a" x1="26.649" x2="135.67" y1="20.604" y2="114.4" gradientTransform="matrix(.15016 0 0 .15161 6.1623 -.62371)" gradientUnits="userSpaceOnUse">
			<stop stop-color="#5a9fd4" offset="0"/>
			<stop stop-color="#306998" offset="1"/>
		</linearGradient>
	</defs>
	<path d="m24.823 2.5002c-1.2235 0.0057-2.3919 0.11003-3.42 0.29196-3.0286 0.53506-3.5785 1.655-3.5785 3.7203v2.7277h7.1571v0.90923h-9.843c-2.08 0-3.9014 1.2502-4.4711 3.6286-0.65713 2.7261-0.68628 4.4273 0 7.2738 0.50875 2.1189 1.7237 3.6286 3.8038 3.6286h2.4608v-3.2699c0-2.3623 2.0439-4.4461 4.4711-4.4461h7.1487c1.99 0 3.5785-1.6385 3.5785-3.6369v-6.8151c0-1.9396-1.6363-3.3966-3.5785-3.7203-1.2295-0.20466-2.5052-0.29764-3.7287-0.29196zm-3.8705 2.1938c0.73928 0 1.343 0.61358 1.343 1.368 0 0.75176-0.60372 1.3597-1.343 1.3597-0.74192 0-1.343-0.60791-1.343-1.3597-1e-6 -0.75444 0.60107-1.368 1.343-1.368z" fill="url(#a)"/>
	<path d="m33.023 10.149v3.1781c0 2.464-2.089 4.5378-4.4711 4.5378h-7.1487c-1.9582 0-3.5785 1.6759-3.5785 3.6369v6.8151c0 1.9396 1.6866 3.0805 3.5785 3.6369 2.2655 0.66615 4.438 0.78654 7.1487 0 1.8018-0.52169 3.5785-1.5716 3.5785-3.6369v-2.7277h-7.1487v-0.90923h10.727c2.08 0 2.8552-1.4509 3.5785-3.6286 0.74723-2.2419 0.71543-4.3979 0-7.2738-0.51405-2.0707-1.4958-3.6286-3.5785-3.6286zm-4.0206 17.259c0.74193 1e-6 1.343 0.60791 1.343 1.3597 0 0.75444-0.60106 1.368-1.343 1.368-0.73928 0-1.343-0.61358-1.343-1.368 0-0.75176 0.60372-1.3597 1.343-1.3597z" fill="url(#b)"/>
	<path d="m20.648 7.3743c-0.19272-0.048841-0.42985-0.17403-0.58004-0.30624-0.47927-0.42187-0.58068-1.1951-0.2282-1.7401 0.25192-0.38944 0.65698-0.6146 1.1044-0.61389 0.37151 5.826e-4 0.6777 0.126 0.93645 0.38355 0.51572 0.51336 0.53571 1.34 0.04522 1.8698-0.16894 0.18247-0.33733 0.29565-0.54941 0.36926-0.20519 0.071219-0.5297 0.087973-0.72844 0.037608z" fill="#fff" style="paint-order:stroke fill markers"/>
	<path d="m28.654 30.076c-0.43727-0.11759-0.8424-0.53844-0.94432-0.98097-0.03493-0.15168-0.03493-0.50374 0-0.65542 0.15044-0.6532 0.83724-1.1119 1.499-1.0013 1.0805 0.18068 1.5014 1.5318 0.71622 2.299-0.18431 0.1801-0.35875 0.28236-0.57987 0.33996-0.19094 0.04973-0.5035 0.04915-0.69109-0.0013z" fill="#fff" style="paint-order:stroke fill markers"/>
</svg>
