<?xml version="1.0" encoding="UTF-8"?>
<svg width="50" height="35" version="1.1" viewBox="0 0 13.229 9.2604" xmlns="http://www.w3.org/2000/svg" xmlns:cc="http://creativecommons.org/ns#" xmlns:dc="http://purl.org/dc/elements/1.1/" xmlns:rdf="http://www.w3.org/1999/02/22-rdf-syntax-ns#">
	<defs>
		<radialGradient id="a" cx="6.8924" cy="292.09" r="1.5335" gradientTransform="matrix(1 4.0227e-8 0 2.0968 .0058053 -320.51)" gradientUnits="userSpaceOnUse">
			<stop stop-color="#f00" offset="0"/>
			<stop stop-color="#ff735f" offset="1"/>
		</radialGradient>
	</defs>
	<metadata>
		<rdf:RDF>
			<cc:Work rdf:about="">
				<dc:format>image/svg+xml</dc:format>
				<dc:type rdf:resource="http://purl.org/dc/dcmitype/StillImage"/>
				<dc:title/>
			</cc:Work>
		</rdf:RDF>
	</metadata>
	<g transform="translate(0 -287.74)" stroke-width=".26458">
		<g aria-label="return">
			<path d="m2.3952 294.96q-0.048059-0.0279-0.10542-0.0403-0.055811-0.0139-0.12402-0.0139-0.24185 0-0.37207 0.15812-0.12867 0.15658-0.12867 0.45114v0.91467h-0.2868v-1.7363h0.2868v0.26976q0.089917-0.15813 0.23409-0.2341 0.14418-0.0775 0.35037-0.0775 0.029456 0 0.065112 5e-3 0.035657 3e-3 0.079065 0.0108z"/>
			<path d="m4.3744 295.49v0.13952h-1.3115q0.018604 0.29456 0.17673 0.44959 0.15968 0.15348 0.44338 0.15348 0.16433 0 0.31781-0.0403 0.15503-0.0403 0.30696-0.12092v0.26975q-0.15348 0.0651-0.31471 0.0992t-0.32711 0.0341q-0.41548 0-0.65887-0.24184-0.24185-0.24185-0.24185-0.65423 0-0.42633 0.22944-0.67593 0.23099-0.25114 0.62167-0.25114 0.35037 0 0.55345 0.22634 0.20464 0.22479 0.20464 0.61237zm-0.28525-0.08372q-0.0031-0.23409-0.13177-0.37362-0.12712-0.13953-0.33796-0.13953-0.23875 0-0.38292 0.13488-0.14263 0.13487-0.16433 0.37982z"/>
			<path d="m5.3893 294.2v0.49299h0.58756v0.2217h-0.58756v0.94257q0 0.2124 0.057361 0.27286 0.058911 0.0605 0.23719 0.0605h0.29301v0.23874h-0.29301q-0.33021 0-0.45579-0.12247-0.12557-0.12402-0.12557-0.44959v-0.94257h-0.20929v-0.2217h0.20929v-0.49299z"/>
			<path d="m6.5872 295.74v-1.0511h0.28525v1.0402q0 0.2465 0.096118 0.37052 0.096118 0.12247 0.28835 0.12247 0.23099 0 0.36432-0.14727 0.13488-0.14728 0.13488-0.40153v-0.98444h0.28525v1.7363h-0.28525v-0.26665q-0.10387 0.15813-0.24185 0.23565-0.13643 0.076-0.31781 0.076-0.29921 0-0.45424-0.18603-0.15503-0.18604-0.15503-0.54416z"/>
			<path d="m9.8997 294.96q-0.048059-0.0279-0.10542-0.0403-0.05581-0.0139-0.12402-0.0139-0.24185 0-0.37207 0.15812-0.12867 0.15658-0.12867 0.45114v0.91467h-0.2868v-1.7363h0.2868v0.26976q0.089917-0.15813 0.23409-0.2341 0.14418-0.0775 0.35037-0.0775 0.029456 0 0.065112 5e-3 0.035657 3e-3 0.079065 0.0108z"/>
			<path d="m11.851 295.38v1.048h-0.28525v-1.0387q0-0.2465-0.09612-0.36897-0.09612-0.12248-0.28835-0.12248-0.23099 0-0.36432 0.14728-0.13333 0.14728-0.13333 0.40153v0.98133h-0.2868v-1.7363h0.2868v0.26976q0.10232-0.15658 0.2403-0.2341 0.13953-0.0775 0.32091-0.0775 0.29921 0 0.45268 0.18603 0.15348 0.18449 0.15348 0.54415z"/>
		</g>
		<path d="m4.7682 290.86 1.8489-2.3797 1.8445 2.3797h-0.93717v2.8304h-1.819v-2.8304z" fill="url(#a)" stroke="#000" style="paint-order:stroke fill markers"/>
	</g>
</svg>
