<?xml version="1.0" encoding="UTF-8"?>
<svg width="50" height="35" version="1.1" viewBox="0 0 13.229 9.2604" xmlns="http://www.w3.org/2000/svg" xmlns:cc="http://creativecommons.org/ns#" xmlns:dc="http://purl.org/dc/elements/1.1/" xmlns:rdf="http://www.w3.org/1999/02/22-rdf-syntax-ns#">
 <metadata>
  <rdf:RDF>
   <cc:Work rdf:about="">
    <dc:format>image/svg+xml</dc:format>
    <dc:type rdf:resource="http://purl.org/dc/dcmitype/StillImage"/>
    <dc:title/>
   </cc:Work>
  </rdf:RDF>
 </metadata>
 <g transform="matrix(.97198 0 0 .98405 .28756 -4.5294e-6)" fill="#000080" stroke-width=".27053" aria-label="raise">
  <path d="m2.3555 4.5917q-0.10365-0.048516-0.2073-0.070569-0.10144-0.024258-0.20509-0.024258-0.30433 0-0.46972 0.19627-0.16319 0.19406-0.16319 0.55793v1.1379h-0.78949v-2.4699h0.78949v0.40577q0.15216-0.24258 0.34843-0.35284 0.19847-0.11247 0.47413-0.11247 0.039695 0 0.086006 0.00441 0.046311 0.00221 0.13452 0.013232z"/>
  <path d="m3.8551 5.2775q-0.24699 0-0.37269 0.0838-0.1235 0.0838-0.1235 0.24699 0 0.14996 0.099237 0.23596 0.10144 0.0838 0.28007 0.0838 0.22273 0 0.3749-0.15878 0.15216-0.16098 0.15216-0.40136v-0.090416zm1.2063-0.29771v1.4092h-0.7961v-0.36608q-0.15878 0.22494-0.35725 0.32859-0.19847 0.10144-0.48295 0.10144-0.38372 0-0.62409-0.22273-0.23817-0.22494-0.23817-0.58219 0-0.43444 0.29771-0.63732 0.29992-0.20289 0.93945-0.20289h0.46531v-0.061748q0-0.18745-0.14775-0.27345-0.14775-0.088211-0.4609-0.088211-0.25361 0-0.47193 0.050721-0.21832 0.050722-0.40577 0.15216v-0.60204q0.25361-0.061748 0.50942-0.092621 0.25581-0.033079 0.51162-0.033079 0.6682 0 0.9637 0.26463 0.29771 0.26243 0.29771 0.85565z"/>
  <path d="m5.7957 3.9191h0.78949v2.4699h-0.78949zm0-0.9615h0.78949v0.64394h-0.78949z"/>
  <path d="m9.2735 3.9962v0.59983q-0.25361-0.10585-0.48957-0.15878-0.23596-0.052927-0.44547-0.052927-0.22494 0-0.3352 0.057337-0.10806 0.055132-0.10806 0.17201 0 0.094827 0.081595 0.14555 0.0838 0.050721 0.29771 0.074979l0.13893 0.019848q0.60645 0.077184 0.81595 0.25361 0.2095 0.17642 0.2095 0.55352 0 0.39474-0.2911 0.59322t-0.86888 0.19847q-0.24479 0-0.50721-0.039695-0.26022-0.03749-0.53588-0.11467v-0.59983q0.23596 0.11467 0.48295 0.17201 0.2492 0.057337 0.50501 0.057337 0.23155 0 0.34843-0.063953t0.11688-0.18965q0-0.10585-0.081595-0.15657-0.07939-0.052927-0.31976-0.081595l-0.13893-0.017642q-0.52706-0.066158-0.73877-0.24479t-0.21171-0.5425q0-0.39254 0.26904-0.58219t0.82477-0.18965q0.21832 0 0.4587 0.033079t0.52265 0.10365z"/>
  <path d="m12.498 5.1474v0.22494h-1.8458q0.02867 0.27786 0.20068 0.4168 0.17201 0.13893 0.48075 0.13893 0.2492 0 0.50942-0.072774 0.26243-0.074979 0.53809-0.22494v0.60866q-0.28007 0.10585-0.56014 0.15878-0.28007 0.055132-0.56014 0.055132-0.6704 0-1.0431-0.33961-0.37049-0.34182-0.37049-0.95709 0-0.60424 0.36387-0.95047 0.36608-0.34623 1.0056-0.34623 0.58219 0 0.93062 0.35064 0.35064 0.35064 0.35064 0.93724zm-0.81154-0.26243q0-0.22494-0.13232-0.36166-0.13011-0.13893-0.34182-0.13893-0.22935 0-0.37269 0.13011-0.14334 0.12791-0.17863 0.37049z"/>
 </g>
</svg>
