<?xml version="1.0" encoding="UTF-8"?>
<svg width="50" height="35" version="1.1" viewBox="0 0 13.229 9.2604" xmlns="http://www.w3.org/2000/svg" xmlns:cc="http://creativecommons.org/ns#" xmlns:dc="http://purl.org/dc/elements/1.1/" xmlns:rdf="http://www.w3.org/1999/02/22-rdf-syntax-ns#">
	<metadata>
		<rdf:RDF>
			<cc:Work rdf:about="">
				<dc:format>image/svg+xml</dc:format>
				<dc:type rdf:resource="http://purl.org/dc/dcmitype/StillImage"/>
				<dc:title/>
			</cc:Work>
		</rdf:RDF>
	</metadata>
	<g transform="translate(0 -287.74)" stroke="#241c1f" stroke-linejoin="round">
		<path d="m4.0294 288.34h1.6742l0.16352 0.51616h3.3328v3.4518h-5.1704z" fill="#ac939d" stroke-width=".26458"/>
		<path d="m3.8752 289.37h5.4788l-0.15417 2.9356h-5.1704z" fill="#c8b7be" stroke-width=".26458" style="paint-order:normal"/>
		<g transform="matrix(.79087 0 0 .79087 -.40068 61.926)" stroke-width=".2249">
			<path d="m1.1777 292.63h1.423l0.13899 0.43874h2.8328v2.934h-4.3949z" fill="#ac939d"/>
			<path d="m1.0467 293.5h4.657l-0.13105 2.4952h-4.3949z" fill="#c8b7be" style="paint-order:normal"/>
		</g>
		<g transform="matrix(.79087 0 0 .79087 -.24413 61.99)" stroke-width=".2249">
			<path d="m6.4749 292.54h1.423l0.13899 0.43874h2.8328v2.934h-4.3949z" fill="#ac939d"/>
			<path d="m6.3439 293.42h4.657l-0.13105 2.4952h-4.3949z" fill="#c8b7be" style="paint-order:normal"/>
		</g>
		<g transform="matrix(.79087 0 0 .79087 -.010745 61.736)" stroke-width=".2249">
			<path d="m11.675 292.87h1.423l0.13899 0.43874h2.8328v2.934h-4.3949z" fill="#ac939d"/>
			<path d="m11.544 293.74h4.657l-0.13105 2.4952h-4.3949z" fill="#c8b7be" style="paint-order:normal"/>
		</g>
	</g>
</svg>
