<?xml version="1.0" encoding="UTF-8" standalone="no"?>
<!-- Created with Inkscape (http://www.inkscape.org/) -->

<svg
   width="32"
   height="32"
   viewBox="0 0 32 32"
   version="1.1"
   id="svg1"
   inkscape:version="1.3.2 (091e20ef0f, 2023-11-25)"
   sodipodi:docname="key_down.svg"
   xmlns:inkscape="http://www.inkscape.org/namespaces/inkscape"
   xmlns:sodipodi="http://sodipodi.sourceforge.net/DTD/sodipodi-0.dtd"
   xmlns="http://www.w3.org/2000/svg"
   xmlns:svg="http://www.w3.org/2000/svg">
  <sodipodi:namedview
     id="namedview1"
     pagecolor="#ffffff"
     bordercolor="#000000"
     borderopacity="0.25"
     inkscape:showpageshadow="2"
     inkscape:pageopacity="0.0"
     inkscape:pagecheckerboard="true"
     inkscape:deskcolor="#d1d1d1"
     inkscape:document-units="px"
     inkscape:zoom="16.419387"
     inkscape:cx="22.503885"
     inkscape:cy="16.900753"
     inkscape:window-width="1920"
     inkscape:window-height="1011"
     inkscape:window-x="0"
     inkscape:window-y="0"
     inkscape:window-maximized="1"
     inkscape:current-layer="layer1" />
  <defs
     id="defs1" />
  <g
     inkscape:label="Layer 1"
     inkscape:groupmode="layer"
     id="layer1">
    <path
       id="rect1"
       style="fill:#626262;stroke:#a9a9a9;stroke-width:0.915753;stroke-linecap:round;stroke-linejoin:round"
       d="M 7.5383168,23.457877 H 24.461683 c 0.598564,0 1.08044,0.346171 1.08044,0.776169 v 5.308077 H 6.4578766 v -5.308077 c 0,-0.429998 0.4818763,-0.776169 1.0804402,-0.776169 z"
       sodipodi:nodetypes="sssccss" />
    <path
       style="fill:#ffdd55;fill-opacity:1;stroke:#ffdd55;stroke-width:0.493581;stroke-linecap:round;stroke-linejoin:round;stroke-dasharray:none;stroke-opacity:1"
       d="m 14.243404,22.775282 c -0.121174,-0.07388 -0.306487,-0.264507 -0.411807,-0.423609 l -0.191492,-0.289276 -0.03432,-4.510666 c -0.03281,-4.313074 -0.04004,-4.516991 -0.165065,-4.655078 -0.164376,-0.181557 -0.525959,-0.191574 -0.682227,-0.0189 -0.08323,0.09197 -0.113589,0.255672 -0.113589,0.612515 v 0.487 l -1.112081,0.911943 c -0.611644,0.501569 -1.220442,0.967188 -1.352883,1.03471 -0.8903164,0.45391 -1.2468132,-0.340514 -0.6854606,-1.527494 0.1143951,-0.241889 1.0541136,-1.64883 2.0882636,-3.126538 1.802956,-2.5762636 1.884352,-2.7063132 1.979521,-3.1627449 0.05459,-0.2618025 0.145902,-0.5876594 0.202922,-0.7241263 0.203054,-0.4859774 0.102589,-0.47261 3.384655,-0.4503434 3.304588,0.022419 3.128122,-0.00425 3.687948,0.5574596 0.290443,0.2914225 1.03823,1.4805215 1.461747,2.324407 0.457751,0.9121 0.515265,1.30806 0.466581,3.212235 -0.04978,1.946924 -0.110587,2.276235 -0.48027,2.60082 -0.201899,0.177271 -0.300225,0.21319 -0.583593,0.21319 -0.224094,0 -0.342566,-0.02938 -0.345988,-0.08579 -0.103858,-1.711706 -0.104221,-1.714503 -0.234427,-1.809712 -0.185924,-0.135952 -0.541475,-0.118356 -0.678996,0.0336 -0.101427,0.112076 -0.113751,0.276541 -0.09643,1.286894 0.02183,1.273653 -0.03348,1.57018 -0.337537,1.80935 -0.125477,0.0987 -0.27887,0.138342 -0.535309,0.138342 h -0.359436 l -0.04985,-0.967621 c -0.04213,-0.817633 -0.07009,-0.987854 -0.180383,-1.09815 -0.181126,-0.181126 -0.485072,-0.166015 -0.672441,0.03343 -0.150496,0.160196 -0.152946,0.188163 -0.106699,1.21826 0.07238,1.612223 -0.05326,1.915936 -0.819168,1.980205 l -0.453984,0.0381 v -0.945281 c 0,-0.85377 -0.01329,-0.958571 -0.137269,-1.082551 -0.183793,-0.183792 -0.489282,-0.175446 -0.671337,0.01834 -0.143329,0.152566 -0.146585,0.20875 -0.166392,2.871003 l -0.0202,2.71539 -0.205903,0.3304 c -0.343137,0.550612 -0.917019,0.736906 -1.387099,0.450284 z"
       id="path3" />
    <g
       id="g1"
       transform="matrix(0.14525094,0,0,-0.14525094,8.290208,23.846983)"
       style="fill:#000000;fill-opacity:1">
      <path
         d="M 29.96,67.49 C 29.8,67.4 29.64,67.3 29.49,67.18 c -1.95,-1.56 -4.08,-3.29 -5.94,-4.81 -2.69,-2.2 -5.8,-4.76 -7.97,-6.55 -1.49,-1.23 -3.17,-2.07 -4.75,-2.39 -1.02,-0.2 -1.95,-0.18 -2.67,0.12 -0.59,0.24 -1.1,0.72 -1.45,1.48 -0.45,0.99 -0.66,2.41 -0.54,4.32 0.11,1.69 0.7,3.55 1.48,5.33 1.16,2.63 2.73,5.04 3.89,6.59 0.07,0.09 0.13,0.19 0.19,0.29 l 23.32,33.31 c 0.3,0.43 0.47,0.91 0.53,1.4 h 0.01 c 0.46,3.85 1.28,6.73 2.49,8.54 0.88,1.31 2.01,1.98 3.42,1.94 h 0.07 v -0.01 h 36.38 c 0.09,0 0.17,0 0.26,0.01 2.28,-0.03 4.36,-0.71 6.25,-2.02 2.09,-1.44 3.99,-3.68 5.72,-6.7 0.03,-0.05 0.06,-0.11 0.1,-0.16 0.67,-1.15 1.55,-2.6 2.41,-4.02 3.72,-6.13 6.96,-11.45 7.35,-19.04 L 99.8,74.34 c -0.02,-0.15 -0.03,-0.3 -0.03,-0.45 0,-0.14 0.02,-1.13 0.03,-2.46 0.09,-6.92 0.19,-15.48 -6.14,-16.56 h -4.05 -0.04 c -0.02,1.95 -0.15,3.93 -0.27,5.86 -0.11,1.71 -0.21,3.37 -0.21,4.95 0,1.7 -1.38,3.08 -3.08,3.08 -1.7,0 -3.08,-1.38 -3.08,-3.08 0,-1.58 0.12,-3.42 0.24,-5.33 0.41,-6.51 0.89,-13.99 -4.33,-14.93 H 74.8 c -0.23,0 -0.45,-0.02 -0.66,-0.07 0.04,2.36 -0.12,4.81 -0.27,7.16 -0.11,1.71 -0.21,3.37 -0.21,4.95 0,1.7 -1.38,3.08 -3.08,3.08 -1.7,0 -3.08,-1.38 -3.08,-3.08 0,-1.58 0.12,-3.42 0.24,-5.33 0.41,-6.51 0.89,-13.99 -4.33,-14.93 h -4.05 c -0.28,0 -0.55,-0.04 -0.8,-0.11 V 49 c 0,1.7 -1.38,3.08 -3.08,3.08 -1.7,0 -3.08,-1.38 -3.08,-3.08 V 17.05 C 52.4,11.7 50.22,8.32 47.43,6.91 46.41,6.39 45.31,6.13 44.22,6.13 c -1.08,0 -2.18,0.26 -3.19,0.77 -2.76,1.4 -4.92,4.79 -4.92,10.28 v 56 c 0,1.7 -1.38,3.08 -3.08,3.08 -1.7,0 -3.08,-1.38 -3.08,-3.08 V 67.49 Z M 58.57,31.15 c 0.26,-0.07 0.53,-0.11 0.8,-0.11 h 4.24 c 0.24,0 0.47,0.03 0.69,0.08 5.65,0.88 8.17,4.18 9.2,8.43 0.39,-0.18 0.83,-0.29 1.3,-0.29 h 4.24 c 0.24,0 0.47,0.03 0.69,0.08 6.08,0.94 8.53,4.69 9.41,9.41 0.15,-0.02 0.31,-0.04 0.47,-0.04 h 4.24 c 0.24,0 0.47,0.03 0.69,0.08 11.64,1.8 11.5,13.37 11.38,22.71 0,0.33 -0.01,0.68 -0.01,2.35 v 0.07 l 0.24,10.77 c 0.01,0.11 0.01,0.23 0,0.34 -0.45,9.16 -4.07,15.12 -8.24,21.98 -0.7,1.14 -1.41,2.32 -2.34,3.93 -0.02,0.04 -0.04,0.08 -0.07,0.13 -2.18,3.8 -4.7,6.71 -7.57,8.69 -2.92,2.02 -6.16,3.06 -9.71,3.1 -0.09,0.01 -0.19,0.01 -0.28,0.01 H 41.58 v -0.01 c -3.66,0.07 -6.5,-1.53 -8.59,-4.66 -1.68,-2.51 -2.79,-6.03 -3.4,-10.47 L 6.73,75.07 C 6.7,75.03 6.66,74.99 6.63,74.95 5.27,73.13 3.42,70.3 2.04,67.16 1,64.8 0.21,62.24 0.05,59.74 c -0.2,-2.97 0.22,-5.36 1.06,-7.23 1.05,-2.32 2.72,-3.83 4.74,-4.66 1.89,-0.77 4.01,-0.88 6.16,-0.45 2.57,0.51 5.22,1.81 7.49,3.68 1.86,1.54 4.95,4.07 7.95,6.52 l 2.52,2.06 V 17.18 C 29.97,9.04 33.6,3.79 38.25,1.42 40.12,0.47 42.17,0 44.23,0 c 2.05,0 4.1,0.48 5.98,1.43 4.69,2.37 8.36,7.62 8.36,15.62 z"
         id="path1"
         style="fill:#000000;fill-opacity:1" />
    </g>
  </g>
</svg>
