<?xml version="1.0" encoding="UTF-8" standalone="no"?>
<!-- Created with Inkscape (http://www.inkscape.org/) -->

<svg
   width="32"
   height="32"
   viewBox="0 0 32 32"
   version="1.1"
   id="svg1"
   xml:space="preserve"
   inkscape:version="1.3 (0e150ed6c4, 2023-07-21)"
   sodipodi:docname="new_turtle.svg"
   xmlns:inkscape="http://www.inkscape.org/namespaces/inkscape"
   xmlns:sodipodi="http://sodipodi.sourceforge.net/DTD/sodipodi-0.dtd"
   xmlns="http://www.w3.org/2000/svg"
   xmlns:svg="http://www.w3.org/2000/svg"><sodipodi:namedview
     id="namedview1"
     pagecolor="#ffffff"
     bordercolor="#000000"
     borderopacity="0.25"
     inkscape:showpageshadow="2"
     inkscape:pageopacity="0.0"
     inkscape:pagecheckerboard="true"
     inkscape:deskcolor="#d1d1d1"
     inkscape:document-units="px"
     inkscape:zoom="24.815029"
     inkscape:cx="12.613324"
     inkscape:cy="15.414046"
     inkscape:window-width="2560"
     inkscape:window-height="1371"
     inkscape:window-x="0"
     inkscape:window-y="0"
     inkscape:window-maximized="1"
     inkscape:current-layer="layer1" /><defs
     id="defs1" /><g
     inkscape:label="Layer 1"
     inkscape:groupmode="layer"
     id="layer1"><g
       stroke="#111111"
       stroke-linejoin="round"
       id="g14"
       transform="matrix(1.8054606,0,0,1.8054606,4.4384105,-513.39654)"><path
         transform="matrix(4.0603,0.070872,-0.069785,3.998,20.46,-851.19)"
         d="m 1.6832,286.97 -0.42391,0.008 -0.21852,-0.36332 0.20539,-0.37092 0.42391,-0.008 0.21852,0.36333 z"
         fill="#46a926"
         stroke-width="0.09849"
         style="paint-order:normal"
         id="path1" /><path
         transform="matrix(4.0603,0.070872,-0.069785,3.998,23.041,-852.66)"
         d="m 1.6832,286.97 -0.42391,0.008 -0.21852,-0.36332 0.20539,-0.37092 0.42391,-0.008 0.21852,0.36333 z"
         fill="#46a926"
         stroke-width="0.09849"
         style="paint-order:normal"
         id="path2" /><path
         transform="matrix(4.0603,0.070872,-0.069785,3.998,17.876,-852.66)"
         d="m 1.6832,286.97 -0.42391,0.008 -0.21852,-0.36332 0.20539,-0.37092 0.42391,-0.008 0.21852,0.36333 z"
         fill="#46a926"
         stroke-width="0.09849"
         style="paint-order:normal"
         id="path3" /><path
         transform="matrix(4.0603,0.070872,-0.069785,3.998,20.458,-854.13)"
         d="m 1.6832,286.97 -0.42391,0.008 -0.21852,-0.36332 0.20539,-0.37092 0.42391,-0.008 0.21852,0.36333 z"
         fill="#46a926"
         stroke-width="0.09849"
         style="paint-order:normal"
         id="path4" /><path
         transform="matrix(4.0603,0.070872,-0.069785,3.998,23.039,-855.59)"
         d="m 1.6832,286.97 -0.42391,0.008 -0.21852,-0.36332 0.20539,-0.37092 0.42391,-0.008 0.21852,0.36333 z"
         fill="#46a926"
         stroke-width="0.09849"
         style="paint-order:normal"
         id="path5" /><path
         transform="matrix(4.0603,0.070872,-0.069785,3.998,17.874,-855.59)"
         d="m 1.6832,286.97 -0.42391,0.008 -0.21852,-0.36332 0.20539,-0.37092 0.42391,-0.008 0.21852,0.36333 z"
         fill="#46a926"
         stroke-width="0.09849"
         style="paint-order:normal"
         id="path6" /><path
         transform="matrix(4.0603,0.070872,-0.069785,3.998,20.456,-857.06)"
         d="m 1.6832,286.97 -0.42391,0.008 -0.21852,-0.36332 0.20539,-0.37092 0.42391,-0.008 0.21852,0.36333 z"
         fill="#46a926"
         stroke-width="0.09849"
         style="paint-order:normal"
         id="path7" /><path
         transform="matrix(2.9247,0.051051,-0.050268,2.8799,14.183,-537.64)"
         d="m 1.6832,286.97 -0.42391,0.008 -0.21852,-0.36332 0.20539,-0.37092 0.42391,-0.008 0.21852,0.36333 z"
         fill="#d8d04f"
         stroke-width="0.091152"
         style="paint-order:normal"
         id="path8" /><path
         transform="matrix(4.0603,0.070872,-0.069785,3.998,20.454,-860)"
         d="m 1.6832,286.97 -0.42391,0.008 -0.21852,-0.36332 0.20539,-0.37092 0.42391,-0.008 0.21852,0.36333 z"
         fill="#d8d04f"
         stroke-width="0.06566"
         style="paint-order:normal"
         id="path9" /><path
         transform="matrix(2.9247,0.051051,-0.050268,2.8799,14.188,-529.65)"
         d="m 1.6832,286.97 -0.42391,0.008 -0.21852,-0.36332 0.20539,-0.37092 0.42391,-0.008 0.21852,0.36333 z"
         fill="#d8d04f"
         stroke-width="0.091152"
         style="paint-order:normal"
         id="path10" /><path
         transform="matrix(2.9247,0.051051,-0.050268,2.8799,18.872,-529.65)"
         d="m 1.6832,286.97 -0.42391,0.008 -0.21852,-0.36332 0.20539,-0.37092 0.42391,-0.008 0.21852,0.36333 z"
         fill="#d8d04f"
         stroke-width="0.091152"
         style="paint-order:normal"
         id="path11" /><path
         transform="matrix(2.9247,0.051051,-0.050268,2.8799,18.866,-537.64)"
         d="m 1.6832,286.97 -0.42391,0.008 -0.21852,-0.36332 0.20539,-0.37092 0.42391,-0.008 0.21852,0.36333 z"
         fill="#d8d04f"
         stroke-width="0.091152"
         style="paint-order:normal"
         id="path12" /><path
         transform="matrix(0.99797,0.01742,-0.01742,0.99797,5.1005,0.51472)"
         d="m 5.6256,284.86 -0.23441,-0.007 -0.11118,-0.20648 0.12323,-0.19953 0.23441,0.007 0.11118,0.20648 z"
         fill="#111111"
         stroke-width="0.17789"
         style="paint-order:normal"
         id="path13" /><path
         transform="matrix(-0.99797,-0.01742,-0.01742,0.99797,5.1005,0.51472)"
         d="m -6.9056,284.83 -0.23441,-0.007 -0.11118,-0.20648 0.12323,-0.19952 0.23441,0.007 0.11118,0.20648 z"
         fill="#111111"
         stroke-width="0.17789"
         style="paint-order:normal"
         id="path14" /></g><path
       id="path15"
       style="fill:#f9f06b;stroke:#ffffff;stroke-linecap:round;stroke-linejoin:round"
       d="M 25.275581,19.802269 C 25.275581,26.262747 21.122762,31.5 16,31.5 c -5.122762,0 -9.2755814,-5.237253 -9.2755814,-11.697731 0,-3.701475 1.3632122,-7.001411 3.4910164,-9.144873 1.840294,-2.1959669 2.923532,3.252318 2.923532,3.252318 0,0 1.927599,-5.805176 2.861033,-5.805176 0.702094,0 2.77644,5.954715 2.77644,5.954715 0,0 2.231627,-4.2940252 3.383251,-3.003138 1.91157,2.142734 3.11589,5.267076 3.11589,8.746154 z"
       sodipodi:nodetypes="sssscscss" /></g></svg>
