<?xml version="1.0" encoding="UTF-8" standalone="no"?>
<!-- Created with Inkscape (http://www.inkscape.org/) -->

<svg
   width="32"
   height="32"
   viewBox="0 0 32 32"
   version="1.1"
   id="svg1"
   inkscape:version="1.3 (0e150ed6c4, 2023-07-21)"
   sodipodi:docname="return.svg"
   xmlns:inkscape="http://www.inkscape.org/namespaces/inkscape"
   xmlns:sodipodi="http://sodipodi.sourceforge.net/DTD/sodipodi-0.dtd"
   xmlns="http://www.w3.org/2000/svg"
   xmlns:svg="http://www.w3.org/2000/svg">
  <sodipodi:namedview
     id="namedview1"
     pagecolor="#ffffff"
     bordercolor="#000000"
     borderopacity="0.25"
     inkscape:showpageshadow="2"
     inkscape:pageopacity="0.0"
     inkscape:pagecheckerboard="true"
     inkscape:deskcolor="#d1d1d1"
     inkscape:document-units="px"
     inkscape:zoom="24.815029"
     inkscape:cx="31.150478"
     inkscape:cy="17.670743"
     inkscape:window-width="2560"
     inkscape:window-height="1371"
     inkscape:window-x="0"
     inkscape:window-y="0"
     inkscape:window-maximized="1"
     inkscape:current-layer="layer1" />
  <defs
     id="defs1" />
  <g
     inkscape:label="Layer 1"
     inkscape:groupmode="layer"
     id="layer1">
    <path
       id="rect1"
       style="fill:#e01b24;stroke:#ffffff;stroke-linecap:round;stroke-linejoin:round;stroke-opacity:1"
       d="M 15.988281,1.499964 8.5020001,12.001917 h 3.6757339 v 12.832031 c 0,0.554 0.446001,1 1,1 h 5.644532 c 0.553999,0 1,-0.446 1,-1 V 12.001917 H 23.498 Z"
       sodipodi:nodetypes="cccssssccc" />
    <path
       d="m 6.3181797,24.887078 q 0.237826,0 0.395098,0.03452 L 6.625052,26.01867 q -0.1419285,-0.03836 -0.3452313,-0.03836 -0.5600419,0 -0.874586,0.287693 -0.3107081,0.287692 -0.3107081,0.805539 v 2.182629 H 3.9245761 v -4.28854 h 0.8860936 l 0.1726157,0.72115 h 0.057539 q 0.199467,-0.360575 0.5370265,-0.579221 0.3413954,-0.222483 0.7403293,-0.222483 z m 2.7925377,0.832391 q -0.3720826,0 -0.5830573,0.237826 -0.2109747,0.23399 -0.2416619,0.667448 H 9.9277648 Q 9.920093,26.191285 9.7014465,25.957295 9.4828,25.719469 9.1107174,25.719469 Z m 0.1649438,3.613421 q -1.0356939,0 -1.6187512,-0.571549 -0.5830573,-0.57155 -0.5830573,-1.618752 0,-1.077888 0.5370265,-1.664782 0.5408624,-0.590729 1.4921664,-0.590729 0.9091094,0 1.4154484,0.517847 0.506339,0.517847 0.506339,1.430792 v 0.567714 H 8.2591469 q 0.019179,0.498667 0.2953645,0.778688 0.276185,0.280021 0.7748525,0.280021 0.3874262,0 0.7326571,-0.08055 0.345232,-0.08055 0.72115,-0.257005 v 0.905273 q -0.306872,0.153436 -0.655939,0.226318 -0.3490675,0.07672 -0.8515708,0.07672 z m 4.5071868,-0.932124 q 0.306872,0 0.736493,-0.134257 v 0.87075 q -0.437293,0.195631 -1.074053,0.195631 -0.70197,0 -1.024186,-0.352903 -0.31838,-0.356739 -0.31838,-1.066381 V 25.846054 H 11.54268 v -0.494831 l 0.644432,-0.391262 0.33756,-0.905274 h 0.748001 v 0.912945 h 1.200637 v 0.878422 h -1.200637 v 2.067552 q 0,0.249334 0.138092,0.368247 0.141929,0.118913 0.372083,0.118913 z m 4.641443,0.855406 -0.157272,-0.548534 h -0.06138 q -0.187959,0.2992 -0.53319,0.464144 -0.345231,0.161108 -0.78636,0.161108 -0.755673,0 -1.139264,-0.40277 -0.38359,-0.406605 -0.38359,-1.166114 v -2.796374 h 1.169951 v 2.504845 q 0,0.464144 0.164943,0.698135 0.164944,0.230154 0.525519,0.230154 0.490996,0 0.709642,-0.326052 0.218647,-0.329888 0.218647,-1.089397 v -2.017685 h 1.16995 v 4.28854 z m 4.518694,-4.369094 q 0.237826,0 0.395098,0.03452 l -0.08823,1.097068 q -0.141928,-0.03836 -0.345231,-0.03836 -0.560042,0 -0.874586,0.287693 -0.310708,0.287692 -0.310708,0.805539 v 2.182629 h -1.16995 v -4.28854 h 0.886093 l 0.172616,0.72115 h 0.05754 q 0.199467,-0.360575 0.537027,-0.579221 0.341395,-0.222483 0.740329,-0.222483 z m 5.132439,4.369094 h -1.16995 v -2.504845 q 0,-0.464144 -0.164944,-0.694298 -0.164944,-0.23399 -0.525519,-0.23399 -0.490996,0 -0.709642,0.329887 -0.218647,0.326052 -0.218647,1.085561 v 2.017685 h -1.16995 v -4.28854 h 0.893765 l 0.157272,0.548535 h 0.06521 q 0.195631,-0.310709 0.537026,-0.467981 0.345232,-0.161108 0.782525,-0.161108 0.748001,0 1.135427,0.406606 0.387426,0.40277 0.387426,1.166115 z"
       id="text1"
       style="font-weight:bold;font-size:7.85593px;font-family:'Open Sans';-inkscape-font-specification:'Open Sans Bold';fill:#3d3846;stroke-linecap:round;stroke-linejoin:round"
       aria-label="return" />
  </g>
</svg>
