<?xml version="1.0" encoding="UTF-8" standalone="no"?>
<!-- Created with Inkscape (http://www.inkscape.org/) -->

<svg
   width="32"
   height="32"
   viewBox="0 0 8.4666662 8.4666662"
   version="1.1"
   id="svg1"
   sodipodi:docname="set_rot.svg"
   inkscape:version="1.3 (0e150ed6c4, 2023-07-21)"
   xml:space="preserve"
   xmlns:inkscape="http://www.inkscape.org/namespaces/inkscape"
   xmlns:sodipodi="http://sodipodi.sourceforge.net/DTD/sodipodi-0.dtd"
   xmlns="http://www.w3.org/2000/svg"
   xmlns:svg="http://www.w3.org/2000/svg"><sodipodi:namedview
     id="namedview1"
     pagecolor="#ffffff"
     bordercolor="#000000"
     borderopacity="0.25"
     inkscape:showpageshadow="2"
     inkscape:pageopacity="0.0"
     inkscape:pagecheckerboard="true"
     inkscape:deskcolor="#d1d1d1"
     inkscape:document-units="px"
     inkscape:zoom="22.637099"
     inkscape:cx="25.400781"
     inkscape:cy="16.146062"
     inkscape:window-width="2560"
     inkscape:window-height="1371"
     inkscape:window-x="0"
     inkscape:window-y="0"
     inkscape:window-maximized="1"
     inkscape:current-layer="layer1" /><defs
     id="defs1" /><g
     inkscape:label="Vrstva 1"
     inkscape:groupmode="layer"
     id="layer1"><path
       sodipodi:type="star"
       style="fill:#46a926;fill-opacity:1;fill-rule:nonzero;stroke:#111111;stroke-width:0.09849;stroke-linecap:butt;stroke-linejoin:round;stroke-miterlimit:4;stroke-dasharray:none;stroke-opacity:1;paint-order:normal"
       id="path815-6-3"
       sodipodi:sides="6"
       sodipodi:cx="1.4646577"
       sodipodi:cy="286.60562"
       sodipodi:r1="0.4239803"
       sodipodi:r2="0.40350592"
       sodipodi:arg1="1.0293095"
       sodipodi:arg2="1.5529083"
       inkscape:flatsided="true"
       inkscape:rounded="0"
       inkscape:randomized="0"
       d="m 1.6831816,286.96895 -0.4239124,0.008 -0.218524,-0.36332 0.2053885,-0.37092 0.4239125,-0.008 0.2185239,0.36333 z"
       transform="matrix(-0.04345101,2.4893066,-2.4511113,-0.04278432,704.29729,12.850863)" /><path
       sodipodi:type="star"
       style="fill:#46a926;fill-opacity:1;fill-rule:nonzero;stroke:#111111;stroke-width:0.09849;stroke-linecap:butt;stroke-linejoin:round;stroke-miterlimit:4;stroke-dasharray:none;stroke-opacity:1;paint-order:normal"
       id="path815-6-3-2"
       sodipodi:sides="6"
       sodipodi:cx="1.4646577"
       sodipodi:cy="286.60562"
       sodipodi:r1="0.4239803"
       sodipodi:r2="0.40350592"
       sodipodi:arg1="1.0293095"
       sodipodi:arg2="1.5529083"
       inkscape:flatsided="true"
       inkscape:rounded="0"
       inkscape:randomized="0"
       d="m 1.6831816,286.96895 -0.4239124,0.008 -0.218524,-0.36332 0.2053885,-0.37092 0.4239125,-0.008 0.2185239,0.36333 z"
       transform="matrix(-0.04345101,2.4893066,-2.4511113,-0.04278432,705.1977,14.433573)" /><path
       sodipodi:type="star"
       style="fill:#46a926;fill-opacity:1;fill-rule:nonzero;stroke:#111111;stroke-width:0.09849;stroke-linecap:butt;stroke-linejoin:round;stroke-miterlimit:4;stroke-dasharray:none;stroke-opacity:1;paint-order:normal"
       id="path815-6-3-7"
       sodipodi:sides="6"
       sodipodi:cx="1.4646577"
       sodipodi:cy="286.60562"
       sodipodi:r1="0.4239803"
       sodipodi:r2="0.40350592"
       sodipodi:arg1="1.0293095"
       sodipodi:arg2="1.5529083"
       inkscape:flatsided="true"
       inkscape:rounded="0"
       inkscape:randomized="0"
       d="m 1.6831816,286.96895 -0.4239124,0.008 -0.218524,-0.36332 0.2053885,-0.37092 0.4239125,-0.008 0.2185239,0.36333 z"
       transform="matrix(-0.04345101,2.4893066,-2.4511113,-0.04278432,705.19719,11.266843)" /><path
       sodipodi:type="star"
       style="fill:#46a926;fill-opacity:1;fill-rule:nonzero;stroke:#111111;stroke-width:0.09849;stroke-linecap:butt;stroke-linejoin:round;stroke-miterlimit:4;stroke-dasharray:none;stroke-opacity:1;paint-order:normal"
       id="path815-6-3-0"
       sodipodi:sides="6"
       sodipodi:cx="1.4646577"
       sodipodi:cy="286.60562"
       sodipodi:r1="0.4239803"
       sodipodi:r2="0.40350592"
       sodipodi:arg1="1.0293095"
       sodipodi:arg2="1.5529083"
       inkscape:flatsided="true"
       inkscape:rounded="0"
       inkscape:randomized="0"
       d="m 1.6831816,286.96895 -0.4239124,0.008 -0.218524,-0.36332 0.2053885,-0.37092 0.4239125,-0.008 0.2185239,0.36333 z"
       transform="matrix(-0.04345101,2.4893066,-2.4511113,-0.04278432,706.09758,12.849573)" /><path
       sodipodi:type="star"
       style="fill:#46a926;fill-opacity:1;fill-rule:nonzero;stroke:#111111;stroke-width:0.09849;stroke-linecap:butt;stroke-linejoin:round;stroke-miterlimit:4;stroke-dasharray:none;stroke-opacity:1;paint-order:normal"
       id="path815-6-3-9"
       sodipodi:sides="6"
       sodipodi:cx="1.4646577"
       sodipodi:cy="286.60562"
       sodipodi:r1="0.4239803"
       sodipodi:r2="0.40350592"
       sodipodi:arg1="1.0293095"
       sodipodi:arg2="1.5529083"
       inkscape:flatsided="true"
       inkscape:rounded="0"
       inkscape:randomized="0"
       d="m 1.6831816,286.96895 -0.4239124,0.008 -0.218524,-0.36332 0.2053885,-0.37092 0.4239125,-0.008 0.2185239,0.36333 z"
       transform="matrix(-0.04345101,2.4893066,-2.4511113,-0.04278432,706.99796,14.432303)" /><path
       sodipodi:type="star"
       style="fill:#46a926;fill-opacity:1;fill-rule:nonzero;stroke:#111111;stroke-width:0.09849;stroke-linecap:butt;stroke-linejoin:round;stroke-miterlimit:4;stroke-dasharray:none;stroke-opacity:1;paint-order:normal"
       id="path815-6-3-3"
       sodipodi:sides="6"
       sodipodi:cx="1.4646577"
       sodipodi:cy="286.60562"
       sodipodi:r1="0.4239803"
       sodipodi:r2="0.40350592"
       sodipodi:arg1="1.0293095"
       sodipodi:arg2="1.5529083"
       inkscape:flatsided="true"
       inkscape:rounded="0"
       inkscape:randomized="0"
       d="m 1.6831816,286.96895 -0.4239124,0.008 -0.218524,-0.36332 0.2053885,-0.37092 0.4239125,-0.008 0.2185239,0.36333 z"
       transform="matrix(-0.04345101,2.4893066,-2.4511113,-0.04278432,706.99746,11.265583)" /><path
       sodipodi:type="star"
       style="fill:#46a926;fill-opacity:1;fill-rule:nonzero;stroke:#111111;stroke-width:0.09849;stroke-linecap:butt;stroke-linejoin:round;stroke-miterlimit:4;stroke-dasharray:none;stroke-opacity:1;paint-order:normal"
       id="path815-6-3-6"
       sodipodi:sides="6"
       sodipodi:cx="1.4646577"
       sodipodi:cy="286.60562"
       sodipodi:r1="0.4239803"
       sodipodi:r2="0.40350592"
       sodipodi:arg1="1.0293095"
       sodipodi:arg2="1.5529083"
       inkscape:flatsided="true"
       inkscape:rounded="0"
       inkscape:randomized="0"
       d="m 1.6831816,286.96895 -0.4239124,0.008 -0.218524,-0.36332 0.2053885,-0.37092 0.4239125,-0.008 0.2185239,0.36333 z"
       transform="matrix(-0.04345101,2.4893066,-2.4511113,-0.04278432,707.89787,12.848293)" /><path
       sodipodi:type="star"
       style="fill:#d8d04f;fill-opacity:1;fill-rule:nonzero;stroke:#111111;stroke-width:0.0911522;stroke-linecap:butt;stroke-linejoin:round;stroke-miterlimit:4;stroke-dasharray:none;stroke-opacity:1;paint-order:normal"
       id="path815-6-3-06-1"
       sodipodi:sides="6"
       sodipodi:cx="1.4646577"
       sodipodi:cy="286.60562"
       sodipodi:r1="0.4239803"
       sodipodi:r2="0.40350592"
       sodipodi:arg1="1.0293095"
       sodipodi:arg2="1.5529083"
       inkscape:flatsided="true"
       inkscape:rounded="0"
       inkscape:randomized="0"
       d="m 1.6831816,286.96895 -0.4239124,0.008 -0.218524,-0.36332 0.2053885,-0.37092 0.4239125,-0.008 0.2185239,0.36333 z"
       transform="matrix(-0.03129921,1.7931298,-1.7656166,-0.03081896,512.06157,9.0024027)" /><path
       sodipodi:type="star"
       style="fill:#d8d04f;fill-opacity:1;fill-rule:nonzero;stroke:#111111;stroke-width:0.06566;stroke-linecap:butt;stroke-linejoin:round;stroke-miterlimit:4;stroke-dasharray:none;stroke-opacity:1;paint-order:normal"
       id="path815-6-3-06-9"
       sodipodi:sides="6"
       sodipodi:cx="1.4646577"
       sodipodi:cy="286.60562"
       sodipodi:r1="0.42398015"
       sodipodi:r2="0.40350592"
       sodipodi:arg1="1.0293093"
       sodipodi:arg2="1.5529081"
       inkscape:flatsided="true"
       inkscape:rounded="0"
       inkscape:randomized="0"
       d="m 1.6831816,286.96895 -0.4239123,0.008 -0.2185239,-0.36332 0.2053883,-0.37092 0.4239123,-0.008 0.218524,0.36333 z"
       transform="matrix(-0.04345101,2.4893066,-2.4511113,-0.04278432,709.69808,12.847003)" /><path
       sodipodi:type="star"
       style="fill:#d8d04f;fill-opacity:1;fill-rule:nonzero;stroke:#111111;stroke-width:0.0911522;stroke-linecap:butt;stroke-linejoin:round;stroke-miterlimit:4;stroke-dasharray:none;stroke-opacity:1;paint-order:normal"
       id="path815-6-3-06-1-2"
       sodipodi:sides="6"
       sodipodi:cx="1.4646577"
       sodipodi:cy="286.60562"
       sodipodi:r1="0.4239803"
       sodipodi:r2="0.40350592"
       sodipodi:arg1="1.0293095"
       sodipodi:arg2="1.5529083"
       inkscape:flatsided="true"
       inkscape:rounded="0"
       inkscape:randomized="0"
       d="m 1.6831816,286.96895 -0.4239124,0.008 -0.218524,-0.36332 0.2053885,-0.37092 0.4239125,-0.008 0.2185239,0.36333 z"
       transform="matrix(-0.03129921,1.7931298,-1.7656166,-0.03081896,507.16423,9.0058827)" /><path
       sodipodi:type="star"
       style="fill:#d8d04f;fill-opacity:1;fill-rule:nonzero;stroke:#111111;stroke-width:0.0911522;stroke-linecap:butt;stroke-linejoin:round;stroke-miterlimit:4;stroke-dasharray:none;stroke-opacity:1;paint-order:normal"
       id="path815-6-3-06-1-0"
       sodipodi:sides="6"
       sodipodi:cx="1.4646577"
       sodipodi:cy="286.60562"
       sodipodi:r1="0.4239803"
       sodipodi:r2="0.40350592"
       sodipodi:arg1="1.0293095"
       sodipodi:arg2="1.5529083"
       inkscape:flatsided="true"
       inkscape:rounded="0"
       inkscape:randomized="0"
       d="m 1.6831816,286.96895 -0.4239124,0.008 -0.218524,-0.36332 0.2053885,-0.37092 0.4239125,-0.008 0.2185239,0.36333 z"
       transform="matrix(-0.03129921,1.7931298,-1.7656166,-0.03081896,507.16471,11.877393)" /><path
       sodipodi:type="star"
       style="fill:#d8d04f;fill-opacity:1;fill-rule:nonzero;stroke:#111111;stroke-width:0.0911522;stroke-linecap:butt;stroke-linejoin:round;stroke-miterlimit:4;stroke-dasharray:none;stroke-opacity:1;paint-order:normal"
       id="path815-6-3-06-1-23"
       sodipodi:sides="6"
       sodipodi:cx="1.4646577"
       sodipodi:cy="286.60562"
       sodipodi:r1="0.4239803"
       sodipodi:r2="0.40350592"
       sodipodi:arg1="1.0293095"
       sodipodi:arg2="1.5529083"
       inkscape:flatsided="true"
       inkscape:rounded="0"
       inkscape:randomized="0"
       d="m 1.6831816,286.96895 -0.4239124,0.008 -0.218524,-0.36332 0.2053885,-0.37092 0.4239125,-0.008 0.2185239,0.36333 z"
       transform="matrix(-0.03129921,1.7931298,-1.7656166,-0.03081896,512.06203,11.873903)" /><path
       sodipodi:type="star"
       style="fill:#111111;fill-opacity:1;fill-rule:nonzero;stroke:#111111;stroke-width:0.17789;stroke-linecap:butt;stroke-linejoin:round;stroke-miterlimit:4;stroke-dasharray:none;stroke-opacity:1;paint-order:normal"
       id="path1067"
       sodipodi:sides="6"
       sodipodi:cx="5.5144305"
       sodipodi:cy="284.64938"
       sodipodi:r1="0.23451009"
       sodipodi:r2="0.2030917"
       sodipodi:arg1="1.076855"
       sodipodi:arg2="1.6004537"
       inkscape:flatsided="true"
       inkscape:rounded="0"
       inkscape:randomized="0"
       d="m 5.6256117,284.85586 -0.234407,-0.007 -0.1111811,-0.20648 0.1232257,-0.19953 0.234407,0.007 0.1111812,0.20648 z"
       transform="matrix(-0.01067979,0.61184495,-0.61184495,-0.01067979,182.12489,3.4341727)" /><path
       sodipodi:type="star"
       style="fill:#111111;fill-opacity:1;fill-rule:nonzero;stroke:#111111;stroke-width:0.17789;stroke-linecap:butt;stroke-linejoin:round;stroke-miterlimit:4;stroke-dasharray:none;stroke-opacity:1;paint-order:normal"
       id="path1067-2"
       sodipodi:sides="6"
       sodipodi:cx="-7.0167661"
       sodipodi:cy="284.61899"
       sodipodi:r1="0.23451011"
       sodipodi:r2="0.2030917"
       sodipodi:arg1="1.076855"
       sodipodi:arg2="1.6004537"
       inkscape:flatsided="true"
       inkscape:rounded="0"
       inkscape:randomized="0"
       d="m -6.9055849,284.82547 -0.234407,-0.007 -0.1111812,-0.20648 0.1232258,-0.19952 0.234407,0.007 0.1111812,0.20648 z"
       transform="matrix(0.01067979,-0.61184495,-0.61184495,-0.01067979,182.12489,3.4341727)" /><g
       transform="matrix(-0.67489469,0,0,0.67489469,1.2783542,1.3085273)"
       id="g2"
       style="fill:#e01b24;stroke:#ffffff;stroke-opacity:1;stroke-width:0.39203645;stroke-dasharray:none"><path
         id="path1-2"
         style="fill:#e01b24;stroke:#ffffff;stroke-opacity:1;stroke-width:0.39203645;stroke-dasharray:none"
         d="M -2.8822593 0.72958978 A 0.28 0.28 0 0 1 -2.7429026 0.75638914 L -0.92896827 1.6231572 A 0.3461 0.3461 0 0 1 -0.86541549 2.2089148 L -1.1441289 2.4256068 C -0.50887856 3.5626662 -0.51209897 4.9707172 -1.1877736 6.1154968 C -1.9597728 7.4235455 -3.4570974 8.1302974 -4.9572959 7.8926777 C -6.4574944 7.6550779 -7.6639974 6.5200951 -7.994047 5.0373966 C -8.3240467 3.554698 -7.7127964 2.0176158 -6.4549977 1.1660366 A 0.52917 0.52917 0 0 1 -6.0583671 1.0841071 A 0.52917 0.52917 0 0 1 -5.7191637 1.3069247 A 0.52917 0.52917 0 0 1 -5.8615831 2.0427587 C -6.7623022 2.6525581 -7.1974826 3.7466545 -6.9611229 4.8084534 C -6.7248231 5.8702123 -5.8655388 6.6758711 -4.7911399 6.845971 C -3.7167409 7.0160708 -2.6526172 6.5147371 -2.0997177 5.5779781 C -1.6439337 4.8057254 -1.6153279 3.8716972 -1.993286 3.0864027 L -2.1916013 3.2403076 A 0.3461 0.3461 0 0 1 -2.7429026 3.0358667 L -3.1380018 1.064199 A 0.28 0.28 0 0 1 -2.8822593 0.72958978 z " /></g></g></svg>
