<?xml version="1.0" encoding="UTF-8" standalone="no"?>
<!-- Created with Inkscape (http://www.inkscape.org/) -->

<svg
   width="32"
   height="32"
   viewBox="0 0 32 32"
   version="1.1"
   id="svg1"
   xml:space="preserve"
   inkscape:version="1.3 (0e150ed6c4, 2023-07-21)"
   sodipodi:docname="skin.svg"
   xmlns:inkscape="http://www.inkscape.org/namespaces/inkscape"
   xmlns:sodipodi="http://sodipodi.sourceforge.net/DTD/sodipodi-0.dtd"
   xmlns="http://www.w3.org/2000/svg"
   xmlns:svg="http://www.w3.org/2000/svg"><sodipodi:namedview
     id="namedview1"
     pagecolor="#ffffff"
     bordercolor="#000000"
     borderopacity="0.25"
     inkscape:showpageshadow="2"
     inkscape:pageopacity="0.0"
     inkscape:pagecheckerboard="true"
     inkscape:deskcolor="#d1d1d1"
     inkscape:document-units="px"
     inkscape:zoom="22.627417"
     inkscape:cx="16.926369"
     inkscape:cy="13.854873"
     inkscape:window-width="2560"
     inkscape:window-height="1371"
     inkscape:window-x="0"
     inkscape:window-y="0"
     inkscape:window-maximized="1"
     inkscape:current-layer="layer1" /><defs
     id="defs1" /><g
     inkscape:label="Layer 1"
     inkscape:groupmode="layer"
     id="layer1"><g
       stroke="#111111"
       stroke-linejoin="round"
       id="g14"
       transform="matrix(2.5284364,0,0,2.5284364,-0.19129441,-718.98)"><path
         transform="matrix(4.0603,0.070872,-0.069785,3.998,20.46,-851.19)"
         d="m 1.6832,286.97 -0.42391,0.008 -0.21852,-0.36332 0.20539,-0.37092 0.42391,-0.008 0.21852,0.36333 z"
         fill="#46a926"
         stroke-width="0.09849"
         style="paint-order:normal"
         id="path1" /><path
         transform="matrix(4.0603,0.070872,-0.069785,3.998,23.041,-852.66)"
         d="m 1.6832,286.97 -0.42391,0.008 -0.21852,-0.36332 0.20539,-0.37092 0.42391,-0.008 0.21852,0.36333 z"
         fill="#46a926"
         stroke-width="0.09849"
         style="paint-order:normal"
         id="path2" /><path
         d="m 10.12211,294.36956 -2.2589757,-2.22453 0.2621284,-0.31413 1.72176,-0.002 0.8619013,1.46808 z"
         fill="#46a926"
         stroke-width="0.39688"
         style="fill:#f66151;paint-order:normal"
         id="path2-5"
         sodipodi:nodetypes="cccccc" /><path
         transform="matrix(4.0603,0.070872,-0.069785,3.998,17.876,-852.66)"
         d="m 1.6832,286.97 -0.42391,0.008 -0.21852,-0.36332 0.20539,-0.37092 0.42391,-0.008 0.21852,0.36333 z"
         fill="#46a926"
         stroke-width="0.09849"
         style="paint-order:normal"
         id="path3" /><path
         transform="matrix(4.0603,0.070872,-0.069785,3.998,20.458,-854.13)"
         d="m 1.6832,286.97 -0.42391,0.008 -0.21852,-0.36332 0.20539,-0.37092 0.42391,-0.008 0.21852,0.36333 z"
         fill="#46a926"
         stroke-width="0.09849"
         style="paint-order:normal"
         id="path4" /><path
         d="m 7.9324604,292.21436 -1.8475882,-1.8541 1.1791505,-0.001 0.8619018,1.46808 z"
         fill="#46a926"
         stroke-width="0.39688"
         style="fill:#f66151;paint-order:normal"
         id="path4-7"
         sodipodi:nodetypes="ccccc" /><path
         transform="matrix(4.0603,0.070872,-0.069785,3.998,23.039,-855.59)"
         d="m 1.6832,286.97 -0.42391,0.008 -0.21852,-0.36332 0.20539,-0.37092 0.42391,-0.008 0.21852,0.36333 z"
         fill="#46a926"
         stroke-width="0.09849"
         style="paint-order:normal;fill:#f66151"
         id="path5" /><path
         transform="matrix(4.0603,0.070872,-0.069785,3.998,17.874,-855.59)"
         d="m 1.6832,286.97 -0.42391,0.008 -0.21852,-0.36332 0.20539,-0.37092 0.42391,-0.008 0.21852,0.36333 z"
         fill="#46a926"
         stroke-width="0.09849"
         style="paint-order:normal"
         id="path6" /><path
         transform="matrix(4.0603,0.070872,-0.069785,3.998,20.456,-857.06)"
         d="m 1.6832,286.97 -0.42391,0.008 -0.21852,-0.36332 0.20539,-0.37092 0.42391,-0.008 0.21852,0.36333 z"
         fill="#46a926"
         stroke-width="0.09849"
         style="paint-order:normal;fill:#f66151"
         id="path7" /><path
         transform="matrix(2.9247,0.051051,-0.050268,2.8799,14.183,-537.64)"
         d="m 1.6832,286.97 -0.42391,0.008 -0.21852,-0.36332 0.20539,-0.37092 0.42391,-0.008 0.21852,0.36333 z"
         fill="#d8d04f"
         stroke-width="0.091152"
         style="paint-order:normal"
         id="path8" /><path
         d="m 4.6804471,288.89083 -1.551379,-1.58494 0.3096747,-0.52927 1.2402117,-10e-4 0.6208416,1.05751 z"
         fill="#d8d04f"
         stroke-width="0.264583"
         style="fill:#3584e4;paint-order:normal"
         id="path8-6"
         sodipodi:nodetypes="cccccc" /><path
         transform="matrix(4.0603,0.070872,-0.069785,3.998,20.454,-860)"
         d="m 1.6832,286.97 -0.42391,0.008 -0.21852,-0.36332 0.20539,-0.37092 0.42391,-0.008 0.21852,0.36333 z"
         fill="#d8d04f"
         stroke-width="0.06566"
         style="paint-order:normal;fill:#3584e4"
         id="path9" /><path
         transform="matrix(2.9247,0.051051,-0.050268,2.8799,14.188,-529.65)"
         d="m 1.6832,286.97 -0.42391,0.008 -0.21852,-0.36332 0.20539,-0.37092 0.42391,-0.008 0.21852,0.36333 z"
         fill="#d8d04f"
         stroke-width="0.091152"
         style="paint-order:normal"
         id="path10" /><path
         transform="matrix(2.9247,0.051051,-0.050268,2.8799,18.872,-529.65)"
         d="m 1.6832,286.97 -0.42391,0.008 -0.21852,-0.36332 0.20539,-0.37092 0.42391,-0.008 0.21852,0.36333 z"
         fill="#d8d04f"
         stroke-width="0.091152"
         style="paint-order:normal"
         id="path11" /><path
         transform="matrix(2.9247,0.051051,-0.050268,2.8799,18.866,-537.64)"
         d="m 1.6832,286.97 -0.42391,0.008 -0.21852,-0.36332 0.20539,-0.37092 0.42391,-0.008 0.21852,0.36333 z"
         fill="#d8d04f"
         stroke-width="0.091152"
         style="paint-order:normal;fill:#3584e4"
         id="path12" /><path
         transform="matrix(0.99797,0.01742,-0.01742,0.99797,5.1005,0.51472)"
         d="m 5.6256,284.86 -0.23441,-0.007 -0.11118,-0.20648 0.12323,-0.19953 0.23441,0.007 0.11118,0.20648 z"
         fill="#111111"
         stroke-width="0.17789"
         style="paint-order:normal"
         id="path13" /><path
         transform="matrix(-0.99797,-0.01742,-0.01742,0.99797,5.1005,0.51472)"
         d="m -6.9056,284.83 -0.23441,-0.007 -0.11118,-0.20648 0.12323,-0.19952 0.23441,0.007 0.11118,0.20648 z"
         fill="#111111"
         stroke-width="0.17789"
         style="paint-order:normal"
         id="path14" /></g><path
       style="fill:#813d9c;stroke:#ffffff;stroke-linecap:round;stroke-linejoin:round;stroke-opacity:1;stroke-width:2;stroke-dasharray:none"
       d="M 2.9839307,2.9839308 29.016069,29.016069"
       id="path15" /></g></svg>
