<?xml version="1.0" encoding="UTF-8" standalone="no"?>
<!-- Created with Inkscape (http://www.inkscape.org/) -->

<svg
   width="32"
   height="32"
   viewBox="0 0 8.4666662 8.4666662"
   version="1.1"
   id="svg1"
   inkscape:version="1.3 (0e150ed6c4, 2023-07-21)"
   sodipodi:docname="while.svg"
   xmlns:inkscape="http://www.inkscape.org/namespaces/inkscape"
   xmlns:sodipodi="http://sodipodi.sourceforge.net/DTD/sodipodi-0.dtd"
   xmlns="http://www.w3.org/2000/svg"
   xmlns:svg="http://www.w3.org/2000/svg">
  <sodipodi:namedview
     id="namedview1"
     pagecolor="#ffffff"
     bordercolor="#000000"
     borderopacity="0.25"
     inkscape:showpageshadow="2"
     inkscape:pageopacity="0.0"
     inkscape:pagecheckerboard="true"
     inkscape:deskcolor="#d1d1d1"
     inkscape:document-units="px"
     inkscape:zoom="16.006846"
     inkscape:cx="5.560121"
     inkscape:cy="19.085584"
     inkscape:window-width="2560"
     inkscape:window-height="1371"
     inkscape:window-x="0"
     inkscape:window-y="0"
     inkscape:window-maximized="1"
     inkscape:current-layer="path1" />
  <defs
     id="defs1" />
  <g
     inkscape:label="Vrstva 1"
     inkscape:groupmode="layer"
     id="layer1">
    <g
       id="path1">
      <path
         style="fill:none;stroke:#1a5fb4;stroke-width:0.79374996;stroke-linecap:round;stroke-dasharray:none;stroke-opacity:1"
         id="path2"
         sodipodi:type="arc"
         sodipodi:cx="4.2333307"
         sodipodi:cy="4.4783096"
         sodipodi:rx="2.9104166"
         sodipodi:ry="2.9104166"
         sodipodi:start="5.1661746"
         sodipodi:end="4.4139377"
         sodipodi:open="true"
         sodipodi:arc-type="arc"
         d="M 5.5091734,1.8624445 A 2.9104166,2.9104166 0 0 1 7.0415975,5.2426148 2.9104166,2.9104166 0 0 1 4.0075141,7.3799526 2.9104166,2.9104166 0 0 1 1.3406299,4.7989443 2.9104166,2.9104166 0 0 1 3.3775509,1.6965538" />
      <path
         sodipodi:type="star"
         style="fill:#1a5fb4;fill-opacity:1;stroke:#1a5fb4;stroke-width:0.529167;stroke-linecap:round;stroke-linejoin:round;stroke-dasharray:none;stroke-opacity:1"
         id="path3"
         inkscape:flatsided="true"
         sodipodi:sides="3"
         sodipodi:cx="1.4478559"
         sodipodi:cy="0.6543476"
         sodipodi:r1="1.486441"
         sodipodi:r2="0.47183484"
         sodipodi:arg1="2.0953523"
         sodipodi:arg2="3.1425499"
         inkscape:rounded="0"
         inkscape:randomized="0"
         d="m 0.70340359,1.9409313 0.002464,-2.5745902 2.22842832,1.28942932 z"
         inkscape:transform-center-x="0.11002483"
         inkscape:transform-center-y="0.11002484"
         transform="translate(2.3284916,1.0666693)" />
      <path
         d="M 4.0018722,4.1553439 V 3.8744064 q 0,-0.3644595 0.1556546,-0.6340078 Q 4.3131813,2.9708504 4.7269949,2.6671341 5.1256225,2.3824001 5.2509054,2.2039667 5.3799849,2.0255334 5.3799849,1.8053392 q 0,-0.2467695 -0.1822299,-0.375849 -0.1822296,-0.1290793 -0.5087246,-0.1290793 -0.5694682,0 -1.2983872,0.3720523 L 2.9768297,0.84103994 q 0.8466091,-0.47455671 1.7957227,-0.47455671 0.7820693,0 1.2414403,0.37584892 0.4631674,0.37584885 0.4631674,1.00226375 0,0.4176098 -0.1898227,0.7213262 Q 6.0975146,2.7696384 5.566011,3.1492837 5.2015515,3.4188319 5.1028437,3.5593008 5.0079324,3.6997696 5.0079324,3.9275568 v 0.2277871 z m -0.121486,1.2983872 q 0,-0.318902 0.1708403,-0.4821495 0.1708405,-0.1632473 0.4973355,-0.1632473 0.3151057,0 0.485946,0.1670438 0.174637,0.167044 0.174637,0.4783532 0,0.2999198 -0.174637,0.4745567 -0.1746368,0.1708405 -0.485946,0.1708405 -0.3189022,0 -0.493539,-0.167044 Q 3.8803857,5.761244 3.8803862,5.4537311 Z"
         id="text4"
         style="font-weight:bold;font-size:4.7597px;font-family:'Open Sans';-inkscape-font-specification:'Open Sans Bold';fill:#2ec27e;stroke:#ffffff;stroke-width:0.264582;stroke-linecap:round"
         aria-label="?" />
    </g>
  </g>
</svg>
