<?xml version="1.0" encoding="UTF-8"?>
<svg width="50" height="35" version="1.1" viewBox="0 0 13.229 9.2604" xmlns="http://www.w3.org/2000/svg">
	<g transform="translate(3.3688 1.5914)" stroke-width=".26458">
		<g fill-opacity="0">
			<path d="m6.4208 5.2878h0.26458v0.26458h-0.26458"/>
			<path d="m6.1562 5.2878h0.26458v0.26458h-0.26458"/>
			<path d="m5.8916 5.2878h0.26458v0.26458h-0.26458"/>
			<path d="m5.6271 5.2878h0.26458v0.26458h-0.26458"/>
			<path d="m5.3625 5.2878h0.26458v0.26458h-0.26458"/>
			<path d="m5.0979 5.2878h0.26458v0.26458h-0.26458"/>
			<path d="m4.8333 5.2878h0.26458v0.26458h-0.26458"/>
			<path d="m4.5687 5.2878h0.26458v0.26458h-0.26458"/>
		</g>
		<path d="m4.3041 5.2878h0.26458v0.26458h-0.26458"/>
		<g fill-opacity="0">
			<path d="m4.0396 5.2878h0.26458v0.26458h-0.26458"/>
			<path d="m3.775 5.2878h0.26458v0.26458h-0.26458"/>
			<path d="m3.5104 5.2878h0.26458v0.26458h-0.26458"/>
			<path d="m3.2458 5.2878h0.26458v0.26458h-0.26458"/>
			<path d="m2.9812 5.2878h0.26458v0.26458h-0.26458"/>
			<path d="m2.7166 5.2878h0.26458v0.26458h-0.26458"/>
			<path d="m2.4521 5.2878h0.26458v0.26458h-0.26458"/>
			<path d="m2.1875 5.2878h0.26458v0.26458h-0.26458"/>
			<path d="m1.9229 5.2878h0.26458v0.26458h-0.26458"/>
			<path d="m1.6583 5.2878h0.26458v0.26458h-0.26458"/>
			<path d="m1.3937 5.2878h0.26458v0.26458h-0.26458"/>
			<path d="m1.1291 5.2878h0.26458v0.26458h-0.26458"/>
			<path d="m0.86456 5.2878h0.26458v0.26458h-0.26458"/>
			<path d="m0.59998 5.2878h0.26458v0.26458h-0.26458"/>
			<path d="m0.33539 5.2878h0.26458v0.26458h-0.26458"/>
			<path d="m0.07081 5.2878h0.26458v0.26458h-0.26458"/>
			<path d="m6.4208 5.0232h0.26458v0.26458h-0.26458"/>
			<path d="m6.1562 5.0232h0.26458v0.26458h-0.26458"/>
			<path d="m5.8916 5.0232h0.26458v0.26458h-0.26458"/>
			<path d="m5.6271 5.0232h0.26458v0.26458h-0.26458"/>
			<path d="m5.3625 5.0232h0.26458v0.26458h-0.26458"/>
			<path d="m5.0979 5.0232h0.26458v0.26458h-0.26458"/>
			<path d="m4.8333 5.0232h0.26458v0.26458h-0.26458"/>
		</g>
		<path d="m4.5687 5.0232h0.26458v0.26458h-0.26458"/>
		<path d="m4.3041 5.0232h0.26458v0.26458h-0.26458"/>
		<path d="m4.0396 5.0232h0.26458v0.26458h-0.26458"/>
		<g fill-opacity="0">
			<path d="m3.775 5.0232h0.26458v0.26458h-0.26458"/>
			<path d="m3.5104 5.0232h0.26458v0.26458h-0.26458"/>
			<path d="m3.2458 5.0232h0.26458v0.26458h-0.26458"/>
			<path d="m2.9812 5.0232h0.26458v0.26458h-0.26458"/>
			<path d="m2.7166 5.0232h0.26458v0.26458h-0.26458"/>
			<path d="m2.4521 5.0232h0.26458v0.26458h-0.26458"/>
			<path d="m2.1875 5.0232h0.26458v0.26458h-0.26458"/>
			<path d="m1.9229 5.0232h0.26458v0.26458h-0.26458"/>
			<path d="m1.6583 5.0232h0.26458v0.26458h-0.26458"/>
			<path d="m1.3937 5.0232h0.26458v0.26458h-0.26458"/>
			<path d="m1.1291 5.0232h0.26458v0.26458h-0.26458"/>
			<path d="m0.86456 5.0232h0.26458v0.26458h-0.26458"/>
		</g>
		<path d="m0.59998 5.0232h0.26458v0.26458h-0.26458"/>
		<g fill-opacity="0">
			<path d="m0.33539 5.0232h0.26458v0.26458h-0.26458"/>
			<path d="m0.07081 5.0232h0.26458v0.26458h-0.26458"/>
			<path d="m6.4208 4.7586h0.26458v0.26458h-0.26458"/>
			<path d="m6.1562 4.7586h0.26458v0.26458h-0.26458"/>
			<path d="m5.8916 4.7586h0.26458v0.26458h-0.26458"/>
			<path d="m5.6271 4.7586h0.26458v0.26458h-0.26458"/>
			<path d="m5.3625 4.7586h0.26458v0.26458h-0.26458"/>
			<path d="m5.0979 4.7586h0.26458v0.26458h-0.26458"/>
			<path d="m4.8333 4.7586h0.26458v0.26458h-0.26458"/>
		</g>
		<path d="m4.5687 4.7586h0.26458v0.26458h-0.26458"/>
		<path d="m4.3041 4.7586h0.26458v0.26458h-0.26458"/>
		<path d="m4.0396 4.7586h0.26458v0.26458h-0.26458"/>
		<path d="m3.775 4.7586h0.26458v0.26458h-0.26458"/>
		<path d="m3.5104 4.7586h0.26458v0.26458h-0.26458" fill-opacity="0"/>
		<path d="m3.2458 4.7586h0.26458v0.26458h-0.26458" fill-opacity="0"/>
		<path d="m2.9812 4.7586h0.26458v0.26458h-0.26458"/>
		<path d="m2.7166 4.7586h0.26458v0.26458h-0.26458"/>
		<path d="m2.4521 4.7586h0.26458v0.26458h-0.26458"/>
		<path d="m2.1875 4.7586h0.26458v0.26458h-0.26458"/>
		<g fill-opacity="0">
			<path d="m1.9229 4.7586h0.26458v0.26458h-0.26458"/>
			<path d="m1.6583 4.7586h0.26458v0.26458h-0.26458"/>
			<path d="m1.3937 4.7586h0.26458v0.26458h-0.26458"/>
			<path d="m1.1291 4.7586h0.26458v0.26458h-0.26458"/>
		</g>
		<path d="m0.86456 4.7586h0.26458v0.26458h-0.26458"/>
		<path d="m0.59998 4.7586h0.26458v0.26458h-0.26458"/>
		<path d="m0.33539 4.7586h0.26458v0.26458h-0.26458"/>
		<g fill-opacity="0">
			<path d="m0.07081 4.7586h0.26458v0.26458h-0.26458"/>
			<path d="m6.4208 4.494h0.26458v0.26458h-0.26458"/>
			<path d="m6.1562 4.494h0.26458v0.26458h-0.26458"/>
			<path d="m5.8916 4.494h0.26458v0.26458h-0.26458"/>
			<path d="m5.6271 4.494h0.26458v0.26458h-0.26458"/>
			<path d="m5.3625 4.494h0.26458v0.26458h-0.26458"/>
			<path d="m5.0979 4.494h0.26458v0.26458h-0.26458"/>
			<path d="m4.8333 4.494h0.26458v0.26458h-0.26458"/>
			<path d="m4.5687 4.494h0.26458v0.26458h-0.26458"/>
		</g>
		<path d="m4.3041 4.494h0.26458v0.26458h-0.26458"/>
		<path d="m4.0396 4.494h0.26458v0.26458h-0.26458"/>
		<path d="m3.775 4.494h0.26458v0.26458h-0.26458"/>
		<path d="m3.5104 4.494h0.26458v0.26458h-0.26458"/>
		<path d="m3.2458 4.494h0.26458v0.26458h-0.26458"/>
		<path d="m2.9812 4.494h0.26458v0.26458h-0.26458"/>
		<path d="m2.7166 4.494h0.26458v0.26458h-0.26458" fill="#808080"/>
		<path d="m2.4521 4.494h0.26458v0.26458h-0.26458" fill="#808080"/>
		<path d="m2.1875 4.494h0.26458v0.26458h-0.26458"/>
		<path d="m1.9229 4.494h0.26458v0.26458h-0.26458"/>
		<path d="m1.6583 4.494h0.26458v0.26458h-0.26458"/>
		<path d="m1.3937 4.494h0.26458v0.26458h-0.26458" fill-opacity="0"/>
		<path d="m1.1291 4.494h0.26458v0.26458h-0.26458"/>
		<path d="m0.86456 4.494h0.26458v0.26458h-0.26458"/>
		<path d="m0.59998 4.494h0.26458v0.26458h-0.26458"/>
		<path d="m0.33539 4.494h0.26458v0.26458h-0.26458"/>
		<path d="m0.07081 4.494h0.26458v0.26458h-0.26458"/>
		<g fill-opacity="0">
			<path d="m6.4208 4.2294h0.26458v0.26458h-0.26458"/>
			<path d="m6.1562 4.2294h0.26458v0.26458h-0.26458"/>
			<path d="m5.8916 4.2294h0.26458v0.26458h-0.26458"/>
			<path d="m5.6271 4.2294h0.26458v0.26458h-0.26458"/>
			<path d="m5.3625 4.2294h0.26458v0.26458h-0.26458"/>
			<path d="m5.0979 4.2294h0.26458v0.26458h-0.26458"/>
			<path d="m4.8333 4.2294h0.26458v0.26458h-0.26458"/>
			<path d="m4.5687 4.2294h0.26458v0.26458h-0.26458"/>
		</g>
		<path d="m4.3041 4.2294h0.26458v0.26458h-0.26458"/>
		<path d="m4.0396 4.2294h0.26458v0.26458h-0.26458"/>
		<g fill="#808080">
			<path d="m2.7166 4.2294h0.26458v0.26458h-0.26458"/>
			<path d="m2.4521 4.2294h0.26458v0.26458h-0.26458"/>
			<path d="m2.1875 4.2294h0.26458v0.26458h-0.26458"/>
			<path d="m1.9229 4.2294h0.26458v0.26458h-0.26458"/>
		</g>
		<path d="m1.6583 4.2294h0.26458v0.26458h-0.26458"/>
		<path d="m1.3937 4.2294h0.26458v0.26458h-0.26458"/>
		<path d="m1.1291 4.2294h0.26458v0.26458h-0.26458"/>
		<path d="m0.86456 4.2294h0.26458v0.26458h-0.26458"/>
		<path d="m0.59998 4.2294h0.26458v0.26458h-0.26458"/>
		<path d="m0.33539 4.2294h0.26458v0.26458h-0.26458"/>
		<g fill-opacity="0">
			<path d="m0.07081 4.2294h0.26458v0.26458h-0.26458"/>
			<path d="m6.4208 3.9648h0.26458v0.26458h-0.26458"/>
			<path d="m6.1562 3.9648h0.26458v0.26458h-0.26458"/>
			<path d="m5.8916 3.9648h0.26458v0.26458h-0.26458"/>
			<path d="m5.6271 3.9648h0.26458v0.26458h-0.26458"/>
			<path d="m5.3625 3.9648h0.26458v0.26458h-0.26458"/>
			<path d="m5.0979 3.9648h0.26458v0.26458h-0.26458"/>
			<path d="m4.8333 3.9648h0.26458v0.26458h-0.26458"/>
			<path d="m4.5687 3.9648h0.26458v0.26458h-0.26458"/>
			<path d="m4.3041 3.9648h0.26458v0.26458h-0.26458"/>
		</g>
		<path d="m4.0396 3.9648h0.26458v0.26458h-0.26458"/>
		<g fill="#808080">
			<path d="m2.4521 3.9648h0.26458v0.26458h-0.26458"/>
			<path d="m2.1875 3.9648h0.26458v0.26458h-0.26458"/>
			<path d="m1.9229 3.9648h0.26458v0.26458h-0.26458"/>
			<path d="m1.6583 3.9648h0.26458v0.26458h-0.26458"/>
			<path d="m1.3937 3.9648h0.26458v0.26458h-0.26458"/>
			<path d="m1.1291 3.9648h0.26458v0.26458h-0.26458"/>
		</g>
		<path d="m0.86456 3.9648h0.26458v0.26458h-0.26458"/>
		<g fill-opacity="0">
			<path d="m0.59998 3.9648h0.26458v0.26458h-0.26458"/>
			<path d="m0.33539 3.9648h0.26458v0.26458h-0.26458"/>
			<path d="m0.07081 3.9648h0.26458v0.26458h-0.26458"/>
			<path d="m6.4208 3.7003h0.26458v0.26458h-0.26458"/>
			<path d="m6.1562 3.7003h0.26458v0.26458h-0.26458"/>
			<path d="m5.8916 3.7003h0.26458v0.26458h-0.26458"/>
			<path d="m5.6271 3.7003h0.26458v0.26458h-0.26458"/>
			<path d="m5.3625 3.7003h0.26458v0.26458h-0.26458"/>
			<path d="m5.0979 3.7003h0.26458v0.26458h-0.26458"/>
			<path d="m4.8333 3.7003h0.26458v0.26458h-0.26458"/>
			<path d="m4.5687 3.7003h0.26458v0.26458h-0.26458"/>
		</g>
		<path d="m4.3041 3.7003h0.26458v0.26458h-0.26458"/>
		<path d="m4.0396 3.7003h0.26458v0.26458h-0.26458"/>
		<g fill="#808080">
			<path d="m2.1875 3.7003h0.26458v0.26458h-0.26458"/>
			<path d="m1.9229 3.7003h0.26458v0.26458h-0.26458"/>
			<path d="m1.6583 3.7003h0.26458v0.26458h-0.26458"/>
			<path d="m1.3937 3.7003h0.26458v0.26458h-0.26458"/>
			<path d="m1.1291 3.7003h0.26458v0.26458h-0.26458"/>
		</g>
		<path d="m0.86456 3.7003h0.26458v0.26458h-0.26458"/>
		<path d="m0.59998 3.7003h0.26458v0.26458h-0.26458"/>
		<g fill-opacity="0">
			<path d="m0.33539 3.7003h0.26458v0.26458h-0.26458"/>
			<path d="m0.07081 3.7003h0.26458v0.26458h-0.26458"/>
			<path d="m6.4208 3.4357h0.26458v0.26458h-0.26458"/>
			<path d="m6.1562 3.4357h0.26458v0.26458h-0.26458"/>
		</g>
		<path d="m5.8916 3.4357h0.26458v0.26458h-0.26458"/>
		<path d="m5.6271 3.4357h0.26458v0.26458h-0.26458"/>
		<path d="m5.3625 3.4357h0.26458v0.26458h-0.26458"/>
		<path d="m5.0979 3.4357h0.26458v0.26458h-0.26458" fill-opacity="0"/>
		<path d="m4.8333 3.4357h0.26458v0.26458h-0.26458" fill-opacity="0"/>
		<path d="m4.5687 3.4357h0.26458v0.26458h-0.26458"/>
		<path d="m4.3041 3.4357h0.26458v0.26458h-0.26458"/>
		<g fill="#808080">
			<path d="m1.9229 3.4357h0.26458v0.26458h-0.26458"/>
			<path d="m1.6583 3.4357h0.26458v0.26458h-0.26458"/>
			<path d="m1.3937 3.4357h0.26458v0.26458h-0.26458"/>
			<path d="m1.1291 3.4357h0.26458v0.26458h-0.26458"/>
			<path d="m0.86456 3.4357h0.26458v0.26458h-0.26458"/>
		</g>
		<path d="m0.59998 3.4357h0.26458v0.26458h-0.26458"/>
		<g fill-opacity="0">
			<path d="m0.33539 3.4357h0.26458v0.26458h-0.26458"/>
			<path d="m0.07081 3.4357h0.26458v0.26458h-0.26458"/>
			<path d="m6.4208 3.1711h0.26458v0.26458h-0.26458"/>
		</g>
		<path d="m6.1562 3.1711h0.26458v0.26458h-0.26458"/>
		<path d="m5.8916 3.1711h0.26458v0.26458h-0.26458"/>
		<path d="m5.6271 3.1711h0.26458v0.26458h-0.26458"/>
		<path d="m5.3625 3.1711h0.26458v0.26458h-0.26458"/>
		<path d="m5.0979 3.1711h0.26458v0.26458h-0.26458"/>
		<path d="m4.8333 3.1711h0.26458v0.26458h-0.26458"/>
		<path d="m4.5687 3.1711h0.26458v0.26458h-0.26458"/>
		<g fill="#808080">
			<path d="m1.6583 3.1711h0.26458v0.26458h-0.26458"/>
			<path d="m1.3937 3.1711h0.26458v0.26458h-0.26458"/>
			<path d="m1.1291 3.1711h0.26458v0.26458h-0.26458"/>
			<path d="m0.86456 3.1711h0.26458v0.26458h-0.26458"/>
		</g>
		<path d="m0.59998 3.1711h0.26458v0.26458h-0.26458"/>
		<path d="m0.33539 3.1711h0.26458v0.26458h-0.26458"/>
		<path d="m0.07081 3.1711h0.26458v0.26458h-0.26458" fill-opacity="0"/>
		<path d="m6.4208 2.9065h0.26458v0.26458h-0.26458"/>
		<path d="m6.1562 2.9065h0.26458v0.26458h-0.26458"/>
		<path d="m5.8916 2.9065h0.26458v0.26458h-0.26458"/>
		<path d="m5.6271 2.9065h0.26458v0.26458h-0.26458"/>
		<path d="m5.3625 2.9065h0.26458v0.26458h-0.26458"/>
		<path d="m5.0979 2.9065h0.26458v0.26458h-0.26458"/>
		<path d="m4.8333 2.9065h0.26458v0.26458h-0.26458"/>
		<path d="m4.5687 2.9065h0.26458v0.26458h-0.26458"/>
		<g fill="#808080">
			<path d="m1.3937 2.9065h0.26458v0.26458h-0.26458"/>
			<path d="m1.1291 2.9065h0.26458v0.26458h-0.26458"/>
			<path d="m0.86456 2.9065h0.26458v0.26458h-0.26458"/>
			<path d="m0.59998 2.9065h0.26458v0.26458h-0.26458"/>
		</g>
		<path d="m0.33539 2.9065h0.26458v0.26458h-0.26458"/>
		<path d="m0.07081 2.9065h0.26458v0.26458h-0.26458" fill-opacity="0"/>
		<path d="m6.4208 2.6419h0.26458v0.26458h-0.26458" fill-opacity="0"/>
		<path d="m6.1562 2.6419h0.26458v0.26458h-0.26458"/>
		<path d="m5.8916 2.6419h0.26458v0.26458h-0.26458"/>
		<path d="m5.6271 2.6419h0.26458v0.26458h-0.26458"/>
		<path d="m5.3625 2.6419h0.26458v0.26458h-0.26458"/>
		<path d="m5.0979 2.6419h0.26458v0.26458h-0.26458"/>
		<path d="m4.8333 2.6419h0.26458v0.26458h-0.26458"/>
		<path d="m4.5687 2.6419h0.26458v0.26458h-0.26458"/>
		<path d="m1.1291 2.6419h0.26458v0.26458h-0.26458" fill="#808080"/>
		<path d="m0.86456 2.6419h0.26458v0.26458h-0.26458" fill="#808080"/>
		<path d="m0.59998 2.6419h0.26458v0.26458h-0.26458"/>
		<path d="m0.33539 2.6419h0.26458v0.26458h-0.26458"/>
		<g fill-opacity="0">
			<path d="m0.07081 2.6419h0.26458v0.26458h-0.26458"/>
			<path d="m6.4208 2.3774h0.26458v0.26458h-0.26458"/>
			<path d="m6.1562 2.3774h0.26458v0.26458h-0.26458"/>
		</g>
		<path d="m5.8916 2.3774h0.26458v0.26458h-0.26458"/>
		<path d="m5.6271 2.3774h0.26458v0.26458h-0.26458"/>
		<path d="m5.3625 2.3774h0.26458v0.26458h-0.26458"/>
		<path d="m5.0979 2.3774h0.26458v0.26458h-0.26458" fill-opacity="0"/>
		<path d="m4.8333 2.3774h0.26458v0.26458h-0.26458" fill-opacity="0"/>
		<path d="m4.5687 2.3774h0.26458v0.26458h-0.26458"/>
		<path d="m4.3041 2.3774h0.26458v0.26458h-0.26458"/>
		<path d="m0.59998 2.3774h0.26458v0.26458h-0.26458"/>
		<g fill-opacity="0">
			<path d="m0.33539 2.3774h0.26458v0.26458h-0.26458"/>
			<path d="m0.07081 2.3774h0.26458v0.26458h-0.26458"/>
			<path d="m6.4208 2.1128h0.26458v0.26458h-0.26458"/>
			<path d="m6.1562 2.1128h0.26458v0.26458h-0.26458"/>
			<path d="m5.8916 2.1128h0.26458v0.26458h-0.26458"/>
			<path d="m5.6271 2.1128h0.26458v0.26458h-0.26458"/>
			<path d="m5.3625 2.1128h0.26458v0.26458h-0.26458"/>
			<path d="m5.0979 2.1128h0.26458v0.26458h-0.26458"/>
			<path d="m4.8333 2.1128h0.26458v0.26458h-0.26458"/>
			<path d="m4.5687 2.1128h0.26458v0.26458h-0.26458"/>
		</g>
		<path d="m4.3041 2.1128h0.26458v0.26458h-0.26458"/>
		<path d="m4.0396 2.1128h0.26458v0.26458h-0.26458"/>
		<path d="m0.86456 2.1128h0.26458v0.26458h-0.26458"/>
		<path d="m0.59998 2.1128h0.26458v0.26458h-0.26458"/>
		<g fill-opacity="0">
			<path d="m0.33539 2.1128h0.26458v0.26458h-0.26458"/>
			<path d="m0.07081 2.1128h0.26458v0.26458h-0.26458"/>
			<path d="m6.4208 1.8482h0.26458v0.26458h-0.26458"/>
			<path d="m6.1562 1.8482h0.26458v0.26458h-0.26458"/>
			<path d="m5.8916 1.8482h0.26458v0.26458h-0.26458"/>
			<path d="m5.6271 1.8482h0.26458v0.26458h-0.26458"/>
			<path d="m5.3625 1.8482h0.26458v0.26458h-0.26458"/>
			<path d="m5.0979 1.8482h0.26458v0.26458h-0.26458"/>
			<path d="m4.8333 1.8482h0.26458v0.26458h-0.26458"/>
			<path d="m4.5687 1.8482h0.26458v0.26458h-0.26458"/>
			<path d="m4.3041 1.8482h0.26458v0.26458h-0.26458"/>
		</g>
		<path d="m4.0396 1.8482h0.26458v0.26458h-0.26458"/>
		<path d="m1.1291 1.8482h0.26458v0.26458h-0.26458"/>
		<path d="m0.86456 1.8482h0.26458v0.26458h-0.26458"/>
		<g fill-opacity="0">
			<path d="m0.59998 1.8482h0.26458v0.26458h-0.26458"/>
			<path d="m0.33539 1.8482h0.26458v0.26458h-0.26458"/>
			<path d="m0.07081 1.8482h0.26458v0.26458h-0.26458"/>
			<path d="m6.4208 1.5836h0.26458v0.26458h-0.26458"/>
			<path d="m6.1562 1.5836h0.26458v0.26458h-0.26458"/>
			<path d="m5.8916 1.5836h0.26458v0.26458h-0.26458"/>
			<path d="m5.6271 1.5836h0.26458v0.26458h-0.26458"/>
			<path d="m5.3625 1.5836h0.26458v0.26458h-0.26458"/>
			<path d="m5.0979 1.5836h0.26458v0.26458h-0.26458"/>
			<path d="m4.8333 1.5836h0.26458v0.26458h-0.26458"/>
			<path d="m4.5687 1.5836h0.26458v0.26458h-0.26458"/>
		</g>
		<path d="m4.3041 1.5836h0.26458v0.26458h-0.26458"/>
		<path d="m4.0396 1.5836h0.26458v0.26458h-0.26458"/>
		<path d="m3.775 1.5836h0.26458v0.26458h-0.26458"/>
		<path d="m1.6583 1.5836h0.26458v0.26458h-0.26458"/>
		<path d="m1.3937 1.5836h0.26458v0.26458h-0.26458"/>
		<path d="m1.1291 1.5836h0.26458v0.26458h-0.26458"/>
		<path d="m0.86456 1.5836h0.26458v0.26458h-0.26458"/>
		<path d="m0.59998 1.5836h0.26458v0.26458h-0.26458"/>
		<path d="m0.33539 1.5836h0.26458v0.26458h-0.26458"/>
		<g fill-opacity="0">
			<path d="m0.07081 1.5836h0.26458v0.26458h-0.26458"/>
			<path d="m6.4208 1.319h0.26458v0.26458h-0.26458"/>
			<path d="m6.1562 1.319h0.26458v0.26458h-0.26458"/>
			<path d="m5.8916 1.319h0.26458v0.26458h-0.26458"/>
			<path d="m5.6271 1.319h0.26458v0.26458h-0.26458"/>
			<path d="m5.3625 1.319h0.26458v0.26458h-0.26458"/>
			<path d="m5.0979 1.319h0.26458v0.26458h-0.26458"/>
			<path d="m4.8333 1.319h0.26458v0.26458h-0.26458"/>
			<path d="m4.5687 1.319h0.26458v0.26458h-0.26458"/>
		</g>
		<path d="m4.3041 1.319h0.26458v0.26458h-0.26458"/>
		<path d="m4.0396 1.319h0.26458v0.26458h-0.26458"/>
		<path d="m3.775 1.319h0.26458v0.26458h-0.26458"/>
		<path d="m3.5104 1.319h0.26458v0.26458h-0.26458"/>
		<path d="m3.2458 1.319h0.26458v0.26458h-0.26458"/>
		<path d="m2.9812 1.319h0.26458v0.26458h-0.26458"/>
		<path d="m2.1875 1.319h0.26458v0.26458h-0.26458"/>
		<path d="m1.9229 1.319h0.26458v0.26458h-0.26458"/>
		<path d="m1.6583 1.319h0.26458v0.26458h-0.26458"/>
		<path d="m1.3937 1.319h0.26458v0.26458h-0.26458" fill-opacity="0"/>
		<path d="m1.1291 1.319h0.26458v0.26458h-0.26458"/>
		<path d="m0.86456 1.319h0.26458v0.26458h-0.26458"/>
		<path d="m0.59998 1.319h0.26458v0.26458h-0.26458"/>
		<path d="m0.33539 1.319h0.26458v0.26458h-0.26458"/>
		<path d="m0.07081 1.319h0.26458v0.26458h-0.26458"/>
		<g fill-opacity="0">
			<path d="m6.4208 1.0544h0.26458v0.26458h-0.26458"/>
			<path d="m6.1562 1.0544h0.26458v0.26458h-0.26458"/>
			<path d="m5.8916 1.0544h0.26458v0.26458h-0.26458"/>
			<path d="m5.6271 1.0544h0.26458v0.26458h-0.26458"/>
			<path d="m5.3625 1.0544h0.26458v0.26458h-0.26458"/>
			<path d="m5.0979 1.0544h0.26458v0.26458h-0.26458"/>
			<path d="m4.8333 1.0544h0.26458v0.26458h-0.26458"/>
		</g>
		<path d="m4.5687 1.0544h0.26458v0.26458h-0.26458"/>
		<path d="m4.3041 1.0544h0.26458v0.26458h-0.26458"/>
		<path d="m4.0396 1.0544h0.26458v0.26458h-0.26458"/>
		<path d="m3.775 1.0544h0.26458v0.26458h-0.26458"/>
		<path d="m3.5104 1.0544h0.26458v0.26458h-0.26458" fill-opacity="0"/>
		<path d="m3.2458 1.0544h0.26458v0.26458h-0.26458" fill-opacity="0"/>
		<path d="m2.9812 1.0544h0.26458v0.26458h-0.26458"/>
		<path d="m2.7166 1.0544h0.26458v0.26458h-0.26458"/>
		<path d="m2.4521 1.0544h0.26458v0.26458h-0.26458"/>
		<path d="m2.1875 1.0544h0.26458v0.26458h-0.26458"/>
		<g fill-opacity="0">
			<path d="m1.9229 1.0544h0.26458v0.26458h-0.26458"/>
			<path d="m1.6583 1.0544h0.26458v0.26458h-0.26458"/>
			<path d="m1.3937 1.0544h0.26458v0.26458h-0.26458"/>
			<path d="m1.1291 1.0544h0.26458v0.26458h-0.26458"/>
		</g>
		<path d="m0.86456 1.0544h0.26458v0.26458h-0.26458"/>
		<path d="m0.59998 1.0544h0.26458v0.26458h-0.26458"/>
		<path d="m0.33539 1.0544h0.26458v0.26458h-0.26458"/>
		<g fill-opacity="0">
			<path d="m0.07081 1.0544h0.26458v0.26458h-0.26458"/>
			<path d="m6.4208 0.78985h0.26458v0.26458h-0.26458"/>
			<path d="m6.1562 0.78985h0.26458v0.26458h-0.26458"/>
			<path d="m5.8916 0.78985h0.26458v0.26458h-0.26458"/>
			<path d="m5.6271 0.78985h0.26458v0.26458h-0.26458"/>
			<path d="m5.3625 0.78985h0.26458v0.26458h-0.26458"/>
			<path d="m5.0979 0.78985h0.26458v0.26458h-0.26458"/>
			<path d="m4.8333 0.78985h0.26458v0.26458h-0.26458"/>
		</g>
		<path d="m4.5687 0.78985h0.26458v0.26458h-0.26458"/>
		<path d="m4.3041 0.78985h0.26458v0.26458h-0.26458"/>
		<path d="m4.0396 0.78985h0.26458v0.26458h-0.26458"/>
		<g fill-opacity="0">
			<path d="m3.775 0.78985h0.26458v0.26458h-0.26458"/>
			<path d="m3.5104 0.78985h0.26458v0.26458h-0.26458"/>
			<path d="m3.2458 0.78985h0.26458v0.26458h-0.26458"/>
			<path d="m2.9812 0.78985h0.26458v0.26458h-0.26458"/>
			<path d="m2.7166 0.78985h0.26458v0.26458h-0.26458"/>
			<path d="m2.4521 0.78985h0.26458v0.26458h-0.26458"/>
			<path d="m2.1875 0.78985h0.26458v0.26458h-0.26458"/>
			<path d="m1.9229 0.78985h0.26458v0.26458h-0.26458"/>
			<path d="m1.6583 0.78985h0.26458v0.26458h-0.26458"/>
			<path d="m1.3937 0.78985h0.26458v0.26458h-0.26458"/>
			<path d="m1.1291 0.78985h0.26458v0.26458h-0.26458"/>
			<path d="m0.86456 0.78985h0.26458v0.26458h-0.26458"/>
		</g>
		<path d="m0.59998 0.78985h0.26458v0.26458h-0.26458"/>
		<g fill-opacity="0">
			<path d="m0.33539 0.78985h0.26458v0.26458h-0.26458"/>
			<path d="m0.07081 0.78985h0.26458v0.26458h-0.26458"/>
			<path d="m6.4208 0.52527h0.26458v0.26458h-0.26458"/>
			<path d="m6.1562 0.52527h0.26458v0.26458h-0.26458"/>
			<path d="m5.8916 0.52527h0.26458v0.26458h-0.26458"/>
			<path d="m5.6271 0.52527h0.26458v0.26458h-0.26458"/>
			<path d="m5.3625 0.52527h0.26458v0.26458h-0.26458"/>
			<path d="m5.0979 0.52527h0.26458v0.26458h-0.26458"/>
			<path d="m4.8333 0.52527h0.26458v0.26458h-0.26458"/>
			<path d="m4.5687 0.52527h0.26458v0.26458h-0.26458"/>
		</g>
		<path d="m4.3041 0.52527h0.26458v0.26458h-0.26458"/>
		<g fill-opacity="0">
			<path d="m4.0396 0.52527h0.26458v0.26458h-0.26458"/>
			<path d="m3.775 0.52527h0.26458v0.26458h-0.26458"/>
			<path d="m3.5104 0.52527h0.26458v0.26458h-0.26458"/>
			<path d="m3.2458 0.52527h0.26458v0.26458h-0.26458"/>
			<path d="m2.9812 0.52527h0.26458v0.26458h-0.26458"/>
			<path d="m2.7166 0.52527h0.26458v0.26458h-0.26458"/>
			<path d="m2.4521 0.52527h0.26458v0.26458h-0.26458"/>
			<path d="m2.1875 0.52527h0.26458v0.26458h-0.26458"/>
			<path d="m1.9229 0.52527h0.26458v0.26458h-0.26458"/>
			<path d="m1.6583 0.52527h0.26458v0.26458h-0.26458"/>
			<path d="m1.3937 0.52527h0.26458v0.26458h-0.26458"/>
			<path d="m1.1291 0.52527h0.26458v0.26458h-0.26458"/>
			<path d="m0.86456 0.52527h0.26458v0.26458h-0.26458"/>
			<path d="m0.59998 0.52527h0.26458v0.26458h-0.26458"/>
			<path d="m0.33539 0.52527h0.26458v0.26458h-0.26458"/>
			<path d="m0.07081 0.52527h0.26458v0.26458h-0.26458"/>
		</g>
		<path d="m0.86456 2.3774h0.26458v0.26458h-0.26458" fill="#808080"/>
	</g>
</svg>
