<?xml version="1.0" encoding="UTF-8"?>
<svg width="50" height="35" version="1.1" viewBox="0 0 13.229 9.2604" xmlns="http://www.w3.org/2000/svg" xmlns:xlink="http://www.w3.org/1999/xlink">
	<defs>
		<radialGradient id="radialGradient11613" cx="6.6146" cy="5.3813" r="2.3812" gradientUnits="userSpaceOnUse">
			<stop stop-color="#e3ce9b" offset="0"/>
			<stop stop-color="#d9b652" offset="1"/>
		</radialGradient>
	</defs>
	<g fill-opacity="0">
		<path d="m8.7313 1.0583v-0.26458h0.26458v0.26458"/>
		<path d="m8.7313 1.3229v-0.26458h0.26458v0.26458"/>
		<path d="m8.7313 1.5875v-0.26458h0.26458v0.26458"/>
		<path d="m8.7313 1.8521v-0.26458h0.26458v0.26458"/>
		<path d="m8.7313 2.1167v-0.26458h0.26458v0.26458"/>
		<path d="m8.7313 2.3812v-0.26458h0.26458v0.26458"/>
		<path d="m8.7313 2.6458v-0.26458h0.26458v0.26458"/>
		<path d="m8.7313 2.9104v-0.26458h0.26458v0.26458"/>
	</g>
	<path d="m8.7313 3.175v-0.26458h0.26458v0.26458" fill="#333" fill-rule="evenodd"/>
	<g fill-opacity="0">
		<path d="m8.7313 3.4396v-0.26458h0.26458v0.26458"/>
		<path d="m8.7313 3.7042v-0.26458h0.26458v0.26458"/>
		<path d="m8.7313 3.9688v-0.26458h0.26458v0.26458"/>
		<path d="m8.7313 4.2333v-0.26458h0.26458v0.26458"/>
		<path d="m8.7313 4.4979v-0.26458h0.26458v0.26458"/>
		<path d="m8.7313 4.7625v-0.26458h0.26458v0.26458"/>
		<path d="m8.7313 5.0271v-0.26458h0.26458v0.26458"/>
		<path d="m8.7313 5.2917v-0.26458h0.26458v0.26458"/>
		<path d="m8.7313 5.5563v-0.26458h0.26458v0.26458"/>
		<path d="m8.7313 5.8208v-0.26458h0.26458v0.26458"/>
		<path d="m8.7313 6.0854v-0.26458h0.26458v0.26458"/>
		<path d="m8.7313 6.35v-0.26458h0.26458v0.26458"/>
		<path d="m8.7313 6.6146v-0.26458h0.26458v0.26458"/>
		<path d="m8.7313 6.8792v-0.26458h0.26458v0.26458"/>
		<path d="m8.7313 7.1438v-0.26458h0.26458v0.26458"/>
		<path d="m8.7313 7.4083v-0.26458h0.26458v0.26458"/>
		<path d="m8.4667 1.0583v-0.26458h0.26458v0.26458"/>
		<path d="m8.4667 1.3229v-0.26458h0.26458v0.26458"/>
		<path d="m8.4667 1.5875v-0.26458h0.26458v0.26458"/>
		<path d="m8.4667 1.8521v-0.26458h0.26458v0.26458"/>
		<path d="m8.4667 2.1167v-0.26458h0.26458v0.26458"/>
		<path d="m8.4667 2.3812v-0.26458h0.26458v0.26458"/>
		<path d="m8.4667 2.6458v-0.26458h0.26458v0.26458"/>
	</g>
	<g fill="#333" fill-rule="evenodd">
		<path d="m8.4667 2.9104v-0.26458h0.26458v0.26458"/>
		<path d="m8.4667 3.175v-0.26458h0.26458v0.26458"/>
		<path d="m8.4667 3.4396v-0.26458h0.26458v0.26458"/>
	</g>
	<g fill-opacity="0">
		<path d="m8.4667 3.7042v-0.26458h0.26458v0.26458"/>
		<path d="m8.4667 3.9688v-0.26458h0.26458v0.26458"/>
		<path d="m8.4667 4.2333v-0.26458h0.26458v0.26458"/>
		<path d="m8.4667 4.4979v-0.26458h0.26458v0.26458"/>
		<path d="m8.4667 4.7625v-0.26458h0.26458v0.26458"/>
		<path d="m8.4667 5.0271v-0.26458h0.26458v0.26458"/>
		<path d="m8.4667 5.2917v-0.26458h0.26458v0.26458"/>
		<path d="m8.4667 5.5563v-0.26458h0.26458v0.26458"/>
		<path d="m8.4667 5.8208v-0.26458h0.26458v0.26458"/>
		<path d="m8.4667 6.0854v-0.26458h0.26458v0.26458"/>
		<path d="m8.4667 6.35v-0.26458h0.26458v0.26458"/>
		<path d="m8.4667 6.6146v-0.26458h0.26458v0.26458"/>
		<path d="m8.4667 7.1438v-0.26458h0.26458v0.26458"/>
		<path d="m8.4667 7.4083v-0.26458h0.26458v0.26458"/>
		<path d="m8.2021 1.0583v-0.26458h0.26458v0.26458"/>
		<path d="m8.2021 1.3229v-0.26458h0.26458v0.26458"/>
		<path d="m8.2021 1.5875v-0.26458h0.26458v0.26458"/>
		<path d="m8.2021 1.8521v-0.26458h0.26458v0.26458"/>
		<path d="m8.2021 2.1167v-0.26458h0.26458v0.26458"/>
		<path d="m8.2021 2.3812v-0.26458h0.26458v0.26458"/>
		<path d="m8.2021 2.6458v-0.26458h0.26458v0.26458"/>
	</g>
	<g fill="#333" fill-rule="evenodd">
		<path d="m8.2021 2.9104v-0.26458h0.26458v0.26458"/>
		<path d="m8.2021 3.175v-0.26458h0.26458v0.26458"/>
		<path d="m8.2021 3.4396v-0.26458h0.26458v0.26458"/>
		<path d="m8.2021 3.7042v-0.26458h0.26458v0.26458"/>
	</g>
	<path d="m8.2021 3.9688v-0.26458h0.26458v0.26458" fill-opacity="0"/>
	<path d="m8.2021 4.2333v-0.26458h0.26458v0.26458" fill-opacity="0"/>
	<g fill-rule="evenodd">
		<path d="m8.2021 4.4979v-0.26458h0.26458v0.26458"/>
		<path d="m8.2021 4.7625v-0.26458h0.26458v0.26458"/>
		<path d="m8.2021 5.0271v-0.26458h0.26458v0.26458"/>
		<path d="m8.2021 5.2917v-0.26458h0.26458v0.26458"/>
	</g>
	<g fill-opacity="0">
		<path d="m8.2021 5.5563v-0.26458h0.26458v0.26458"/>
		<path d="m8.2021 5.8208v-0.26458h0.26458v0.26458"/>
		<path d="m8.2021 6.0854v-0.26458h0.26458v0.26458"/>
		<path d="m8.2021 6.35v-0.26458h0.26458v0.26458"/>
	</g>
	<path d="m8.2021 6.6146v-0.26458h0.26458v0.26458"/>
	<g fill-opacity="0">
		<path d="m8.2021 7.4083v-0.26458h0.26458v0.26458"/>
		<path d="m7.9375 1.0583v-0.26458h0.26458v0.26458"/>
		<path d="m7.9375 1.3229v-0.26458h0.26458v0.26458"/>
		<path d="m7.9375 1.5875v-0.26458h0.26458v0.26458"/>
		<path d="m7.9375 1.8521v-0.26458h0.26458v0.26458"/>
		<path d="m7.9375 2.1167v-0.26458h0.26458v0.26458"/>
		<path d="m7.9375 2.3812v-0.26458h0.26458v0.26458"/>
		<path d="m7.9375 2.6458v-0.26458h0.26458v0.26458"/>
		<path d="m7.9375 2.9104v-0.26458h0.26458v0.26458"/>
	</g>
	<g fill="#333" fill-rule="evenodd">
		<path d="m7.9375 3.175v-0.26458h0.26458v0.26458"/>
		<path d="m7.9375 3.4396v-0.26458h0.26458v0.26458"/>
		<path d="m7.9375 3.7042v-0.26458h0.26458v0.26458"/>
		<path d="m7.9375 3.9688v-0.26458h0.26458v0.26458"/>
		<path d="m7.9375 4.2333v-0.26458h0.26458v0.26458"/>
	</g>
	<g fill-rule="evenodd">
		<path d="m7.9375 4.4979v-0.26458h0.26458v0.26458"/>
		<path d="m7.9375 4.7625v-0.26458h0.26458v0.26458"/>
		<path d="m7.9375 5.0271v-0.26458h0.26458v0.26458"/>
		<path d="m7.9375 5.2917v-0.26458h0.26458v0.26458"/>
		<path d="m7.9375 5.5563v-0.26458h0.26458v0.26458"/>
		<path d="m7.9375 5.8208v-0.26458h0.26458v0.26458"/>
	</g>
	<path d="m7.9375 6.0854v-0.26458h0.26458v0.26458" fill-opacity="0"/>
	<g>
		<path d="m7.9375 6.35v-0.26458h0.26458v0.26458"/>
		<path d="m7.9375 6.6146v-0.26458h0.26458v0.26458"/>
		<path d="m7.9375 6.8792v-0.26458h0.26458v0.26458"/>
	</g>
	<g fill-opacity="0">
		<path d="m7.6729 1.0583v-0.26458h0.26458v0.26458"/>
		<path d="m7.6729 1.3229v-0.26458h0.26458v0.26458"/>
		<path d="m7.6729 1.5875v-0.26458h0.26458v0.26458"/>
		<path d="m7.6729 1.8521v-0.26458h0.26458v0.26458"/>
		<path d="m7.6729 2.1167v-0.26458h0.26458v0.26458"/>
		<path d="m7.6729 2.3812v-0.26458h0.26458v0.26458"/>
		<path d="m7.6729 2.6458v-0.26458h0.26458v0.26458"/>
		<path d="m7.6729 2.9104v-0.26458h0.26458v0.26458"/>
	</g>
	<g fill="#333" fill-rule="evenodd">
		<path d="m7.6729 3.175v-0.26458h0.26458v0.26458"/>
		<path d="m7.6729 3.4396v-0.26458h0.26458v0.26458"/>
		<path d="m7.6729 3.7042v-0.26458h0.26458v0.26458"/>
		<path d="m7.6729 3.9688v-0.26458h0.26458v0.26458"/>
		<path d="m7.6729 4.2333v-0.26458h0.26458v0.26458"/>
	</g>
	<g>
		<g fill-rule="evenodd">
			<path d="m7.6729 4.4979v-0.26458h0.26458v0.26458"/>
			<path d="m7.6729 4.7625v-0.26458h0.26458v0.26458"/>
			<path d="m7.6729 5.0271v-0.26458h0.26458v0.26458"/>
			<path d="m7.6729 5.2917v-0.26458h0.26458v0.26458"/>
			<path d="m7.6729 5.5563v-0.26458h0.26458v0.26458"/>
			<path d="m7.6729 5.8208v-0.26458h0.26458v0.26458"/>
		</g>
		<path d="m7.6729 6.0854v-0.26458h0.26458v0.26458"/>
		<path d="m7.6729 6.35v-0.26458h0.26458v0.26458"/>
		<path d="m7.6729 6.6146v-0.26458h0.26458v0.26458"/>
		<path d="m7.6729 6.8792v-0.26458h0.26458v0.26458"/>
		<path d="m7.6729 7.1438v-0.26458h0.26458v0.26458"/>
	</g>
	<g fill-opacity="0">
		<path d="m7.6729 7.4083v-0.26458h0.26458v0.26458"/>
		<path d="m7.4083 1.0583v-0.26458h0.26458v0.26458"/>
		<path d="m7.4083 1.3229v-0.26458h0.26458v0.26458"/>
		<path d="m7.4083 1.5875v-0.26458h0.26458v0.26458"/>
		<path d="m7.4083 1.8521v-0.26458h0.26458v0.26458"/>
		<path d="m7.4083 2.1167v-0.26458h0.26458v0.26458"/>
		<path d="m7.4083 2.3812v-0.26458h0.26458v0.26458"/>
		<path d="m7.4083 2.6458v-0.26458h0.26458v0.26458"/>
		<path d="m7.4083 2.9104v-0.26458h0.26458v0.26458"/>
		<path d="m7.4083 3.175v-0.26458h0.26458v0.26458"/>
	</g>
	<g fill="#333" fill-rule="evenodd">
		<path d="m7.4083 3.4396v-0.26458h0.26458v0.26458"/>
		<path d="m7.4083 3.7042v-0.26458h0.26458v0.26458"/>
		<path d="m7.4083 3.9688v-0.26458h0.26458v0.26458"/>
		<path d="m7.4083 4.2333v-0.26458h0.26458v0.26458"/>
	</g>
	<g>
		<g fill-rule="evenodd">
			<path d="m7.4083 4.4979v-0.26458h0.26458v0.26458"/>
			<path d="m7.4083 4.7625v-0.26458h0.26458v0.26458"/>
			<path d="m7.4083 5.0271v-0.26458h0.26458v0.26458"/>
			<path d="m7.4083 5.2917v-0.26458h0.26458v0.26458"/>
			<path d="m7.4083 5.5563v-0.26458h0.26458v0.26458"/>
			<path d="m7.4083 5.8208v-0.26458h0.26458v0.26458"/>
		</g>
		<path d="m7.4083 6.0854v-0.26458h0.26458v0.26458"/>
		<path d="m7.4083 6.35v-0.26458h0.26458v0.26458"/>
		<path d="m7.4083 6.6146v-0.26458h0.26458v0.26458"/>
	</g>
	<g fill-opacity="0">
		<path d="m7.4083 6.8792v-0.26458h0.26458v0.26458"/>
		<path d="m7.4083 7.1438v-0.26458h0.26458v0.26458"/>
		<path d="m7.4083 7.4083v-0.26458h0.26458v0.26458"/>
		<path d="m7.1438 1.0583v-0.26458h0.26458v0.26458"/>
		<path d="m7.1438 1.3229v-0.26458h0.26458v0.26458"/>
		<path d="m7.1438 1.5875v-0.26458h0.26458v0.26458"/>
		<path d="m7.1438 1.8521v-0.26458h0.26458v0.26458"/>
		<path d="m7.1438 2.1167v-0.26458h0.26458v0.26458"/>
		<path d="m7.1438 2.3812v-0.26458h0.26458v0.26458"/>
		<path d="m7.1438 2.6458v-0.26458h0.26458v0.26458"/>
		<path d="m7.1438 2.9104v-0.26458h0.26458v0.26458"/>
	</g>
	<g fill="#333" fill-rule="evenodd">
		<path d="m7.1438 3.175v-0.26458h0.26458v0.26458"/>
		<path d="m7.1438 3.4396v-0.26458h0.26458v0.26458"/>
		<path d="m7.1438 3.7042v-0.26458h0.26458v0.26458"/>
		<path d="m7.1438 3.9688v-0.26458h0.26458v0.26458"/>
		<path d="m7.1438 4.2333v-0.26458h0.26458v0.26458"/>
	</g>
	<g>
		<g fill-rule="evenodd">
			<path d="m7.1438 4.4979v-0.26458h0.26458v0.26458"/>
			<path d="m7.1438 4.7625v-0.26458h0.26458v0.26458"/>
			<path d="m7.1438 5.0271v-0.26458h0.26458v0.26458"/>
			<path d="m7.1438 5.2917v-0.26458h0.26458v0.26458"/>
			<path d="m7.1438 5.5563v-0.26458h0.26458v0.26458"/>
			<path d="m7.1438 5.8208v-0.26458h0.26458v0.26458"/>
		</g>
		<path d="m7.1438 6.0854v-0.26458h0.26458v0.26458"/>
		<path d="m7.1438 6.35v-0.26458h0.26458v0.26458"/>
		<path d="m7.1438 6.6146v-0.26458h0.26458v0.26458"/>
		<path d="m7.1438 6.8792v-0.26458h0.26458v0.26458"/>
	</g>
	<g fill-opacity="0">
		<path d="m7.1438 7.1438v-0.26458h0.26458v0.26458"/>
		<path d="m7.1438 7.4083v-0.26458h0.26458v0.26458"/>
		<path d="m6.8792 1.0583v-0.26458h0.26458v0.26458"/>
		<path d="m6.8792 1.3229v-0.26458h0.26458v0.26458"/>
	</g>
	<g fill="#333" fill-rule="evenodd">
		<path d="m6.8792 1.5875v-0.26458h0.26458v0.26458"/>
		<path d="m6.8792 1.8521v-0.26458h0.26458v0.26458"/>
		<path d="m6.8792 2.1167v-0.26458h0.26458v0.26458"/>
	</g>
	<path d="m6.8792 2.3812v-0.26458h0.26458v0.26458" fill-opacity="0"/>
	<path d="m6.8792 2.6458v-0.26458h0.26458v0.26458" fill-opacity="0"/>
	<g fill="#333" fill-rule="evenodd">
		<path d="m6.8792 2.9104v-0.26458h0.26458v0.26458"/>
		<path d="m6.8792 3.175v-0.26458h0.26458v0.26458"/>
		<path d="m6.8792 3.4396v-0.26458h0.26458v0.26458"/>
		<path d="m6.8792 3.7042v-0.26458h0.26458v0.26458"/>
		<path d="m6.8792 3.9688v-0.26458h0.26458v0.26458"/>
		<path d="m6.8792 4.2333v-0.26458h0.26458v0.26458"/>
	</g>
	<g>
		<g fill-rule="evenodd">
			<path d="m6.8792 4.4979v-0.26458h0.26458v0.26458"/>
			<path d="m6.8792 4.7625v-0.26458h0.26458v0.26458"/>
			<path d="m6.8792 5.0271v-0.26458h0.26458v0.26458"/>
			<path d="m6.8792 5.2917v-0.26458h0.26458v0.26458"/>
			<path d="m6.8792 5.5563v-0.26458h0.26458v0.26458"/>
			<path d="m6.8792 5.8208v-0.26458h0.26458v0.26458"/>
		</g>
		<path d="m6.8792 6.0854v-0.26458h0.26458v0.26458"/>
		<path d="m6.8792 6.35v-0.26458h0.26458v0.26458"/>
		<path d="m6.8792 6.6146v-0.26458h0.26458v0.26458"/>
		<path d="m6.8792 6.8792v-0.26458h0.26458v0.26458"/>
	</g>
	<g fill-opacity="0">
		<path d="m6.8792 7.1438v-0.26458h0.26458v0.26458"/>
		<path d="m6.8792 7.4083v-0.26458h0.26458v0.26458"/>
		<path d="m6.6146 1.0583v-0.26458h0.26458v0.26458"/>
	</g>
	<g fill="#333" fill-rule="evenodd">
		<path d="m6.6146 1.3229v-0.26458h0.26458v0.26458"/>
		<path d="m6.6146 1.5875v-0.26458h0.26458v0.26458"/>
		<path d="m6.6146 1.8521v-0.26458h0.26458v0.26458"/>
		<path d="m6.6146 2.1167v-0.26458h0.26458v0.26458"/>
		<path d="m6.6146 2.3812v-0.26458h0.26458v0.26458"/>
		<path d="m6.6146 2.6458v-0.26458h0.26458v0.26458"/>
		<path d="m6.6146 2.9104v-0.26458h0.26458v0.26458"/>
		<path d="m6.6146 3.175v-0.26458h0.26458v0.26458"/>
		<path d="m6.6146 3.4396v-0.26458h0.26458v0.26458"/>
		<path d="m6.6146 3.7042v-0.26458h0.26458v0.26458"/>
		<path d="m6.6146 3.9688v-0.26458h0.26458v0.26458"/>
		<path d="m6.6146 4.2333v-0.26458h0.26458v0.26458"/>
	</g>
	<g>
		<g fill-rule="evenodd">
			<path d="m6.6146 4.4979v-0.26458h0.26458v0.26458"/>
			<path d="m6.6146 4.7625v-0.26458h0.26458v0.26458"/>
			<path d="m6.6146 5.0271v-0.26458h0.26458v0.26458"/>
			<path d="m6.6146 5.2917v-0.26458h0.26458v0.26458"/>
			<path d="m6.6146 5.5563v-0.26458h0.26458v0.26458"/>
			<path d="m6.6146 5.8208v-0.26458h0.26458v0.26458"/>
		</g>
		<path d="m6.6146 6.0854v-0.26458h0.26458v0.26458"/>
		<path d="m6.6146 6.35v-0.26458h0.26458v0.26458"/>
		<path d="m6.6146 6.6146v-0.26458h0.26458v0.26458"/>
		<path d="m6.6146 6.8792v-0.26458h0.26458v0.26458"/>
		<path d="m6.6146 7.1438v-0.26458h0.26458v0.26458"/>
	</g>
	<path d="m6.6146 7.4083v-0.26458h0.26458v0.26458" fill-opacity="0"/>
	<g fill="#333" fill-rule="evenodd">
		<path d="m6.35 1.0583v-0.26458h0.26458v0.26458"/>
		<path d="m6.35 1.3229v-0.26458h0.26458v0.26458"/>
		<path d="m6.35 1.5875v-0.26458h0.26458v0.26458"/>
		<path d="m6.35 1.8521v-0.26458h0.26458v0.26458"/>
		<path d="m6.35 2.1167v-0.26458h0.26458v0.26458"/>
		<path d="m6.35 2.3812v-0.26458h0.26458v0.26458"/>
		<path d="m6.35 2.6458v-0.26458h0.26458v0.26458"/>
		<path d="m6.35 2.9104v-0.26458h0.26458v0.26458"/>
		<path d="m6.35 3.175v-0.26458h0.26458v0.26458"/>
		<path d="m6.35 3.4396v-0.26458h0.26458v0.26458"/>
		<path d="m6.35 3.7042v-0.26458h0.26458v0.26458"/>
		<path d="m6.35 3.9688v-0.26458h0.26458v0.26458"/>
		<path d="m6.35 4.2333v-0.26458h0.26458v0.26458"/>
	</g>
	<g>
		<g fill-rule="evenodd">
			<path d="m6.35 4.4979v-0.26458h0.26458v0.26458"/>
			<path d="m6.35 4.7625v-0.26458h0.26458v0.26458"/>
			<path d="m6.35 5.0271v-0.26458h0.26458v0.26458"/>
			<path d="m6.35 5.2917v-0.26458h0.26458v0.26458"/>
			<path d="m6.35 5.5563v-0.26458h0.26458v0.26458"/>
			<path d="m6.35 5.8208v-0.26458h0.26458v0.26458"/>
		</g>
		<path d="m6.35 6.0854v-0.26458h0.26458v0.26458"/>
		<path d="m6.35 6.35v-0.26458h0.26458v0.26458"/>
		<path d="m6.35 6.6146v-0.26458h0.26458v0.26458"/>
		<path d="m6.35 6.8792v-0.26458h0.26458v0.26458"/>
		<path d="m6.35 7.1438v-0.26458h0.26458v0.26458"/>
	</g>
	<path d="m6.35 7.4083v-0.26458h0.26458v0.26458" fill-opacity="0"/>
	<path d="m6.0854 1.0583v-0.26458h0.26458v0.26458" fill-opacity="0"/>
	<g fill="#333" fill-rule="evenodd">
		<path d="m6.0854 1.3229v-0.26458h0.26458v0.26458"/>
		<path d="m6.0854 1.5875v-0.26458h0.26458v0.26458"/>
		<path d="m6.0854 1.8521v-0.26458h0.26458v0.26458"/>
		<path d="m6.0854 2.1167v-0.26458h0.26458v0.26458"/>
		<path d="m6.0854 2.3812v-0.26458h0.26458v0.26458"/>
		<path d="m6.0854 2.6458v-0.26458h0.26458v0.26458"/>
		<path d="m6.0854 2.9104v-0.26458h0.26458v0.26458"/>
		<path d="m6.0854 3.175v-0.26458h0.26458v0.26458"/>
		<path d="m6.0854 3.4396v-0.26458h0.26458v0.26458"/>
		<path d="m6.0854 3.7042v-0.26458h0.26458v0.26458"/>
		<path d="m6.0854 3.9688v-0.26458h0.26458v0.26458"/>
		<path d="m6.0854 4.2333v-0.26458h0.26458v0.26458"/>
	</g>
	<g>
		<g fill-rule="evenodd">
			<path d="m6.0854 4.4979v-0.26458h0.26458v0.26458"/>
			<path d="m6.0854 4.7625v-0.26458h0.26458v0.26458"/>
			<path d="m6.0854 5.0271v-0.26458h0.26458v0.26458"/>
			<path d="m6.0854 5.2917v-0.26458h0.26458v0.26458"/>
			<path d="m6.0854 5.5563v-0.26458h0.26458v0.26458"/>
			<path d="m6.0854 5.8208v-0.26458h0.26458v0.26458"/>
		</g>
		<path d="m6.0854 6.0854v-0.26458h0.26458v0.26458"/>
		<path d="m6.0854 6.35v-0.26458h0.26458v0.26458"/>
		<path d="m6.0854 6.6146v-0.26458h0.26458v0.26458"/>
		<path d="m6.0854 6.8792v-0.26458h0.26458v0.26458"/>
		<path d="m6.0854 7.1438v-0.26458h0.26458v0.26458"/>
	</g>
	<g fill-opacity="0">
		<path d="m6.0854 7.4083v-0.26458h0.26458v0.26458"/>
		<path d="m5.8208 1.0583v-0.26458h0.26458v0.26458"/>
		<path d="m5.8208 1.3229v-0.26458h0.26458v0.26458"/>
	</g>
	<g fill="#333" fill-rule="evenodd">
		<path d="m5.8208 1.5875v-0.26458h0.26458v0.26458"/>
		<path d="m5.8208 1.8521v-0.26458h0.26458v0.26458"/>
		<path d="m5.8208 2.1167v-0.26458h0.26458v0.26458"/>
	</g>
	<path d="m5.8208 2.3812v-0.26458h0.26458v0.26458" fill-opacity="0"/>
	<path d="m5.8208 2.6458v-0.26458h0.26458v0.26458" fill-opacity="0"/>
	<g fill="#333" fill-rule="evenodd">
		<path d="m5.8208 2.9104v-0.26458h0.26458v0.26458"/>
		<path d="m5.8208 3.175v-0.26458h0.26458v0.26458"/>
		<path d="m5.8208 3.4396v-0.26458h0.26458v0.26458"/>
		<path d="m5.8208 3.7042v-0.26458h0.26458v0.26458"/>
		<path d="m5.8208 3.9688v-0.26458h0.26458v0.26458"/>
		<path d="m5.8208 4.2333v-0.26458h0.26458v0.26458"/>
	</g>
	<g>
		<g fill-rule="evenodd">
			<path d="m5.8208 4.4979v-0.26458h0.26458v0.26458"/>
			<path d="m5.8208 4.7625v-0.26458h0.26458v0.26458"/>
			<path d="m5.8208 5.0271v-0.26458h0.26458v0.26458"/>
			<path d="m5.8208 5.2917v-0.26458h0.26458v0.26458"/>
			<path d="m5.8208 5.5563v-0.26458h0.26458v0.26458"/>
			<path d="m5.8208 5.8208v-0.26458h0.26458v0.26458"/>
		</g>
		<path d="m5.8208 6.0854v-0.26458h0.26458v0.26458"/>
		<path d="m5.8208 6.35v-0.26458h0.26458v0.26458"/>
		<path d="m5.8208 6.6146v-0.26458h0.26458v0.26458"/>
		<path d="m5.8208 6.8792v-0.26458h0.26458v0.26458"/>
	</g>
	<g fill-opacity="0">
		<path d="m5.8208 7.1438v-0.26458h0.26458v0.26458"/>
		<path d="m5.8208 7.4083v-0.26458h0.26458v0.26458"/>
		<path d="m5.5562 1.0583v-0.26458h0.26458v0.26458"/>
		<path d="m5.5562 1.3229v-0.26458h0.26458v0.26458"/>
		<path d="m5.5562 1.5875v-0.26458h0.26458v0.26458"/>
		<path d="m5.5562 1.8521v-0.26458h0.26458v0.26458"/>
		<path d="m5.5562 2.1167v-0.26458h0.26458v0.26458"/>
		<path d="m5.5562 2.3812v-0.26458h0.26458v0.26458"/>
		<path d="m5.5562 2.6458v-0.26458h0.26458v0.26458"/>
		<path d="m5.5562 2.9104v-0.26458h0.26458v0.26458"/>
	</g>
	<g fill="#333" fill-rule="evenodd">
		<path d="m5.5562 3.175v-0.26458h0.26458v0.26458"/>
		<path d="m5.5562 3.4396v-0.26458h0.26458v0.26458"/>
		<path d="m5.5562 3.7042v-0.26458h0.26458v0.26458"/>
		<path d="m5.5562 3.9688v-0.26458h0.26458v0.26458"/>
		<path d="m5.5562 4.2333v-0.26458h0.26458v0.26458"/>
	</g>
	<g>
		<g fill-rule="evenodd">
			<path d="m5.5562 4.4979v-0.26458h0.26458v0.26458"/>
			<path d="m5.5562 4.7625v-0.26458h0.26458v0.26458"/>
			<path d="m5.5562 5.0271v-0.26458h0.26458v0.26458"/>
			<path d="m5.5562 5.2917v-0.26458h0.26458v0.26458"/>
			<path d="m5.5562 5.5563v-0.26458h0.26458v0.26458"/>
			<path d="m5.5562 5.8208v-0.26458h0.26458v0.26458"/>
		</g>
		<path d="m5.5562 6.0854v-0.26458h0.26458v0.26458"/>
		<path d="m5.5562 6.35v-0.26458h0.26458v0.26458"/>
		<path d="m5.5562 6.6146v-0.26458h0.26458v0.26458"/>
		<path d="m5.5562 6.8792v-0.26458h0.26458v0.26458"/>
	</g>
	<g fill-opacity="0">
		<path d="m5.5562 7.1438v-0.26458h0.26458v0.26458"/>
		<path d="m5.5562 7.4083v-0.26458h0.26458v0.26458"/>
		<path d="m5.2917 1.0583v-0.26458h0.26458v0.26458"/>
		<path d="m5.2917 1.3229v-0.26458h0.26458v0.26458"/>
		<path d="m5.2917 1.5875v-0.26458h0.26458v0.26458"/>
		<path d="m5.2917 1.8521v-0.26458h0.26458v0.26458"/>
		<path d="m5.2917 2.1167v-0.26458h0.26458v0.26458"/>
		<path d="m5.2917 2.3812v-0.26458h0.26458v0.26458"/>
		<path d="m5.2917 2.6458v-0.26458h0.26458v0.26458"/>
		<path d="m5.2917 2.9104v-0.26458h0.26458v0.26458"/>
		<path d="m5.2917 3.175v-0.26458h0.26458v0.26458"/>
	</g>
	<g fill="#333" fill-rule="evenodd">
		<path d="m5.2917 3.4396v-0.26458h0.26458v0.26458"/>
		<path d="m5.2917 3.7042v-0.26458h0.26458v0.26458"/>
		<path d="m5.2917 3.9688v-0.26458h0.26458v0.26458"/>
		<path d="m5.2917 4.2333v-0.26458h0.26458v0.26458"/>
	</g>
	<g>
		<g fill-rule="evenodd">
			<path d="m5.2917 4.4979v-0.26458h0.26458v0.26458"/>
			<path d="m5.2917 4.7625v-0.26458h0.26458v0.26458"/>
			<path d="m5.2917 5.0271v-0.26458h0.26458v0.26458"/>
			<path d="m5.2917 5.2917v-0.26458h0.26458v0.26458"/>
			<path d="m5.2917 5.5563v-0.26458h0.26458v0.26458"/>
			<path d="m5.2917 5.8208v-0.26458h0.26458v0.26458"/>
		</g>
		<path d="m5.2917 6.0854v-0.26458h0.26458v0.26458"/>
		<path d="m5.2917 6.35v-0.26458h0.26458v0.26458"/>
		<path d="m5.2917 6.6146v-0.26458h0.26458v0.26458"/>
	</g>
	<g fill-opacity="0">
		<path d="m5.2917 6.8792v-0.26458h0.26458v0.26458"/>
		<path d="m5.2917 7.1438v-0.26458h0.26458v0.26458"/>
		<path d="m5.2917 7.4083v-0.26458h0.26458v0.26458"/>
		<path d="m5.0271 1.0583v-0.26458h0.26458v0.26458"/>
		<path d="m5.0271 1.3229v-0.26458h0.26458v0.26458"/>
		<path d="m5.0271 1.5875v-0.26458h0.26458v0.26458"/>
		<path d="m5.0271 1.8521v-0.26458h0.26458v0.26458"/>
		<path d="m5.0271 2.1167v-0.26458h0.26458v0.26458"/>
		<path d="m5.0271 2.3812v-0.26458h0.26458v0.26458"/>
		<path d="m5.0271 2.6458v-0.26458h0.26458v0.26458"/>
		<path d="m5.0271 2.9104v-0.26458h0.26458v0.26458"/>
	</g>
	<g fill="#333" fill-rule="evenodd">
		<path d="m5.0271 3.175v-0.26458h0.26458v0.26458"/>
		<path d="m5.0271 3.4396v-0.26458h0.26458v0.26458"/>
		<path d="m5.0271 3.7042v-0.26458h0.26458v0.26458"/>
		<path d="m5.0271 3.9688v-0.26458h0.26458v0.26458"/>
		<path d="m5.0271 4.2333v-0.26458h0.26458v0.26458"/>
	</g>
	<g>
		<g fill-rule="evenodd">
			<path d="m5.0271 4.4979v-0.26458h0.26458v0.26458"/>
			<path d="m5.0271 4.7625v-0.26458h0.26458v0.26458"/>
			<path d="m5.0271 5.0271v-0.26458h0.26458v0.26458"/>
			<path d="m5.0271 5.2917v-0.26458h0.26458v0.26458"/>
			<path d="m5.0271 5.5563v-0.26458h0.26458v0.26458"/>
			<path d="m5.0271 5.8208v-0.26458h0.26458v0.26458"/>
		</g>
		<path d="m5.0271 6.0854v-0.26458h0.26458v0.26458"/>
		<path d="m5.0271 6.35v-0.26458h0.26458v0.26458"/>
		<path d="m5.0271 6.6146v-0.26458h0.26458v0.26458"/>
		<path d="m5.0271 6.8792v-0.26458h0.26458v0.26458"/>
	</g>
	<g fill-opacity="0">
		<path d="m5.0271 7.4083v-0.26458h0.26458v0.26458"/>
		<path d="m4.7625 1.0583v-0.26458h0.26458v0.26458"/>
		<path d="m4.7625 1.3229v-0.26458h0.26458v0.26458"/>
		<path d="m4.7625 1.5875v-0.26458h0.26458v0.26458"/>
		<path d="m4.7625 1.8521v-0.26458h0.26458v0.26458"/>
		<path d="m4.7625 2.1167v-0.26458h0.26458v0.26458"/>
		<path d="m4.7625 2.3812v-0.26458h0.26458v0.26458"/>
		<path d="m4.7625 2.6458v-0.26458h0.26458v0.26458"/>
		<path d="m4.7625 2.9104v-0.26458h0.26458v0.26458"/>
	</g>
	<g fill="#333" fill-rule="evenodd">
		<path d="m4.7625 3.175v-0.26458h0.26458v0.26458"/>
		<path d="m4.7625 3.4396v-0.26458h0.26458v0.26458"/>
		<path d="m4.7625 3.7042v-0.26458h0.26458v0.26458"/>
		<path d="m4.7625 3.9688v-0.26458h0.26458v0.26458"/>
		<path d="m4.7625 4.2333v-0.26458h0.26458v0.26458"/>
	</g>
	<g fill-rule="evenodd">
		<path d="m4.7625 4.4979v-0.26458h0.26458v0.26458"/>
		<path d="m4.7625 4.7625v-0.26458h0.26458v0.26458"/>
		<path d="m4.7625 5.0271v-0.26458h0.26458v0.26458"/>
		<path d="m4.7625 5.2917v-0.26458h0.26458v0.26458"/>
		<path d="m4.7625 5.5563v-0.26458h0.26458v0.26458"/>
		<path d="m4.7625 5.8208v-0.26458h0.26458v0.26458"/>
	</g>
	<g>
		<path d="m4.7625 6.0854v-0.26458h0.26458v0.26458" fill-opacity="0"/>
		<path d="m4.7625 6.35v-0.26458h0.26458v0.26458"/>
		<path d="m4.7625 6.6146v-0.26458h0.26458v0.26458"/>
	</g>
	<g fill-opacity="0">
		<path d="m4.4979 1.0583v-0.26458h0.26458v0.26458"/>
		<path d="m4.4979 1.3229v-0.26458h0.26458v0.26458"/>
		<path d="m4.4979 1.5875v-0.26458h0.26458v0.26458"/>
		<path d="m4.4979 1.8521v-0.26458h0.26458v0.26458"/>
		<path d="m4.4979 2.1167v-0.26458h0.26458v0.26458"/>
		<path d="m4.4979 2.3812v-0.26458h0.26458v0.26458"/>
		<path d="m4.4979 2.6458v-0.26458h0.26458v0.26458"/>
	</g>
	<g fill="#333" fill-rule="evenodd">
		<path d="m4.4979 2.9104v-0.26458h0.26458v0.26458"/>
		<path d="m4.4979 3.175v-0.26458h0.26458v0.26458"/>
		<path d="m4.4979 3.4396v-0.26458h0.26458v0.26458"/>
		<path d="m4.4979 3.7042v-0.26458h0.26458v0.26458"/>
	</g>
	<path d="m4.4979 3.9688v-0.26458h0.26458v0.26458" fill-opacity="0"/>
	<path d="m4.4979 4.2333v-0.26458h0.26458v0.26458" fill-opacity="0"/>
	<g fill-rule="evenodd">
		<path d="m4.4979 4.4979v-0.26458h0.26458v0.26458"/>
		<path d="m4.4979 4.7625v-0.26458h0.26458v0.26458"/>
		<path d="m4.4979 5.0271v-0.26458h0.26458v0.26458"/>
		<path d="m4.4979 5.2917v-0.26458h0.26458v0.26458"/>
	</g>
	<g fill-opacity="0">
		<path d="m4.4979 5.5563v-0.26458h0.26458v0.26458"/>
		<path d="m4.4979 5.8208v-0.26458h0.26458v0.26458"/>
		<path d="m4.4979 6.0854v-0.26458h0.26458v0.26458"/>
		<path d="m4.4979 6.35v-0.26458h0.26458v0.26458"/>
		<path d="m4.4979 7.4083v-0.26458h0.26458v0.26458"/>
		<path d="m4.2333 1.0583v-0.26458h0.26458v0.26458"/>
		<path d="m4.2333 1.3229v-0.26458h0.26458v0.26458"/>
		<path d="m4.2333 1.5875v-0.26458h0.26458v0.26458"/>
		<path d="m4.2333 1.8521v-0.26458h0.26458v0.26458"/>
		<path d="m4.2333 2.1167v-0.26458h0.26458v0.26458"/>
		<path d="m4.2333 2.3812v-0.26458h0.26458v0.26458"/>
		<path d="m4.2333 2.6458v-0.26458h0.26458v0.26458"/>
	</g>
	<g fill="#333" fill-rule="evenodd">
		<path d="m4.2333 2.9104v-0.26458h0.26458v0.26458"/>
		<path d="m4.2333 3.175v-0.26458h0.26458v0.26458"/>
		<path d="m4.2333 3.4396v-0.26458h0.26458v0.26458"/>
	</g>
	<g fill-opacity="0">
		<path d="m4.2333 3.7042v-0.26458h0.26458v0.26458"/>
		<path d="m4.2333 3.9688v-0.26458h0.26458v0.26458"/>
		<path d="m4.2333 4.2333v-0.26458h0.26458v0.26458"/>
		<path d="m4.2333 4.4979v-0.26458h0.26458v0.26458"/>
		<path d="m4.2333 4.7625v-0.26458h0.26458v0.26458"/>
		<path d="m4.2333 5.0271v-0.26458h0.26458v0.26458"/>
		<path d="m4.2333 5.2917v-0.26458h0.26458v0.26458"/>
		<path d="m4.2333 5.5563v-0.26458h0.26458v0.26458"/>
		<path d="m4.2333 5.8208v-0.26458h0.26458v0.26458"/>
		<path d="m4.2333 6.0854v-0.26458h0.26458v0.26458"/>
		<path d="m4.2333 6.35v-0.26458h0.26458v0.26458"/>
		<path d="m4.2333 6.6146v-0.26458h0.26458v0.26458"/>
		<path d="m4.2333 7.1438v-0.26458h0.26458v0.26458"/>
		<path d="m4.2333 7.4083v-0.26458h0.26458v0.26458"/>
		<path d="m3.9688 1.0583v-0.26458h0.26458v0.26458"/>
		<path d="m3.9688 1.3229v-0.26458h0.26458v0.26458"/>
		<path d="m3.9688 1.5875v-0.26458h0.26458v0.26458"/>
		<path d="m3.9688 1.8521v-0.26458h0.26458v0.26458"/>
		<path d="m3.9688 2.1167v-0.26458h0.26458v0.26458"/>
		<path d="m3.9688 2.3812v-0.26458h0.26458v0.26458"/>
		<path d="m3.9688 2.6458v-0.26458h0.26458v0.26458"/>
		<path d="m3.9688 2.9104v-0.26458h0.26458v0.26458"/>
	</g>
	<path d="m3.9688 3.175v-0.26458h0.26458v0.26458" fill="#333" fill-rule="evenodd"/>
	<g fill-opacity="0">
		<path d="m3.9688 3.4396v-0.26458h0.26458v0.26458"/>
		<path d="m3.9688 3.7042v-0.26458h0.26458v0.26458"/>
		<path d="m3.9688 3.9688v-0.26458h0.26458v0.26458"/>
		<path d="m3.9688 4.2333v-0.26458h0.26458v0.26458"/>
		<path d="m3.9688 4.4979v-0.26458h0.26458v0.26458"/>
		<path d="m3.9688 4.7625v-0.26458h0.26458v0.26458"/>
		<path d="m3.9688 5.0271v-0.26458h0.26458v0.26458"/>
		<path d="m3.9688 5.2917v-0.26458h0.26458v0.26458"/>
		<path d="m3.9688 5.5563v-0.26458h0.26458v0.26458"/>
		<path d="m3.9688 5.8208v-0.26458h0.26458v0.26458"/>
		<path d="m3.9688 6.0854v-0.26458h0.26458v0.26458"/>
		<path d="m3.9688 6.35v-0.26458h0.26458v0.26458"/>
		<path d="m3.9688 6.6146v-0.26458h0.26458v0.26458"/>
		<path d="m3.9688 6.8792v-0.26458h0.26458v0.26458"/>
		<path d="m3.9688 7.1438v-0.26458h0.26458v0.26458"/>
		<path d="m3.9688 7.4083v-0.26458h0.26458v0.26458"/>
	</g>
	<path d="m8.8635 5.0251c0 1.4387-1.0069 2.6051-2.249 2.6051s-2.249-1.1663-2.249-2.6051c0-0.54427 0.18846-1.4749 0.43486-1.8929 0.34076 0.40698 1.0223 1.221 1.0223 1.221l0.71934-1.0175 0.71175 1.0174 1.0223-1.2209c0.16533 0.36268 0.58736 1.4542 0.58736 1.8929z" fill="url(#radialGradient11613)" stroke="#000" stroke-linecap="round" stroke-linejoin="round" stroke-width=".26458" style="paint-order:normal"/>
</svg>
