<?xml version="1.0" encoding="UTF-8"?>
<svg version="1.1" viewBox="0 0 32 32" xml:space="preserve" xmlns="http://www.w3.org/2000/svg"><g stroke-linejoin="round"><path d="m2.3976 2.5 25.897-0.10242" stroke="#000" stroke-linecap="round" stroke-width="2"/><path d="m29 28.5h-25" fill="#9a9996" stroke="#9a9996"/><path d="m29 20.5h-25" fill="#9a9996" stroke="#9a9996"/><path d="m29 12.5h-25" fill="#9a9996" stroke="#9a9996"/><path d="m29 4.5h-25" fill="#9a9996" stroke="#9a9996"/><path d="m4.5 29v-25" fill="#9a9996" stroke="#9a9996"/><path d="m12.5 29v-25" fill="#9a9996" stroke="#9a9996"/><path d="m20.5 29v-25" fill="#9a9996" stroke="#9a9996"/><path d="m28.5 29v-25" fill="#9a9996" stroke="#9a9996"/><path transform="matrix(.39355 0 0 .40251 18.782 1.5926)" d="m32.312 2-8.1414 4.7004v-9.4009z" stroke="#000" stroke-linecap="round" stroke-width="2.5125"/><path d="m2.3976 2.5v25.994" stroke="#000" stroke-linecap="round" stroke-width="2"/><path transform="matrix(0 .39355 -.40251 0 3.2026 18.782)" d="m32.312 2-8.1414 4.7004v-9.4009z" stroke="#000" stroke-linecap="round" stroke-width="2.5125"/><g transform="matrix(0 1.7399 -1.7399 0 522.35 4.8576)" stroke="#111"><path transform="matrix(4.0603 .070872 -.069785 3.998 20.46 -851.19)" d="m1.6832 286.97-0.42391 8e-3 -0.21852-0.36332 0.20539-0.37092 0.42391-8e-3 0.21852 0.36333z" fill="#46a926" stroke-width=".09849" style="paint-order:normal"/><path transform="matrix(4.0603 .070872 -.069785 3.998 23.041 -852.66)" d="m1.6832 286.97-0.42391 8e-3 -0.21852-0.36332 0.20539-0.37092 0.42391-8e-3 0.21852 0.36333z" fill="#46a926" stroke-width=".09849" style="paint-order:normal"/><path transform="matrix(4.0603 .070872 -.069785 3.998 17.876 -852.66)" d="m1.6832 286.97-0.42391 8e-3 -0.21852-0.36332 0.20539-0.37092 0.42391-8e-3 0.21852 0.36333z" fill="#46a926" stroke-width=".09849" style="paint-order:normal"/><path transform="matrix(4.0603 .070872 -.069785 3.998 20.458 -854.13)" d="m1.6832 286.97-0.42391 8e-3 -0.21852-0.36332 0.20539-0.37092 0.42391-8e-3 0.21852 0.36333z" fill="#46a926" stroke-width=".09849" style="paint-order:normal"/><path transform="matrix(4.0603 .070872 -.069785 3.998 23.039 -855.59)" d="m1.6832 286.97-0.42391 8e-3 -0.21852-0.36332 0.20539-0.37092 0.42391-8e-3 0.21852 0.36333z" fill="#46a926" stroke-width=".09849" style="paint-order:normal"/><path transform="matrix(4.0603 .070872 -.069785 3.998 17.874 -855.59)" d="m1.6832 286.97-0.42391 8e-3 -0.21852-0.36332 0.20539-0.37092 0.42391-8e-3 0.21852 0.36333z" fill="#46a926" stroke-width=".09849" style="paint-order:normal"/><path transform="matrix(4.0603 .070872 -.069785 3.998 20.456 -857.06)" d="m1.6832 286.97-0.42391 8e-3 -0.21852-0.36332 0.20539-0.37092 0.42391-8e-3 0.21852 0.36333z" fill="#46a926" stroke-width=".09849" style="paint-order:normal"/><path transform="matrix(2.9247 .051051 -.050268 2.8799 14.183 -537.64)" d="m1.6832 286.97-0.42391 8e-3 -0.21852-0.36332 0.20539-0.37092 0.42391-8e-3 0.21852 0.36333z" fill="#d8d04f" stroke-width=".091152" style="paint-order:normal"/><path transform="matrix(4.0603 .070872 -.069785 3.998 20.454 -860)" d="m1.6832 286.97-0.42391 8e-3 -0.21852-0.36332 0.20539-0.37092 0.42391-8e-3 0.21852 0.36333z" fill="#d8d04f" stroke-width=".06566" style="paint-order:normal"/><path transform="matrix(2.9247 .051051 -.050268 2.8799 14.188 -529.65)" d="m1.6832 286.97-0.42391 8e-3 -0.21852-0.36332 0.20539-0.37092 0.42391-8e-3 0.21852 0.36333z" fill="#d8d04f" stroke-width=".091152" style="paint-order:normal"/><path transform="matrix(2.9247 .051051 -.050268 2.8799 18.872 -529.65)" d="m1.6832 286.97-0.42391 8e-3 -0.21852-0.36332 0.20539-0.37092 0.42391-8e-3 0.21852 0.36333z" fill="#d8d04f" stroke-width=".091152" style="paint-order:normal"/><path transform="matrix(2.9247 .051051 -.050268 2.8799 18.866 -537.64)" d="m1.6832 286.97-0.42391 8e-3 -0.21852-0.36332 0.20539-0.37092 0.42391-8e-3 0.21852 0.36333z" fill="#d8d04f" stroke-width=".091152" style="paint-order:normal"/><path transform="matrix(.99797 .01742 -.01742 .99797 5.1005 .51472)" d="m5.6256 284.86-0.23441-7e-3 -0.11118-0.20648 0.12323-0.19953 0.23441 7e-3 0.11118 0.20648z" fill="#111" stroke-width=".17789" style="paint-order:normal"/><path transform="matrix(-.99797 -.01742 -.01742 .99797 5.1005 .51472)" d="m-6.9056 284.83-0.23441-7e-3 -0.11118-0.20648 0.12323-0.19952 0.23441 7e-3 0.11118 0.20648z" fill="#111" stroke-width=".17789" style="paint-order:normal"/></g></g></svg>
