<?xml version="1.0" encoding="UTF-8"?>
<svg width="32" height="32" version="1.1" viewBox="0 0 8.4667 8.4667" xmlns="http://www.w3.org/2000/svg" xmlns:cc="http://creativecommons.org/ns#" xmlns:dc="http://purl.org/dc/elements/1.1/" xmlns:rdf="http://www.w3.org/1999/02/22-rdf-syntax-ns#">
<metadata>
<rdf:RDF>
<cc:Work rdf:about="">
<dc:format>image/svg+xml</dc:format>
<dc:type rdf:resource="http://purl.org/dc/dcmitype/StillImage"/>
</cc:Work>
</rdf:RDF>
</metadata>
<g transform="translate(0 -284.3)">
<g>
<path transform="matrix(-.029688 1.6924 -1.6747 -.029087 481.36 294.39)" d="m1.6832 286.97-0.42391 8e-3 -0.21852-0.36332 0.20539-0.37092 0.42391-8e-3 0.21852 0.36333z" fill="#46a926" stroke="#111" stroke-linejoin="round" stroke-width=".14451" style="paint-order:normal"/>
<path transform="matrix(-.029688 1.6924 -1.6747 -.029087 481.98 295.47)" d="m1.6832 286.97-0.42391 8e-3 -0.21852-0.36332 0.20539-0.37092 0.42391-8e-3 0.21852 0.36333z" fill="#46a926" stroke="#111" stroke-linejoin="round" stroke-width=".14451" style="paint-order:normal"/>
<path transform="matrix(-.029688 1.6924 -1.6747 -.029087 481.98 293.32)" d="m1.6832 286.97-0.42391 8e-3 -0.21852-0.36332 0.20539-0.37092 0.42391-8e-3 0.21852 0.36333z" fill="#46a926" stroke="#111" stroke-linejoin="round" stroke-width=".14451" style="paint-order:normal"/>
<path transform="matrix(-.029688 1.6924 -1.6747 -.029087 482.59 294.39)" d="m1.6832 286.97-0.42391 8e-3 -0.21852-0.36332 0.20539-0.37092 0.42391-8e-3 0.21852 0.36333z" fill="#46a926" stroke="#111" stroke-linejoin="round" stroke-width=".14451" style="paint-order:normal"/>
<path transform="matrix(-.029688 1.6924 -1.6747 -.029087 483.21 295.47)" d="m1.6832 286.97-0.42391 8e-3 -0.21852-0.36332 0.20539-0.37092 0.42391-8e-3 0.21852 0.36333z" fill="#46a926" stroke="#111" stroke-linejoin="round" stroke-width=".14451" style="paint-order:normal"/>
<path transform="matrix(-.029688 1.6924 -1.6747 -.029087 483.21 293.31)" d="m1.6832 286.97-0.42391 8e-3 -0.21852-0.36332 0.20539-0.37092 0.42391-8e-3 0.21852 0.36333z" fill="#46a926" stroke="#111" stroke-linejoin="round" stroke-width=".14451" style="paint-order:normal"/>
<path transform="matrix(-.029688 1.6924 -1.6747 -.029087 483.82 294.39)" d="m1.6832 286.97-0.42391 8e-3 -0.21852-0.36332 0.20539-0.37092 0.42391-8e-3 0.21852 0.36333z" fill="#46a926" stroke="#111" stroke-linejoin="round" stroke-width=".14451" style="paint-order:normal"/>
<path transform="matrix(-.021386 1.2191 -1.2064 -.020953 350.02 291.78)" d="m1.6832 286.97-0.42391 8e-3 -0.21852-0.36332 0.20539-0.37092 0.42391-8e-3 0.21852 0.36333z" fill="#d8d04f" stroke="#111" stroke-linejoin="round" stroke-width=".13374" style="paint-order:normal"/>
<path transform="matrix(-.029688 1.6924 -1.6747 -.029087 485.05 294.39)" d="m1.6832 286.97-0.42391 8e-3 -0.21852-0.36332 0.20539-0.37092 0.42391-8e-3 0.21852 0.36333z" fill="#d8d04f" stroke="#111" stroke-linejoin="round" stroke-width=".096338" style="paint-order:normal"/>
<path transform="matrix(-.021386 1.2191 -1.2064 -.020953 346.67 291.78)" d="m1.6832 286.97-0.42391 8e-3 -0.21852-0.36332 0.20539-0.37092 0.42391-8e-3 0.21852 0.36333z" fill="#d8d04f" stroke="#111" stroke-linejoin="round" stroke-width=".13374" style="paint-order:normal"/>
<path transform="matrix(-.021386 1.2191 -1.2064 -.020953 346.67 293.73)" d="m1.6832 286.97-0.42391 8e-3 -0.21852-0.36332 0.20539-0.37092 0.42391-8e-3 0.21852 0.36333z" fill="#d8d04f" stroke="#111" stroke-linejoin="round" stroke-width=".13374" style="paint-order:normal"/>
<path transform="matrix(-.021386 1.2191 -1.2064 -.020953 350.02 293.73)" d="m1.6832 286.97-0.42391 8e-3 -0.21852-0.36332 0.20539-0.37092 0.42391-8e-3 0.21852 0.36333z" fill="#d8d04f" stroke="#111" stroke-linejoin="round" stroke-width=".13374" style="paint-order:normal"/>
<path transform="matrix(-.0072971 .41597 -.41805 -.0072607 124.58 287.99)" d="m5.6256 284.86-0.23441-7e-3 -0.11118-0.20648 0.12323-0.19953 0.23441 7e-3 0.11118 0.20648z" fill="#111" stroke="#111" stroke-linejoin="round" stroke-width=".261" style="paint-order:normal"/>
<path transform="matrix(.0072971 -.41597 -.41805 -.0072607 124.58 287.99)" d="m-6.9056 284.83-0.23441-7e-3 -0.11118-0.20648 0.12323-0.19952 0.23441 7e-3 0.11118 0.20648z" fill="#111" stroke="#111" stroke-linejoin="round" stroke-width=".261" style="paint-order:normal"/>
<rect x="6.2581" y="287.87" width="1.3229" height="1.3229" fill="#9a9996" stroke="#3d3846" stroke-width=".26458"/>
<path d="m5.7277 289.72 2.3837-2.3837" fill="#e01b24" stroke="#e01b24" stroke-linecap="round" stroke-width=".52917"/>
<path d="m8.1114 289.72-2.3837-2.3837" fill="#e01b24" stroke="#e01b24" stroke-linecap="round" stroke-width=".52917"/>
</g>
</g>
</svg>
