<?xml version="1.0" encoding="UTF-8"?>
<svg version="1.1" viewBox="0 0 32 32" xmlns="http://www.w3.org/2000/svg">
<g stroke-linecap="round" stroke-linejoin="round">
<circle cx="16" cy="16" r="12.5" fill="#9141ac" stroke="#fff"/>
<path d="m14.2 15.192h-2.0217v6.8079h-2.3357v-6.8079h-1.2865v-1.1257l1.2865-0.62795v-0.62795q0-1.4627 0.71985-2.1366 0.71985-0.6739 2.305-0.6739 1.21 0 2.1519 0.35992l-0.59732 1.7154q-0.70453-0.22208-1.3019-0.22208-0.49777 0-0.71985 0.29866-0.22208 0.291-0.22208 0.75048v0.53606h2.0217zm9.2432 6.8079h-2.3357v-5.0006q0-0.92661-0.32929-1.3861-0.32929-0.46714-1.0491-0.46714-0.98022 0-1.4167 0.65858-0.4365 0.65093-0.4365 2.1672v4.0281h-2.3357v-8.5616h1.7843l0.31398 1.0951h0.13018q0.39056-0.62029 1.0721-0.93427 0.68922-0.32163 1.5622-0.32163 1.4933 0 2.2668 0.81174 0.77345 0.80408 0.77345 2.328z" fill="#fff" aria-label="fn"/>
</g>
</svg>
