<?xml version="1.0" encoding="UTF-8"?>
<svg width="32" height="32" version="1.1" viewBox="0 0 8.4667 8.4667" xmlns="http://www.w3.org/2000/svg" xmlns:cc="http://creativecommons.org/ns#" xmlns:dc="http://purl.org/dc/elements/1.1/" xmlns:rdf="http://www.w3.org/1999/02/22-rdf-syntax-ns#">
<metadata>
<rdf:RDF>
<cc:Work rdf:about="">
<dc:format>image/svg+xml</dc:format>
<dc:type rdf:resource="http://purl.org/dc/dcmitype/StillImage"/>
</cc:Work>
</rdf:RDF>
</metadata>
<g transform="translate(0 -284.3)">
<g>
<path transform="matrix(-.043451 2.4893 -2.4511 -.042784 704.3 297.15)" d="m1.6832 286.97-0.42391 8e-3 -0.21852-0.36332 0.20539-0.37092 0.42391-8e-3 0.21852 0.36333z" fill="#46a926" stroke="#111" stroke-linejoin="round" stroke-width=".09849" style="paint-order:normal"/>
<path transform="matrix(-.043451 2.4893 -2.4511 -.042784 705.2 298.73)" d="m1.6832 286.97-0.42391 8e-3 -0.21852-0.36332 0.20539-0.37092 0.42391-8e-3 0.21852 0.36333z" fill="#46a926" stroke="#111" stroke-linejoin="round" stroke-width=".09849" style="paint-order:normal"/>
<path transform="matrix(-.043451 2.4893 -2.4511 -.042784 705.2 295.57)" d="m1.6832 286.97-0.42391 8e-3 -0.21852-0.36332 0.20539-0.37092 0.42391-8e-3 0.21852 0.36333z" fill="#46a926" stroke="#111" stroke-linejoin="round" stroke-width=".09849" style="paint-order:normal"/>
<path transform="matrix(-.043451 2.4893 -2.4511 -.042784 706.1 297.15)" d="m1.6832 286.97-0.42391 8e-3 -0.21852-0.36332 0.20539-0.37092 0.42391-8e-3 0.21852 0.36333z" fill="#46a926" stroke="#111" stroke-linejoin="round" stroke-width=".09849" style="paint-order:normal"/>
<path transform="matrix(-.043451 2.4893 -2.4511 -.042784 707 298.73)" d="m1.6832 286.97-0.42391 8e-3 -0.21852-0.36332 0.20539-0.37092 0.42391-8e-3 0.21852 0.36333z" fill="#46a926" stroke="#111" stroke-linejoin="round" stroke-width=".09849" style="paint-order:normal"/>
<path transform="matrix(-.043451 2.4893 -2.4511 -.042784 707 295.57)" d="m1.6832 286.97-0.42391 8e-3 -0.21852-0.36332 0.20539-0.37092 0.42391-8e-3 0.21852 0.36333z" fill="#46a926" stroke="#111" stroke-linejoin="round" stroke-width=".09849" style="paint-order:normal"/>
<path transform="matrix(-.043451 2.4893 -2.4511 -.042784 707.9 297.15)" d="m1.6832 286.97-0.42391 8e-3 -0.21852-0.36332 0.20539-0.37092 0.42391-8e-3 0.21852 0.36333z" fill="#46a926" stroke="#111" stroke-linejoin="round" stroke-width=".09849" style="paint-order:normal"/>
<path transform="matrix(-.031299 1.7931 -1.7656 -.030819 512.06 293.3)" d="m1.6832 286.97-0.42391 8e-3 -0.21852-0.36332 0.20539-0.37092 0.42391-8e-3 0.21852 0.36333z" fill="#d8d04f" stroke="#111" stroke-linejoin="round" stroke-width=".091152" style="paint-order:normal"/>
<path transform="matrix(-.043451 2.4893 -2.4511 -.042784 709.7 297.15)" d="m1.6832 286.97-0.42391 8e-3 -0.21852-0.36332 0.20539-0.37092 0.42391-8e-3 0.21852 0.36333z" fill="#d8d04f" stroke="#111" stroke-linejoin="round" stroke-width=".06566" style="paint-order:normal"/>
<path transform="matrix(-.031299 1.7931 -1.7656 -.030819 507.16 293.31)" d="m1.6832 286.97-0.42391 8e-3 -0.21852-0.36332 0.20539-0.37092 0.42391-8e-3 0.21852 0.36333z" fill="#d8d04f" stroke="#111" stroke-linejoin="round" stroke-width=".091152" style="paint-order:normal"/>
<path transform="matrix(-.031299 1.7931 -1.7656 -.030819 507.16 296.18)" d="m1.6832 286.97-0.42391 8e-3 -0.21852-0.36332 0.20539-0.37092 0.42391-8e-3 0.21852 0.36333z" fill="#d8d04f" stroke="#111" stroke-linejoin="round" stroke-width=".091152" style="paint-order:normal"/>
<path transform="matrix(-.031299 1.7931 -1.7656 -.030819 512.06 296.17)" d="m1.6832 286.97-0.42391 8e-3 -0.21852-0.36332 0.20539-0.37092 0.42391-8e-3 0.21852 0.36333z" fill="#d8d04f" stroke="#111" stroke-linejoin="round" stroke-width=".091152" style="paint-order:normal"/>
<path transform="matrix(-.01068 .61184 -.61184 -.01068 182.12 287.73)" d="m5.6256 284.86-0.23441-7e-3 -0.11118-0.20648 0.12323-0.19953 0.23441 7e-3 0.11118 0.20648z" fill="#111" stroke="#111" stroke-linejoin="round" stroke-width=".17789" style="paint-order:normal"/>
<path transform="matrix(.01068 -.61184 -.61184 -.01068 182.12 287.73)" d="m-6.9056 284.83-0.23441-7e-3 -0.11118-0.20648 0.12323-0.19952 0.23441 7e-3 0.11118 0.20648z" fill="#111" stroke="#111" stroke-linejoin="round" stroke-width=".17789" style="paint-order:normal"/>
<path d="m4.6803 286.85v1.0811h-2.9605v1.1973h2.9605v1.0811l1.5803-1.68z" fill="#e01b24" stroke="#fff" stroke-width=".26458" style="paint-order:normal"/>
</g>
</g>
</svg>
