<?xml version="1.0" encoding="UTF-8"?>
<svg version="1.1" viewBox="0 0 32 32" xmlns="http://www.w3.org/2000/svg">
<path d="m12.32 20.667v-1.4212q0-1.8437 0.80779-3.2073 0.80779-1.3636 2.9553-2.9 2.0687-1.4404 2.7189-2.343 0.66987-0.90265 0.66987-2.0166 0-1.2483-0.9457-1.9013-0.9457-0.65298-2.6401-0.65298-2.9553 0-6.7381 1.8821l-2.1475-4.206q4.3936-2.4007 9.3191-2.4007 4.0586 0 6.4426 1.9013 2.4037 1.9013 2.4037 5.0702 0 2.1126-0.9851 3.649-0.9851 1.5364-3.7434 3.457-1.8914 1.3636-2.4037 2.0742-0.49256 0.7106-0.49256 1.8629v1.1523zm-0.63046 6.5682q0-1.6132 0.88659-2.4391 0.88659-0.82583 2.581-0.82583 1.6353 0 2.5219 0.84503 0.9063 0.84503 0.9063 2.4199 0 1.5172-0.9063 2.4007-0.9063 0.86424-2.5219 0.86424-1.655 0-2.5613-0.84503-0.9063-0.86424-0.9063-2.4199z" fill="#2ec27e" stroke="#fff" stroke-linecap="round" stroke-width=".99999" aria-label="?"/>
</svg>
