<?xml version="1.0" encoding="UTF-8"?>
<svg version="1.1" viewBox="0 0 32 32" xmlns="http://www.w3.org/2000/svg">
<path d="m7.5383 23.458h16.923c0.59856 0 1.0804 0.34617 1.0804 0.77617v5.3081h-19.084v-5.3081c0-0.43 0.48188-0.77617 1.0804-0.77617z" fill="#626262" stroke="#a9a9a9" stroke-linecap="round" stroke-linejoin="round" stroke-width=".91575"/>
<path d="m14.243 22.775c-0.12117-0.07388-0.30649-0.26451-0.41181-0.42361l-0.19149-0.28928-0.03432-4.5107c-0.03281-4.3131-0.04004-4.517-0.16506-4.6551-0.16438-0.18156-0.52596-0.19157-0.68223-0.0189-0.08323 0.09197-0.11359 0.25567-0.11359 0.61252v0.487l-1.1121 0.91194c-0.61164 0.50157-1.2204 0.96719-1.3529 1.0347-0.89032 0.45391-1.2468-0.34051-0.68546-1.5275 0.1144-0.24189 1.0541-1.6488 2.0883-3.1265 1.803-2.5763 1.8844-2.7063 1.9795-3.1627 0.05459-0.2618 0.1459-0.58766 0.20292-0.72413 0.20305-0.48598 0.10259-0.47261 3.3847-0.45034 3.3046 0.022419 3.1281-0.00425 3.6879 0.55746 0.29044 0.29142 1.0382 1.4805 1.4617 2.3244 0.45775 0.9121 0.51526 1.3081 0.46658 3.2122-0.04978 1.9469-0.11059 2.2762-0.48027 2.6008-0.2019 0.17727-0.30022 0.21319-0.58359 0.21319-0.22409 0-0.34257-0.02938-0.34599-0.08579-0.10386-1.7117-0.10422-1.7145-0.23443-1.8097-0.18592-0.13595-0.54148-0.11836-0.679 0.0336-0.10143 0.11208-0.11375 0.27654-0.09643 1.2869 0.02183 1.2737-0.03348 1.5702-0.33754 1.8094-0.12548 0.0987-0.27887 0.13834-0.53531 0.13834h-0.35944l-0.04985-0.96762c-0.04213-0.81763-0.07009-0.98785-0.18038-1.0982-0.18113-0.18113-0.48507-0.16602-0.67244 0.03343-0.1505 0.1602-0.15295 0.18816-0.1067 1.2183 0.07238 1.6122-0.05326 1.9159-0.81917 1.9802l-0.45398 0.0381v-0.94528c0-0.85377-0.01329-0.95857-0.13727-1.0826-0.18379-0.18379-0.48928-0.17545-0.67134 0.01834-0.14333 0.15257-0.14658 0.20875-0.16639 2.871l-0.0202 2.7154-0.2059 0.3304c-0.34314 0.55061-0.91702 0.73691-1.3871 0.45028z" fill="#fd5" stroke="#fd5" stroke-linecap="round" stroke-linejoin="round" stroke-width=".49358"/>
<g transform="matrix(.14525 0 0 -.14525 8.2902 23.847)">
<path d="m29.96 67.49c-0.16-0.09-0.32-0.19-0.47-0.31-1.95-1.56-4.08-3.29-5.94-4.81-2.69-2.2-5.8-4.76-7.97-6.55-1.49-1.23-3.17-2.07-4.75-2.39-1.02-0.2-1.95-0.18-2.67 0.12-0.59 0.24-1.1 0.72-1.45 1.48-0.45 0.99-0.66 2.41-0.54 4.32 0.11 1.69 0.7 3.55 1.48 5.33 1.16 2.63 2.73 5.04 3.89 6.59 0.07 0.09 0.13 0.19 0.19 0.29l23.32 33.31c0.3 0.43 0.47 0.91 0.53 1.4h0.01c0.46 3.85 1.28 6.73 2.49 8.54 0.88 1.31 2.01 1.98 3.42 1.94h0.07v-0.01h36.38c0.09 0 0.17 0 0.26 0.01 2.28-0.03 4.36-0.71 6.25-2.02 2.09-1.44 3.99-3.68 5.72-6.7 0.03-0.05 0.06-0.11 0.1-0.16 0.67-1.15 1.55-2.6 2.41-4.02 3.72-6.13 6.96-11.45 7.35-19.04l-0.24-10.47c-0.02-0.15-0.03-0.3-0.03-0.45 0-0.14 0.02-1.13 0.03-2.46 0.09-6.92 0.19-15.48-6.14-16.56h-4.09c-0.02 1.95-0.15 3.93-0.27 5.86-0.11 1.71-0.21 3.37-0.21 4.95 0 1.7-1.38 3.08-3.08 3.08s-3.08-1.38-3.08-3.08c0-1.58 0.12-3.42 0.24-5.33 0.41-6.51 0.89-13.99-4.33-14.93h-4.04c-0.23 0-0.45-0.02-0.66-0.07 0.04 2.36-0.12 4.81-0.27 7.16-0.11 1.71-0.21 3.37-0.21 4.95 0 1.7-1.38 3.08-3.08 3.08s-3.08-1.38-3.08-3.08c0-1.58 0.12-3.42 0.24-5.33 0.41-6.51 0.89-13.99-4.33-14.93h-4.05c-0.28 0-0.55-0.04-0.8-0.11v11.91c0 1.7-1.38 3.08-3.08 3.08s-3.08-1.38-3.08-3.08v-31.95c0-5.35-2.18-8.73-4.97-10.14-1.02-0.52-2.12-0.78-3.21-0.78-1.08 0-2.18 0.26-3.19 0.77-2.76 1.4-4.92 4.79-4.92 10.28v56c0 1.7-1.38 3.08-3.08 3.08s-3.08-1.38-3.08-3.08v-5.69zm28.61-36.34c0.26-0.07 0.53-0.11 0.8-0.11h4.24c0.24 0 0.47 0.03 0.69 0.08 5.65 0.88 8.17 4.18 9.2 8.43 0.39-0.18 0.83-0.29 1.3-0.29h4.24c0.24 0 0.47 0.03 0.69 0.08 6.08 0.94 8.53 4.69 9.41 9.41 0.15-0.02 0.31-0.04 0.47-0.04h4.24c0.24 0 0.47 0.03 0.69 0.08 11.64 1.8 11.5 13.37 11.38 22.71 0 0.33-0.01 0.68-0.01 2.35v0.07l0.24 10.77c0.01 0.11 0.01 0.23 0 0.34-0.45 9.16-4.07 15.12-8.24 21.98-0.7 1.14-1.41 2.32-2.34 3.93-0.02 0.04-0.04 0.08-0.07 0.13-2.18 3.8-4.7 6.71-7.57 8.69-2.92 2.02-6.16 3.06-9.71 3.1-0.09 0.01-0.19 0.01-0.28 0.01h-36.36v-0.01c-3.66 0.07-6.5-1.53-8.59-4.66-1.68-2.51-2.79-6.03-3.4-10.47l-22.86-32.66c-0.03-0.04-0.07-0.08-0.1-0.12-1.36-1.82-3.21-4.65-4.59-7.79-1.04-2.36-1.83-4.92-1.99-7.42-0.2-2.97 0.22-5.36 1.06-7.23 1.05-2.32 2.72-3.83 4.74-4.66 1.89-0.77 4.01-0.88 6.16-0.45 2.57 0.51 5.22 1.81 7.49 3.68 1.86 1.54 4.95 4.07 7.95 6.52l2.52 2.06v-42.48c0-8.14 3.63-13.39 8.28-15.76 1.87-0.95 3.92-1.42 5.98-1.42 2.05 0 4.1 0.48 5.98 1.43 4.69 2.37 8.36 7.62 8.36 15.62z"/>
</g>
</svg>
