<?xml version="1.0" encoding="UTF-8"?>
<svg version="1.1" viewBox="0 0 32 32" xml:space="preserve" xmlns="http://www.w3.org/2000/svg"><g stroke-linejoin="round"><g transform="matrix(1.8055 0 0 1.8055 4.4384 -513.4)" stroke="#111"><path transform="matrix(4.0603 .070872 -.069785 3.998 20.46 -851.19)" d="m1.6832 286.97-0.42391 8e-3 -0.21852-0.36332 0.20539-0.37092 0.42391-8e-3 0.21852 0.36333z" fill="#46a926" stroke-width=".09849" style="paint-order:normal"/><path transform="matrix(4.0603 .070872 -.069785 3.998 23.041 -852.66)" d="m1.6832 286.97-0.42391 8e-3 -0.21852-0.36332 0.20539-0.37092 0.42391-8e-3 0.21852 0.36333z" fill="#46a926" stroke-width=".09849" style="paint-order:normal"/><path transform="matrix(4.0603 .070872 -.069785 3.998 17.876 -852.66)" d="m1.6832 286.97-0.42391 8e-3 -0.21852-0.36332 0.20539-0.37092 0.42391-8e-3 0.21852 0.36333z" fill="#46a926" stroke-width=".09849" style="paint-order:normal"/><path transform="matrix(4.0603 .070872 -.069785 3.998 20.458 -854.13)" d="m1.6832 286.97-0.42391 8e-3 -0.21852-0.36332 0.20539-0.37092 0.42391-8e-3 0.21852 0.36333z" fill="#46a926" stroke-width=".09849" style="paint-order:normal"/><path transform="matrix(4.0603 .070872 -.069785 3.998 23.039 -855.59)" d="m1.6832 286.97-0.42391 8e-3 -0.21852-0.36332 0.20539-0.37092 0.42391-8e-3 0.21852 0.36333z" fill="#46a926" stroke-width=".09849" style="paint-order:normal"/><path transform="matrix(4.0603 .070872 -.069785 3.998 17.874 -855.59)" d="m1.6832 286.97-0.42391 8e-3 -0.21852-0.36332 0.20539-0.37092 0.42391-8e-3 0.21852 0.36333z" fill="#46a926" stroke-width=".09849" style="paint-order:normal"/><path transform="matrix(4.0603 .070872 -.069785 3.998 20.456 -857.06)" d="m1.6832 286.97-0.42391 8e-3 -0.21852-0.36332 0.20539-0.37092 0.42391-8e-3 0.21852 0.36333z" fill="#46a926" stroke-width=".09849" style="paint-order:normal"/><path transform="matrix(2.9247 .051051 -.050268 2.8799 14.183 -537.64)" d="m1.6832 286.97-0.42391 8e-3 -0.21852-0.36332 0.20539-0.37092 0.42391-8e-3 0.21852 0.36333z" fill="#d8d04f" stroke-width=".091152" style="paint-order:normal"/><path transform="matrix(4.0603 .070872 -.069785 3.998 20.454 -860)" d="m1.6832 286.97-0.42391 8e-3 -0.21852-0.36332 0.20539-0.37092 0.42391-8e-3 0.21852 0.36333z" fill="#d8d04f" stroke-width=".06566" style="paint-order:normal"/><path transform="matrix(2.9247 .051051 -.050268 2.8799 14.188 -529.65)" d="m1.6832 286.97-0.42391 8e-3 -0.21852-0.36332 0.20539-0.37092 0.42391-8e-3 0.21852 0.36333z" fill="#d8d04f" stroke-width=".091152" style="paint-order:normal"/><path transform="matrix(2.9247 .051051 -.050268 2.8799 18.872 -529.65)" d="m1.6832 286.97-0.42391 8e-3 -0.21852-0.36332 0.20539-0.37092 0.42391-8e-3 0.21852 0.36333z" fill="#d8d04f" stroke-width=".091152" style="paint-order:normal"/><path transform="matrix(2.9247 .051051 -.050268 2.8799 18.866 -537.64)" d="m1.6832 286.97-0.42391 8e-3 -0.21852-0.36332 0.20539-0.37092 0.42391-8e-3 0.21852 0.36333z" fill="#d8d04f" stroke-width=".091152" style="paint-order:normal"/><path transform="matrix(.99797 .01742 -.01742 .99797 5.1005 .51472)" d="m5.6256 284.86-0.23441-7e-3 -0.11118-0.20648 0.12323-0.19953 0.23441 7e-3 0.11118 0.20648z" fill="#111" stroke-width=".17789" style="paint-order:normal"/><path transform="matrix(-.99797 -.01742 -.01742 .99797 5.1005 .51472)" d="m-6.9056 284.83-0.23441-7e-3 -0.11118-0.20648 0.12323-0.19952 0.23441 7e-3 0.11118 0.20648z" fill="#111" stroke-width=".17789" style="paint-order:normal"/></g><path d="m25.276 19.802c0 6.4605-4.1528 11.698-9.2756 11.698s-9.2756-5.2373-9.2756-11.698c0-3.7015 1.3632-7.0014 3.491-9.1449 1.8403-2.196 2.9235 3.2523 2.9235 3.2523s1.9276-5.8052 2.861-5.8052c0.70209 0 2.7764 5.9547 2.7764 5.9547s2.2316-4.294 3.3833-3.0031c1.9116 2.1427 3.1159 5.2671 3.1159 8.7462z" fill="#f9f06b" stroke="#fff" stroke-linecap="round"/></g></svg>
