<?xml version="1.0" encoding="UTF-8"?>
<svg version="1.1" viewBox="0 0 22 22" xmlns="http://www.w3.org/2000/svg">
<g transform="translate(10.785 11)" fill="#b2b2b2">
<path d="m-1.1935-8.5117-1.4238 0.32617-0.2832 2.1621 0.033203 0.097656 0.78711 1.627-1.6465 1.3145-1.4121-1.1289-0.087891-0.054688-2.1719-0.20508-0.63281 1.3164 1.5137 1.5684 0.097656 0.035156 1.7637 0.39844v2.1094l-1.7637 0.39844-0.097656 0.035156-1.5137 1.5684 0.63281 1.3164 2.1719-0.20508 0.087891-0.054688 1.4121-1.1289 1.6465 1.3145-0.78711 1.627-0.033203 0.097656 0.2832 2.1621 1.4238 0.32617 1.1934-1.8281 0.011719-0.10156-0.0039062-1.8066 2.0566-0.4707 0.78125 1.6309 0.054688 0.087891 1.8672 1.127 1.1426-0.91016-0.68359-2.0723-0.072266-0.072266-1.416-1.125 0.91406-1.9004 1.7637 0.40625 0.10156 0.011719 2.0449-0.75781v-1.4609l-2.0449-0.75781-0.10156 0.011719-1.7637 0.40625-0.91406-1.9004 1.416-1.125 0.072266-0.072266 0.68359-2.0723-1.1426-0.91016-1.8672 1.127-0.054688 0.087891-0.78125 1.6309-2.0566-0.4707 0.0039062-1.8066-0.011719-0.10156-1.1934-1.8281zm1.1934 6.5117a2 2 0 0 1 2 2 2 2 0 0 1-2 2 2 2 0 0 1-2-2 2 2 0 0 1 2-2z" fill="#9a9996" stroke="#000"/>
</g>
</svg>
