<?xml version="1.0" encoding="UTF-8"?>
<svg version="1.1" viewBox="0 0 32 32" xmlns="http://www.w3.org/2000/svg">
<g stroke-linecap="round" stroke-linejoin="round">
<path d="m15.988 1.5-7.4863 10.502h3.6757v12.832c0 0.554 0.446 1 1 1h5.6445c0.554 0 1-0.446 1-1v-12.832h3.6757z" fill="#e01b24" stroke="#fff"/>
<path d="m6.3182 24.887q0.23783 0 0.3951 0.03452l-0.088226 1.0971q-0.14193-0.03836-0.34523-0.03836-0.56004 0-0.87459 0.28769-0.31071 0.28769-0.31071 0.80554v2.1826h-1.17v-4.2885h0.88609l0.17262 0.72115h0.057539q0.19947-0.36058 0.53703-0.57922 0.3414-0.22248 0.74033-0.22248zm2.7925 0.83239q-0.37208 0-0.58306 0.23783-0.21097 0.23399-0.24166 0.66745h1.6418q-0.0076718-0.43346-0.22632-0.66745-0.21865-0.23783-0.59073-0.23783zm0.16494 3.6134q-1.0357 0-1.6188-0.57155-0.58306-0.57155-0.58306-1.6188 0-1.0779 0.53703-1.6648 0.54086-0.59073 1.4922-0.59073 0.90911 0 1.4154 0.51785t0.50634 1.4308v0.56771h-2.7657q0.019179 0.49867 0.29536 0.77869 0.27618 0.28002 0.77485 0.28002 0.38743 0 0.73266-0.08055 0.34523-0.08055 0.72115-0.257v0.90527q-0.30687 0.15344-0.65594 0.22632-0.34907 0.07672-0.85157 0.07672zm4.5072-0.93212q0.30687 0 0.73649-0.13426v0.87075q-0.43729 0.19563-1.0741 0.19563-0.70197 0-1.0242-0.3529-0.31838-0.35674-0.31838-1.0664v-2.0676h-0.56004v-0.49483l0.64443-0.39126 0.33756-0.90527h0.748v0.91294h1.2006v0.87842h-1.2006v2.0676q0 0.24933 0.13809 0.36825 0.14193 0.11891 0.37208 0.11891zm4.6414 0.85541-0.15727-0.54853h-0.06138q-0.18796 0.2992-0.53319 0.46414-0.34523 0.16111-0.78636 0.16111-0.75567 0-1.1393-0.40277-0.38359-0.4066-0.38359-1.1661v-2.7964h1.17v2.5048q0 0.46414 0.16494 0.69814 0.16494 0.23015 0.52552 0.23015 0.491 0 0.70964-0.32605 0.21865-0.32989 0.21865-1.0894v-2.0177h1.17v4.2885zm4.5187-4.3691q0.23783 0 0.3951 0.03452l-0.08823 1.0971q-0.14193-0.03836-0.34523-0.03836-0.56004 0-0.87459 0.28769-0.31071 0.28769-0.31071 0.80554v2.1826h-1.17v-4.2885h0.88609l0.17262 0.72115h0.05754q0.19947-0.36058 0.53703-0.57922 0.3414-0.22248 0.74033-0.22248zm5.1324 4.3691h-1.17v-2.5048q0-0.46414-0.16494-0.6943-0.16494-0.23399-0.52552-0.23399-0.491 0-0.70964 0.32989-0.21865 0.32605-0.21865 1.0856v2.0177h-1.17v-4.2885h0.89376l0.15727 0.54854h0.06521q0.19563-0.31071 0.53703-0.46798 0.34523-0.16111 0.78252-0.16111 0.748 0 1.1354 0.40661 0.38743 0.40277 0.38743 1.1661z" fill="#3d3846" aria-label="return"/>
</g>
</svg>
