<?xml version="1.0" encoding="UTF-8"?>
<svg width="32" height="32" version="1.1" viewBox="0 0 8.4667 8.4667" xmlns="http://www.w3.org/2000/svg">
<g transform="scale(-1,1)">
<path d="m-6.0586 1.084a0.52917 0.52917 0 0 0-0.39648 0.082031c-1.2578 0.85158-1.8691 2.3884-1.5391 3.8711 0.33005 1.4827 1.5369 2.6179 3.0371 2.8555 1.5002 0.23762 2.9975-0.46925 3.7695-1.7773 0.77207-1.3081 0.66549-2.9596-0.26758-4.1582a0.52917 0.52917 0 0 0-0.74219-0.091797 0.52917 0.52917 0 0 0-0.091797 0.74219c0.66819 0.85833 0.74235 2.0339 0.18945 2.9707-0.5529 0.93676-1.617 1.4377-2.6914 1.2676s-1.9336-0.97534-2.1699-2.0371c-0.23636-1.0618 0.19888-2.1558 1.0996-2.7656a0.52917 0.52917 0 0 0 0.14258-0.73633 0.52917 0.52917 0 0 0-0.33984-0.22266z" color="#000000" fill="#fff" stroke-linecap="round" style="-inkscape-stroke:none"/>
<path d="m-2.7432 3.0356-0.39515-1.9713a0.28 0.28 0 0 1 0.39524-0.30768l1.8141 0.86665a0.3461 0.3461 0 0 1 0.063414 0.58539l-1.3257 1.032a0.3461 0.3461 0 0 1-0.55195-0.20508z" color="#000000" fill="#fff" fill-rule="evenodd" style="-inkscape-stroke:none"/>
</g>
</svg>
