<?xml version="1.0" encoding="UTF-8"?>
<svg width="32" height="32" version="1.1" viewBox="0 0 8.4667 8.4667" xml:space="preserve" xmlns="http://www.w3.org/2000/svg"><g><path transform="matrix(-.043451 2.4893 -2.4511 -.042784 704.3 12.851)" d="m1.6832 286.97-0.42391 8e-3 -0.21852-0.36332 0.20539-0.37092 0.42391-8e-3 0.21852 0.36333z" fill="#46a926" stroke="#111" stroke-linejoin="round" stroke-width=".09849" style="paint-order:normal"/><path transform="matrix(-.043451 2.4893 -2.4511 -.042784 705.2 14.434)" d="m1.6832 286.97-0.42391 8e-3 -0.21852-0.36332 0.20539-0.37092 0.42391-8e-3 0.21852 0.36333z" fill="#46a926" stroke="#111" stroke-linejoin="round" stroke-width=".09849" style="paint-order:normal"/><path transform="matrix(-.043451 2.4893 -2.4511 -.042784 705.2 11.267)" d="m1.6832 286.97-0.42391 8e-3 -0.21852-0.36332 0.20539-0.37092 0.42391-8e-3 0.21852 0.36333z" fill="#46a926" stroke="#111" stroke-linejoin="round" stroke-width=".09849" style="paint-order:normal"/><path transform="matrix(-.043451 2.4893 -2.4511 -.042784 706.1 12.85)" d="m1.6832 286.97-0.42391 8e-3 -0.21852-0.36332 0.20539-0.37092 0.42391-8e-3 0.21852 0.36333z" fill="#46a926" stroke="#111" stroke-linejoin="round" stroke-width=".09849" style="paint-order:normal"/><path transform="matrix(-.043451 2.4893 -2.4511 -.042784 707 14.432)" d="m1.6832 286.97-0.42391 8e-3 -0.21852-0.36332 0.20539-0.37092 0.42391-8e-3 0.21852 0.36333z" fill="#46a926" stroke="#111" stroke-linejoin="round" stroke-width=".09849" style="paint-order:normal"/><path transform="matrix(-.043451 2.4893 -2.4511 -.042784 707 11.266)" d="m1.6832 286.97-0.42391 8e-3 -0.21852-0.36332 0.20539-0.37092 0.42391-8e-3 0.21852 0.36333z" fill="#46a926" stroke="#111" stroke-linejoin="round" stroke-width=".09849" style="paint-order:normal"/><path transform="matrix(-.043451 2.4893 -2.4511 -.042784 707.9 12.848)" d="m1.6832 286.97-0.42391 8e-3 -0.21852-0.36332 0.20539-0.37092 0.42391-8e-3 0.21852 0.36333z" fill="#46a926" stroke="#111" stroke-linejoin="round" stroke-width=".09849" style="paint-order:normal"/><path transform="matrix(-.031299 1.7931 -1.7656 -.030819 512.06 9.0024)" d="m1.6832 286.97-0.42391 8e-3 -0.21852-0.36332 0.20539-0.37092 0.42391-8e-3 0.21852 0.36333z" fill="#d8d04f" stroke="#111" stroke-linejoin="round" stroke-width=".091152" style="paint-order:normal"/><path transform="matrix(-.043451 2.4893 -2.4511 -.042784 709.7 12.847)" d="m1.6832 286.97-0.42391 8e-3 -0.21852-0.36332 0.20539-0.37092 0.42391-8e-3 0.21852 0.36333z" fill="#d8d04f" stroke="#111" stroke-linejoin="round" stroke-width=".06566" style="paint-order:normal"/><path transform="matrix(-.031299 1.7931 -1.7656 -.030819 507.16 9.0059)" d="m1.6832 286.97-0.42391 8e-3 -0.21852-0.36332 0.20539-0.37092 0.42391-8e-3 0.21852 0.36333z" fill="#d8d04f" stroke="#111" stroke-linejoin="round" stroke-width=".091152" style="paint-order:normal"/><path transform="matrix(-.031299 1.7931 -1.7656 -.030819 507.16 11.877)" d="m1.6832 286.97-0.42391 8e-3 -0.21852-0.36332 0.20539-0.37092 0.42391-8e-3 0.21852 0.36333z" fill="#d8d04f" stroke="#111" stroke-linejoin="round" stroke-width=".091152" style="paint-order:normal"/><path transform="matrix(-.031299 1.7931 -1.7656 -.030819 512.06 11.874)" d="m1.6832 286.97-0.42391 8e-3 -0.21852-0.36332 0.20539-0.37092 0.42391-8e-3 0.21852 0.36333z" fill="#d8d04f" stroke="#111" stroke-linejoin="round" stroke-width=".091152" style="paint-order:normal"/><path transform="matrix(-.01068 .61184 -.61184 -.01068 182.12 3.4342)" d="m5.6256 284.86-0.23441-7e-3 -0.11118-0.20648 0.12323-0.19953 0.23441 7e-3 0.11118 0.20648z" fill="#111" stroke="#111" stroke-linejoin="round" stroke-width=".17789" style="paint-order:normal"/><path transform="matrix(.01068 -.61184 -.61184 -.01068 182.12 3.4342)" d="m-6.9056 284.83-0.23441-7e-3 -0.11118-0.20648 0.12323-0.19952 0.23441 7e-3 0.11118 0.20648z" fill="#111" stroke="#111" stroke-linejoin="round" stroke-width=".17789" style="paint-order:normal"/><g transform="matrix(-.67489 0 0 .67489 1.2784 1.3085)" fill="#e01b24" stroke="#fff" stroke-width=".39204"><path d="m-2.8823 0.72959a0.28 0.28 0 0 1 0.13936 0.026799l1.8139 0.86677a0.3461 0.3461 0 0 1 0.063553 0.58576l-0.27871 0.21669c0.63525 1.1371 0.63203 2.5451-0.043645 3.6899-0.772 1.308-2.2693 2.0148-3.7695 1.7772-1.5002-0.2376-2.7067-1.3726-3.0368-2.8553-0.33-1.4827 0.28125-3.0198 1.539-3.8714a0.52917 0.52917 0 0 1 0.39663-0.08193 0.52917 0.52917 0 0 1 0.3392 0.22282 0.52917 0.52917 0 0 1-0.14242 0.73583c-0.90072 0.6098-1.3359 1.7039-1.0995 2.7657 0.2363 1.0618 1.0956 1.8674 2.17 2.0375 1.0744 0.1701 2.1385-0.33123 2.6914-1.268 0.45578-0.77225 0.48439-1.7063 0.10643-2.4916l-0.19832 0.1539a0.3461 0.3461 0 0 1-0.5513-0.20444l-0.3951-1.9717a0.28 0.28 0 0 1 0.25574-0.33461z" fill="#e01b24" stroke="#fff" stroke-width=".39204"/></g></g></svg>
