<?xml version="1.0" encoding="UTF-8"?>
<svg width="22" height="22" version="1.1" viewBox="0 0 5.8208 5.8208" xmlns="http://www.w3.org/2000/svg">
<rect x=".39687" y="1.1906" width="5.0271" height="3.4396" fill="#62a0ea" stroke="#3d3846" stroke-width=".26458"/>
<path d="m0.39687 4.6302h5.0271v-2.6964s-1.3994 1.0707-2.2329 1.1503c-1.8363 0.17536-2.7942-0.79703-2.7942-0.79703z" fill="#33d17a" stroke-width="35"/>
<rect x=".39687" y="1.1906" width="5.0271" height="3.4396" fill="none" stroke="#3d3846" stroke-width=".26458"/>
<path d="m2.7227 1.737-0.19629 0.044964-0.039042 0.29805 0.00458 0.013462 0.10851 0.22428-0.22698 0.1812-0.19467-0.15562-0.012117-0.00754-0.29941-0.028271-0.087238 0.18147 0.20867 0.2162 0.013463 0.00485 0.24314 0.054926v0.29078l-0.24314 0.054926-0.013463 0.00485-0.20867 0.2162 0.087238 0.18147 0.29941-0.028271 0.012117-0.00754 0.19467-0.15562 0.22698 0.1812-0.10851 0.22428-0.00458 0.013462 0.039042 0.29805 0.19629 0.044964 0.16451-0.25201 0.00162-0.014001-5.366e-4 -0.24905 0.28352-0.064888 0.1077 0.22482 0.00754 0.012116 0.2574 0.15535 0.15751-0.12547-0.094238-0.28567-0.00996-0.00996-0.19521-0.15509 0.12601-0.26198 0.24314 0.056003 0.014001 0.00162 0.28191-0.10447v-0.2014l-0.28191-0.10447-0.014001 0.0016155-0.24314 0.056003-0.12601-0.26198 0.19521-0.15509 0.0099624-0.0099621 0.094238-0.28567-0.15751-0.12547-0.25741 0.15535-0.0075391 0.012116-0.1077 0.22482-0.28352-0.064888 5.366e-4 -0.24905-0.0016152-0.014001zm0.16451 0.89766a0.27572 0.27571 0 0 1 0.27572 0.27571 0.27572 0.27571 0 0 1-0.27572 0.27571 0.27572 0.27571 0 0 1-0.27572-0.27571 0.27572 0.27571 0 0 1 0.27572-0.27571z" fill="#9a9996" stroke="#000" stroke-linejoin="round" stroke-width=".13229"/>
</svg>
