<?xml version="1.0" encoding="UTF-8"?>
<svg version="1.1" viewBox="0 0 32 32" xml:space="preserve" xmlns="http://www.w3.org/2000/svg"><g stroke-linejoin="round"><g transform="matrix(2.5284 0 0 2.5284 -.19129 -718.98)" stroke="#111"><path transform="matrix(4.0603 .070872 -.069785 3.998 20.46 -851.19)" d="m1.6832 286.97-0.42391 8e-3 -0.21852-0.36332 0.20539-0.37092 0.42391-8e-3 0.21852 0.36333z" fill="#46a926" stroke-width=".09849" style="paint-order:normal"/><path transform="matrix(4.0603 .070872 -.069785 3.998 23.041 -852.66)" d="m1.6832 286.97-0.42391 8e-3 -0.21852-0.36332 0.20539-0.37092 0.42391-8e-3 0.21852 0.36333z" fill="#46a926" stroke-width=".09849" style="paint-order:normal"/><path d="m10.122 294.37-2.259-2.2245 0.26213-0.31413 1.7218-2e-3 0.8619 1.4681z" fill="#f66151" stroke-width=".39688" style="paint-order:normal"/><path transform="matrix(4.0603 .070872 -.069785 3.998 17.876 -852.66)" d="m1.6832 286.97-0.42391 8e-3 -0.21852-0.36332 0.20539-0.37092 0.42391-8e-3 0.21852 0.36333z" fill="#46a926" stroke-width=".09849" style="paint-order:normal"/><path transform="matrix(4.0603 .070872 -.069785 3.998 20.458 -854.13)" d="m1.6832 286.97-0.42391 8e-3 -0.21852-0.36332 0.20539-0.37092 0.42391-8e-3 0.21852 0.36333z" fill="#46a926" stroke-width=".09849" style="paint-order:normal"/><path d="m7.9325 292.21-1.8476-1.8541 1.1792-1e-3 0.8619 1.4681z" fill="#f66151" stroke-width=".39688" style="paint-order:normal"/><path transform="matrix(4.0603 .070872 -.069785 3.998 23.039 -855.59)" d="m1.6832 286.97-0.42391 8e-3 -0.21852-0.36332 0.20539-0.37092 0.42391-8e-3 0.21852 0.36333z" fill="#f66151" stroke-width=".09849" style="paint-order:normal"/><path transform="matrix(4.0603 .070872 -.069785 3.998 17.874 -855.59)" d="m1.6832 286.97-0.42391 8e-3 -0.21852-0.36332 0.20539-0.37092 0.42391-8e-3 0.21852 0.36333z" fill="#46a926" stroke-width=".09849" style="paint-order:normal"/><path transform="matrix(4.0603 .070872 -.069785 3.998 20.456 -857.06)" d="m1.6832 286.97-0.42391 8e-3 -0.21852-0.36332 0.20539-0.37092 0.42391-8e-3 0.21852 0.36333z" fill="#f66151" stroke-width=".09849" style="paint-order:normal"/><path transform="matrix(2.9247 .051051 -.050268 2.8799 14.183 -537.64)" d="m1.6832 286.97-0.42391 8e-3 -0.21852-0.36332 0.20539-0.37092 0.42391-8e-3 0.21852 0.36333z" fill="#d8d04f" stroke-width=".091152" style="paint-order:normal"/><path d="m4.6804 288.89-1.5514-1.5849 0.30967-0.52927 1.2402-1e-3 0.62084 1.0575z" fill="#3584e4" stroke-width=".26458" style="paint-order:normal"/><path transform="matrix(4.0603 .070872 -.069785 3.998 20.454 -860)" d="m1.6832 286.97-0.42391 8e-3 -0.21852-0.36332 0.20539-0.37092 0.42391-8e-3 0.21852 0.36333z" fill="#3584e4" stroke-width=".06566" style="paint-order:normal"/><path transform="matrix(2.9247 .051051 -.050268 2.8799 14.188 -529.65)" d="m1.6832 286.97-0.42391 8e-3 -0.21852-0.36332 0.20539-0.37092 0.42391-8e-3 0.21852 0.36333z" fill="#d8d04f" stroke-width=".091152" style="paint-order:normal"/><path transform="matrix(2.9247 .051051 -.050268 2.8799 18.872 -529.65)" d="m1.6832 286.97-0.42391 8e-3 -0.21852-0.36332 0.20539-0.37092 0.42391-8e-3 0.21852 0.36333z" fill="#d8d04f" stroke-width=".091152" style="paint-order:normal"/><path transform="matrix(2.9247 .051051 -.050268 2.8799 18.866 -537.64)" d="m1.6832 286.97-0.42391 8e-3 -0.21852-0.36332 0.20539-0.37092 0.42391-8e-3 0.21852 0.36333z" fill="#3584e4" stroke-width=".091152" style="paint-order:normal"/><path transform="matrix(.99797 .01742 -.01742 .99797 5.1005 .51472)" d="m5.6256 284.86-0.23441-7e-3 -0.11118-0.20648 0.12323-0.19953 0.23441 7e-3 0.11118 0.20648z" fill="#111" stroke-width=".17789" style="paint-order:normal"/><path transform="matrix(-.99797 -.01742 -.01742 .99797 5.1005 .51472)" d="m-6.9056 284.83-0.23441-7e-3 -0.11118-0.20648 0.12323-0.19952 0.23441 7e-3 0.11118 0.20648z" fill="#111" stroke-width=".17789" style="paint-order:normal"/></g><path d="m2.9839 2.9839 26.032 26.032" fill="#813d9c" stroke="#fff" stroke-linecap="round" stroke-width="2"/></g></svg>
