<?xml version="1.0" encoding="UTF-8"?>
<svg width="32" height="32" version="1.1" viewBox="0 0 8.4667 8.4667" xmlns="http://www.w3.org/2000/svg" xmlns:cc="http://creativecommons.org/ns#" xmlns:dc="http://purl.org/dc/elements/1.1/" xmlns:rdf="http://www.w3.org/1999/02/22-rdf-syntax-ns#">
<metadata>
<rdf:RDF>
<cc:Work rdf:about="">
<dc:format>image/svg+xml</dc:format>
<dc:type rdf:resource="http://purl.org/dc/dcmitype/StillImage"/>
</cc:Work>
</rdf:RDF>
</metadata>
<g transform="translate(0 -284.3)">
<g stroke-linejoin="round">
<path transform="matrix(-.043451 2.4893 -2.4511 -.042784 704.3 297.15)" d="m1.6832 286.97-0.42391 8e-3 -0.21852-0.36332 0.20539-0.37092 0.42391-8e-3 0.21852 0.36333z" fill="#46a926" stroke="#111" stroke-width=".09849" style="paint-order:normal"/>
<path transform="matrix(-.043451 2.4893 -2.4511 -.042784 705.2 298.73)" d="m1.6832 286.97-0.42391 8e-3 -0.21852-0.36332 0.20539-0.37092 0.42391-8e-3 0.21852 0.36333z" fill="#46a926" stroke="#111" stroke-width=".09849" style="paint-order:normal"/>
<path transform="matrix(-.043451 2.4893 -2.4511 -.042784 705.2 295.57)" d="m1.6832 286.97-0.42391 8e-3 -0.21852-0.36332 0.20539-0.37092 0.42391-8e-3 0.21852 0.36333z" fill="#46a926" stroke="#111" stroke-width=".09849" style="paint-order:normal"/>
<path transform="matrix(-.043451 2.4893 -2.4511 -.042784 706.1 297.15)" d="m1.6832 286.97-0.42391 8e-3 -0.21852-0.36332 0.20539-0.37092 0.42391-8e-3 0.21852 0.36333z" fill="#46a926" stroke="#111" stroke-width=".09849" style="paint-order:normal"/>
<path transform="matrix(-.043451 2.4893 -2.4511 -.042784 707 298.73)" d="m1.6832 286.97-0.42391 8e-3 -0.21852-0.36332 0.20539-0.37092 0.42391-8e-3 0.21852 0.36333z" fill="#46a926" stroke="#111" stroke-width=".09849" style="paint-order:normal"/>
<path transform="matrix(-.043451 2.4893 -2.4511 -.042784 707 295.57)" d="m1.6832 286.97-0.42391 8e-3 -0.21852-0.36332 0.20539-0.37092 0.42391-8e-3 0.21852 0.36333z" fill="#46a926" stroke="#111" stroke-width=".09849" style="paint-order:normal"/>
<path transform="matrix(-.043451 2.4893 -2.4511 -.042784 707.9 297.15)" d="m1.6832 286.97-0.42391 8e-3 -0.21852-0.36332 0.20539-0.37092 0.42391-8e-3 0.21852 0.36333z" fill="#46a926" stroke="#111" stroke-width=".09849" style="paint-order:normal"/>
<path transform="matrix(-.031299 1.7931 -1.7656 -.030819 512.06 293.3)" d="m1.6832 286.97-0.42391 8e-3 -0.21852-0.36332 0.20539-0.37092 0.42391-8e-3 0.21852 0.36333z" fill="#d8d04f" stroke="#111" stroke-width=".091152" style="paint-order:normal"/>
<path transform="matrix(-.043451 2.4893 -2.4511 -.042784 709.7 297.15)" d="m1.6832 286.97-0.42391 8e-3 -0.21852-0.36332 0.20539-0.37092 0.42391-8e-3 0.21852 0.36333z" fill="#d8d04f" stroke="#111" stroke-width=".06566" style="paint-order:normal"/>
<path transform="matrix(-.031299 1.7931 -1.7656 -.030819 507.16 293.31)" d="m1.6832 286.97-0.42391 8e-3 -0.21852-0.36332 0.20539-0.37092 0.42391-8e-3 0.21852 0.36333z" fill="#d8d04f" stroke="#111" stroke-width=".091152" style="paint-order:normal"/>
<path transform="matrix(-.031299 1.7931 -1.7656 -.030819 507.16 296.18)" d="m1.6832 286.97-0.42391 8e-3 -0.21852-0.36332 0.20539-0.37092 0.42391-8e-3 0.21852 0.36333z" fill="#d8d04f" stroke="#111" stroke-width=".091152" style="paint-order:normal"/>
<path transform="matrix(-.031299 1.7931 -1.7656 -.030819 512.06 296.17)" d="m1.6832 286.97-0.42391 8e-3 -0.21852-0.36332 0.20539-0.37092 0.42391-8e-3 0.21852 0.36333z" fill="#d8d04f" stroke="#111" stroke-width=".091152" style="paint-order:normal"/>
<path transform="matrix(-.01068 .61184 -.61184 -.01068 182.12 287.73)" d="m5.6256 284.86-0.23441-7e-3 -0.11118-0.20648 0.12323-0.19953 0.23441 7e-3 0.11118 0.20648z" fill="#111" stroke="#111" stroke-width=".17789" style="paint-order:normal"/>
<path transform="matrix(.01068 -.61184 -.61184 -.01068 182.12 287.73)" d="m-6.9056 284.83-0.23441-7e-3 -0.11118-0.20648 0.12323-0.19952 0.23441 7e-3 0.11118 0.20648z" fill="#111" stroke="#111" stroke-width=".17789" style="paint-order:normal"/>
<path d="m3.1938 285.66c-0.77864 0.20864-1.4954 0.65108-2.037 1.2966-1.0833 1.291-1.2436 3.1254-0.40094 4.585l0.47497-0.34158c-0.56871-0.98504-0.012979-2.9958 0.85906-3.7261 0.83542-0.6996 1.3485-0.91457 2.514-0.66727 1.1126 0.23608 1.7616 1.5928 1.7616 2.7302h1.8821c4e-7 -1.6853-1.058-3.197-2.6417-3.7734-0.79184-0.28821-1.6335-0.3121-2.4121-0.10347z" color="#000000" fill="#e01b24" stroke="#fff" stroke-width=".43802"/>
<path d="m3.8169 289.84 2.7291-1.5756" fill="#fff" stroke="#fff" stroke-linecap="round" stroke-width=".87604"/>
</g>
</g>
</svg>
