<?xml version="1.0" encoding="UTF-8"?>
<svg width="48" height="48" version="1.1" viewBox="0 0 12.7 12.7" xmlns="http://www.w3.org/2000/svg" xmlns:cc="http://creativecommons.org/ns#" xmlns:dc="http://purl.org/dc/elements/1.1/" xmlns:rdf="http://www.w3.org/1999/02/22-rdf-syntax-ns#">
<metadata>
<rdf:RDF>
<cc:Work rdf:about="">
<dc:format>image/svg+xml</dc:format>
<dc:type rdf:resource="http://purl.org/dc/dcmitype/StillImage"/>
<dc:title/>
</cc:Work>
</rdf:RDF>
</metadata>
<g transform="translate(0 -284.3)">
<g stroke="#111" stroke-linejoin="round">
<path transform="matrix(4.0603 .070872 -.069785 3.998 20.46 -851.19)" d="m1.6832 286.97-0.42391 8e-3 -0.21852-0.36332 0.20539-0.37092 0.42391-8e-3 0.21852 0.36333z" fill="#46a926" stroke-width=".09849" style="paint-order:normal"/>
<path transform="matrix(4.0603 .070872 -.069785 3.998 23.041 -852.66)" d="m1.6832 286.97-0.42391 8e-3 -0.21852-0.36332 0.20539-0.37092 0.42391-8e-3 0.21852 0.36333z" fill="#46a926" stroke-width=".09849" style="paint-order:normal"/>
<path transform="matrix(4.0603 .070872 -.069785 3.998 17.876 -852.66)" d="m1.6832 286.97-0.42391 8e-3 -0.21852-0.36332 0.20539-0.37092 0.42391-8e-3 0.21852 0.36333z" fill="#46a926" stroke-width=".09849" style="paint-order:normal"/>
<path transform="matrix(4.0603 .070872 -.069785 3.998 20.458 -854.13)" d="m1.6832 286.97-0.42391 8e-3 -0.21852-0.36332 0.20539-0.37092 0.42391-8e-3 0.21852 0.36333z" fill="#46a926" stroke-width=".09849" style="paint-order:normal"/>
<path transform="matrix(4.0603 .070872 -.069785 3.998 23.039 -855.59)" d="m1.6832 286.97-0.42391 8e-3 -0.21852-0.36332 0.20539-0.37092 0.42391-8e-3 0.21852 0.36333z" fill="#46a926" stroke-width=".09849" style="paint-order:normal"/>
<path transform="matrix(4.0603 .070872 -.069785 3.998 17.874 -855.59)" d="m1.6832 286.97-0.42391 8e-3 -0.21852-0.36332 0.20539-0.37092 0.42391-8e-3 0.21852 0.36333z" fill="#46a926" stroke-width=".09849" style="paint-order:normal"/>
<path transform="matrix(4.0603 .070872 -.069785 3.998 20.456 -857.06)" d="m1.6832 286.97-0.42391 8e-3 -0.21852-0.36332 0.20539-0.37092 0.42391-8e-3 0.21852 0.36333z" fill="#46a926" stroke-width=".09849" style="paint-order:normal"/>
<path transform="matrix(2.9247 .051051 -.050268 2.8799 14.183 -537.64)" d="m1.6832 286.97-0.42391 8e-3 -0.21852-0.36332 0.20539-0.37092 0.42391-8e-3 0.21852 0.36333z" fill="#d8d04f" stroke-width=".091152" style="paint-order:normal"/>
<path transform="matrix(4.0603 .070872 -.069785 3.998 20.454 -860)" d="m1.6832 286.97-0.42391 8e-3 -0.21852-0.36332 0.20539-0.37092 0.42391-8e-3 0.21852 0.36333z" fill="#d8d04f" stroke-width=".06566" style="paint-order:normal"/>
<path transform="matrix(2.9247 .051051 -.050268 2.8799 14.188 -529.65)" d="m1.6832 286.97-0.42391 8e-3 -0.21852-0.36332 0.20539-0.37092 0.42391-8e-3 0.21852 0.36333z" fill="#d8d04f" stroke-width=".091152" style="paint-order:normal"/>
<path transform="matrix(2.9247 .051051 -.050268 2.8799 18.872 -529.65)" d="m1.6832 286.97-0.42391 8e-3 -0.21852-0.36332 0.20539-0.37092 0.42391-8e-3 0.21852 0.36333z" fill="#d8d04f" stroke-width=".091152" style="paint-order:normal"/>
<path transform="matrix(2.9247 .051051 -.050268 2.8799 18.866 -537.64)" d="m1.6832 286.97-0.42391 8e-3 -0.21852-0.36332 0.20539-0.37092 0.42391-8e-3 0.21852 0.36333z" fill="#d8d04f" stroke-width=".091152" style="paint-order:normal"/>
<path transform="matrix(.99797 .01742 -.01742 .99797 5.1005 .51472)" d="m5.6256 284.86-0.23441-7e-3 -0.11118-0.20648 0.12323-0.19953 0.23441 7e-3 0.11118 0.20648z" fill="#111" stroke-width=".17789" style="paint-order:normal"/>
<path transform="matrix(-.99797 -.01742 -.01742 .99797 5.1005 .51472)" d="m-6.9056 284.83-0.23441-7e-3 -0.11118-0.20648 0.12323-0.19952 0.23441 7e-3 0.11118 0.20648z" fill="#111" stroke-width=".17789" style="paint-order:normal"/>
</g>
</g>
</svg>
