<?xml version="1.0" encoding="UTF-8"?>
<svg version="1.1" viewBox="0 0 32 32" xmlns="http://www.w3.org/2000/svg">
<g stroke-linecap="round">
<path transform="matrix(1.4827 0 0 1.471 -8.9891 -7.5397)" d="m16.85 5.8027-7.9961 0.00781v2.166c0 2.3657 5.5204 5.4311 5.5078 8.0234-0.01527 3.155-5.5078 5.7773-5.5078 7.7109v2.4922h8l8-0.0039-2e-3 -2.4902c-7.96e-4 -1.9336-5.4951-4.556-5.5117-7.7109-0.01362-2.5924 5.5068-5.6577 5.5059-8.0234l-2e-3 -2.168z" fill="none" stroke="#1c71d8" stroke-width="1.3543"/>
<path d="m24.162 29.049c1.1554 0.03115-6.4421-8.8454-8.2018-8.8423-1.7598 0.0032-9.2389 8.9397-7.9582 8.8811 1.1912-0.05457 14.882-0.07318 16.16-0.03878z" fill="#e5e5e5" stroke-width="2"/>
<path d="m7.9996 4.9827c-0.87544 0.92399 6.2796 8.3748 8.0393 8.3717 1.7598-3e-3 8.8429-7.479 7.9586-8.3999-0.43921-0.45736-4.2438 3.8294-7.9979 3.833-3.8047 0.0034297-7.5594-4.2698-8-3.8047z" fill="#e5e5e5" stroke-width="2"/>
</g>
</svg>
