<?xml version="1.0" encoding="UTF-8"?>
<svg width="32" height="32" version="1.1" viewBox="0 0 8.4667 8.4667" xmlns="http://www.w3.org/2000/svg">
<g stroke-linecap="round">
<path d="m5.5092 1.8624a2.9104 2.9104 0 0 1 1.5324 3.3802 2.9104 2.9104 0 0 1-3.0341 2.1373 2.9104 2.9104 0 0 1-2.6669-2.581 2.9104 2.9104 0 0 1 2.0369-3.1024" fill="none" stroke="#1a5fb4" stroke-width=".79375"/>
<path transform="translate(2.3285 1.0667)" d="m0.7034 1.9409 0.002464-2.5746 2.2284 1.2894z" fill="#1a5fb4" stroke="#1a5fb4" stroke-linejoin="round" stroke-width=".52917"/>
<path d="m4.0019 4.1553v-0.28094q0-0.36446 0.15565-0.63401 0.15565-0.26955 0.56947-0.57326 0.39863-0.28473 0.52391-0.46317 0.12908-0.17843 0.12908-0.39863 0-0.24677-0.18223-0.37585-0.18223-0.12908-0.50872-0.12908-0.56947 0-1.2984 0.37205l-0.41381-0.83142q0.84661-0.47456 1.7957-0.47456 0.78207 0 1.2414 0.37585 0.46317 0.37585 0.46317 1.0023 0 0.41761-0.18982 0.72133-0.18982 0.30372-0.72133 0.68336-0.36446 0.26955-0.46317 0.41002-0.094911 0.14047-0.094911 0.36826v0.22779zm-0.12149 1.2984q0-0.3189 0.17084-0.48215 0.17084-0.16325 0.49734-0.16325 0.31511 0 0.48595 0.16704 0.17464 0.16704 0.17464 0.47835 0 0.29992-0.17464 0.47456-0.17464 0.17084-0.48595 0.17084-0.3189 0-0.49354-0.16704-0.17464-0.17084-0.17464-0.47835z" fill="#2ec27e" stroke="#fff" stroke-width=".26458" aria-label="?"/>
</g>
</svg>
