<?xml version="1.0" encoding="UTF-8"?>
<svg width="50" height="35" version="1.1" viewBox="0 0 13.229 9.2604" xmlns="http://www.w3.org/2000/svg">
	<defs>
		<linearGradient id="b-5-2" x1="-145.01" x2="-141.53" y1="256.94" y2="254.96" gradientTransform="matrix(-.90896 -.52547 -.52479 .91015 12.08 -14.841)" gradientUnits="userSpaceOnUse">
			<stop stop-color="#3a3a3a" offset="0"/>
			<stop stop-color="#696969" offset="1"/>
		</linearGradient>
		<linearGradient id="a-6-9" x1="4.9493" x2="6.6664" y1="291.43" y2="288.52" gradientTransform="matrix(-1.0496 0 0 1.0509 12.08 -14.841)" gradientUnits="userSpaceOnUse">
			<stop stop-color="#808080" offset="0"/>
			<stop stop-color="#b2b2b2" offset="1"/>
		</linearGradient>
	</defs>
	<g transform="matrix(-.95277 0 0 .95152 11.509 -273.62)" stroke-linecap="round" stroke-width=".27788">
		<g transform="matrix(-1.0236 0 0 1.0245 -.054465 -7.1752)" aria-label="A">
			<path d="m-6.9715 291.01-1.1955 3.2418h2.3954zm-0.4974-0.86827h0.99916l2.4826 6.5142h-0.91626l-0.59339-1.6711h-2.9364l-0.59339 1.6711h-0.92935z" stroke-width=".075407"/>
		</g>
		<g stroke-width=".29184">
			<path d="m0.34227 289.67c0.50524-0.30331 0.64077 0.0113 0.84539 0.36099l3.0939 5.3011c0.10231 0.17528 0.02169 0.82088-0.10669 0.90471-0.11066 0.0715-0.7431-0.18565-0.84541-0.36094l-3.0939-5.3011c-0.20462-0.35059-0.43864-0.57727 0.10671-0.90474z" fill="url(#b-5-2)" stroke="#000" style="paint-order:stroke markers fill"/>
			<path d="m0.055767 288.27c0.78399 0.91689 1.4748 2.0614 2.0228 3.0143 0.071663 0.14636-1.0956 0.73029-1.1741 0.71376-0.078564-0.0165-1.0048-1.6884-1.0989-1.8682-0.054455-0.10417-0.63259-1.1499-0.55843-1.3643 0.077891-0.15419 0.70981-0.5358 0.80869-0.49556z" fill="url(#a-6-9)" stroke="#000307" stroke-linejoin="round" style="paint-order:stroke markers fill"/>
			<path d="m4.2845 295.32c0.10231 0.17538 0.22092 1.306 0.1014 1.3837-0.11952 0.0775-0.97278-0.6486-1.0751-0.8239 0.48431-0.31702 0.6813-0.41863 0.97369-0.55977z" fill="#ececec" stroke="#b3b3b3" style="paint-order:stroke markers fill"/>
		</g>
		<ellipse cx="4.3832" cy="296.73" rx=".12243" ry=".12179" stroke-width="1.0503" style="paint-order:stroke markers fill"/>
	</g>
</svg>
