<?xml version="1.0" encoding="UTF-8"?>
<svg width="50" height="35" version="1.1" viewBox="0 0 13.229 9.2604" xmlns="http://www.w3.org/2000/svg">
	<defs>
		<radialGradient id="radialGradient1412" cx="6.6146" cy="4.6302" r="5.424" gradientTransform="matrix(1 0 0 .63415 -.79362 1.694)" gradientUnits="userSpaceOnUse">
			<stop stop-color="#800000" offset="0"/>
			<stop stop-color="#d40000" offset="1"/>
		</radialGradient>
	</defs>
	<g transform="matrix(1 0 0 1 .7937 2.991e-5)">
		<rect x="2.1167" y="2.3812" width="7.4084" height="4.4979" fill="url(#radialGradient1412)" fill-rule="evenodd" stroke="#500" stroke-linecap="round" stroke-linejoin="round" stroke-width="1.0583" style="paint-order:stroke markers fill"/>
		<g fill="#fff" stroke-width=".26458" aria-label="err">
			<path d="m4.2339 3.7381v0.13769h-1.2943q0.018359 0.29068 0.17441 0.44367 0.15758 0.15146 0.43755 0.15146 0.16217 0 0.31363-0.039777 0.15299-0.039778 0.30292-0.11933v0.2662q-0.15146 0.064256-0.31057 0.097914-0.15911 0.033658-0.32281 0.033658-0.41001 0-0.65021-0.23866-0.23866-0.23866-0.23866-0.64562 0-0.42072 0.22643-0.66704 0.22796-0.24784 0.61349-0.24784 0.34576 0 0.54618 0.22337 0.20195 0.22184 0.20195 0.60431zm-0.2815-0.082615q-0.0030598-0.23102-0.13004-0.36871-0.12545-0.13769-0.33352-0.13769-0.2356 0-0.37789 0.1331-0.14075 0.1331-0.16217 0.37483z"/>
			<path d="m5.6889 3.2148q-0.047427-0.027538-0.10403-0.039777-0.055076-0.013769-0.12239-0.013769-0.23866 0-0.36718 0.15605-0.12698 0.15452-0.12698 0.4452v0.90264h-0.28303v-1.7135h0.28303v0.2662q0.088734-0.15605 0.23102-0.23102 0.14228-0.076495 0.34576-0.076495 0.029068 0 0.064256 0.00459 0.035188 0.00306 0.078025 0.010709z"/>
			<path d="m6.922 3.2148q-0.047427-0.027538-0.10403-0.039777-0.055077-0.013769-0.12239-0.013769-0.23866 0-0.36718 0.15605-0.12698 0.15452-0.12698 0.4452v0.90264h-0.28303v-1.7135h0.28303v0.2662q0.088734-0.15605 0.23102-0.23102 0.14228-0.076495 0.34576-0.076495 0.029068 0 0.064256 0.00459 0.035188 0.00306 0.078025 0.010709z"/>
		</g>
	</g>
</svg>
