<?xml version="1.0" encoding="UTF-8"?>
<svg width="50" height="35" version="1.1" viewBox="0 0 13.229 9.2604" xmlns="http://www.w3.org/2000/svg" xmlns:cc="http://creativecommons.org/ns#" xmlns:dc="http://purl.org/dc/elements/1.1/" xmlns:rdf="http://www.w3.org/1999/02/22-rdf-syntax-ns#">
	<metadata>
		<rdf:RDF>
			<cc:Work rdf:about="">
				<dc:format>image/svg+xml</dc:format>
				<dc:type rdf:resource="http://purl.org/dc/dcmitype/StillImage"/>
				<dc:title/>
			</cc:Work>
		</rdf:RDF>
	</metadata>
	<g transform="translate(0 -287.74)">
		<path d="m3.8364 288.4h1.7991l0.17572 0.51626h3.5814v3.4525h-5.5561z" fill="#ac939d" stroke="#241c1f" stroke-linejoin="round" stroke-width=".26458"/>
		<path d="m3.5718 289.46h6.0854l-0.17124 2.9104h-5.7429z" fill="#c8b7be" stroke="#241c1f" stroke-linejoin="round" stroke-width=".26458" style="paint-order:normal"/>
		<g transform="matrix(1.2394 0 0 1.2394 -1.5836 -69.588)" stroke-width=".21266">
			<g transform="matrix(.99102 0 0 1.0168 2.8274 -5.0769)">
				<rect x="2.8507" y="292.63" width="2.1569" height="2.7266" rx=".028021" ry=".02731" fill="#fff" stroke="#241c1f" stroke-width=".21266" style="paint-order:normal"/>
			</g>
			<g transform="matrix(.99102 0 0 1.0168 5.6026 -5.0769)">
				<rect x="2.8507" y="292.63" width="2.1569" height="2.7266" rx=".028021" ry=".02731" fill="#fff" stroke="#241c1f" stroke-width=".21266" style="paint-order:normal"/>
			</g>
			<g transform="matrix(.99102 0 0 1.0168 .052243 -5.0769)">
				<rect x="2.8507" y="292.63" width="2.1569" height="2.7266" rx=".028021" ry=".02731" fill="#fff" stroke="#241c1f" stroke-width=".21266" style="paint-order:normal"/>
			</g>
		</g>
	</g>
</svg>
