<?xml version="1.0" encoding="UTF-8"?>
<svg width="50" height="35" version="1.1" viewBox="0 0 13.229 9.2604" xmlns="http://www.w3.org/2000/svg" xmlns:cc="http://creativecommons.org/ns#" xmlns:dc="http://purl.org/dc/elements/1.1/" xmlns:rdf="http://www.w3.org/1999/02/22-rdf-syntax-ns#">
 <metadata>
  <rdf:RDF>
   <cc:Work rdf:about="">
    <dc:format>image/svg+xml</dc:format>
    <dc:type rdf:resource="http://purl.org/dc/dcmitype/StillImage"/>
    <dc:title/>
   </cc:Work>
  </rdf:RDF>
 </metadata>
 <g transform="matrix(1.0222 0 0 .99968 -.14699 .53066)" fill="#000080" stroke-width=".26173" aria-label="except">
  <path d="m2.5388 4.5412v0.15931h-1.3073q0.020304 0.1968 0.14213 0.2952 0.12183 0.098399 0.34049 0.098399 0.17649 0 0.3608-0.051542 0.18586-0.053105 0.3811-0.15931v0.43108q-0.19836 0.07497-0.39672 0.11246-0.19836 0.039047-0.39672 0.039047-0.47481 0-0.73877-0.24053-0.2624-0.24209-0.2624-0.67786 0-0.42796 0.25771-0.67317 0.25927-0.24522 0.71222-0.24522 0.41234 0 0.65912 0.24834 0.24834 0.24834 0.24834 0.6638zm-0.57477-0.18586q0-0.15931-0.093713-0.25615-0.092151-0.098399-0.24209-0.098399-0.16244 0-0.26396 0.092151-0.10152 0.090589-0.12651 0.2624z"/>
  <path d="m3.4041 4.5256-0.631-0.85435h0.59195l0.35767 0.51855 0.36236-0.51855h0.59195l-0.631 0.85123 0.66224 0.89808h-0.59195l-0.3936-0.55291-0.38891 0.55291h-0.59195z"/>
  <path d="m6.4389 3.7259v0.45607q-0.11402-0.078094-0.2296-0.11558-0.11402-0.037485-0.23741-0.037485-0.23428 0-0.36548 0.13745-0.12964 0.13588-0.12964 0.3811t0.12964 0.38266q0.1312 0.13588 0.36548 0.13588 0.1312 0 0.24834-0.039047 0.1187-0.039047 0.21866-0.11558v0.45763q-0.1312 0.048418-0.26708 0.071847-0.13432 0.02499-0.27021 0.02499-0.47325 0-0.74033-0.24209-0.26708-0.24365-0.26708-0.6763t0.26708-0.67473q0.26708-0.24365 0.74033-0.24365 0.13745 0 0.27021 0.02499 0.13432 0.023428 0.26708 0.071847z"/>
  <path d="m8.6677 4.5412v0.15931h-1.3073q0.020304 0.1968 0.14213 0.2952 0.12183 0.098399 0.34049 0.098399 0.17649 0 0.3608-0.051542 0.18586-0.053105 0.3811-0.15931v0.43108q-0.19836 0.07497-0.39672 0.11246-0.19836 0.039047-0.39672 0.039047-0.47481 0-0.73877-0.24053-0.2624-0.24209-0.2624-0.67786 0-0.42796 0.25771-0.67317 0.25927-0.24522 0.71222-0.24522 0.41234 0 0.65912 0.24834 0.24834 0.24834 0.24834 0.6638zm-0.57477-0.18586q0-0.15931-0.093713-0.25615-0.092151-0.098399-0.24209-0.098399-0.16244 0-0.26396 0.092151-0.10152 0.090589-0.12651 0.2624z"/>
  <path d="m9.6501 5.1675v0.91839h-0.55915v-2.4147h0.55915v0.25615q0.11558-0.15306 0.25615-0.22491 0.14057-0.073409 0.32331-0.073409 0.32331 0 0.53104 0.25771 0.20773 0.25615 0.20773 0.66068 0 0.40453-0.20773 0.66224-0.20773 0.25615-0.53104 0.25615-0.18274 0-0.32331-0.071847-0.14057-0.073408-0.25615-0.22647zm0.37173-1.1324q-0.17962 0-0.27645 0.13276-0.095275 0.1312-0.095275 0.37954t0.095275 0.3811q0.096837 0.1312 0.27645 0.1312 0.17962 0 0.27333-0.1312 0.09527-0.1312 0.09527-0.3811 0-0.2499-0.09527-0.3811-0.09371-0.1312-0.27333-0.1312z"/>
  <path d="m11.991 3.1745v0.49668h0.57634v0.39984h-0.57634v0.7419q0 0.12183 0.04842 0.16556 0.04842 0.042171 0.19211 0.042171h0.28739v0.39984h-0.4795q-0.33112 0-0.47013-0.13745-0.13745-0.13901-0.13745-0.47013v-0.7419h-0.27802v-0.39984h0.27802v-0.49668z"/>
 </g>
</svg>
