<?xml version="1.0" encoding="UTF-8"?>
<svg width="50" height="35" version="1.1" viewBox="0 0 13.229 9.2604" xmlns="http://www.w3.org/2000/svg" xmlns:cc="http://creativecommons.org/ns#" xmlns:dc="http://purl.org/dc/elements/1.1/" xmlns:rdf="http://www.w3.org/1999/02/22-rdf-syntax-ns#">
	<metadata>
		<rdf:RDF>
			<cc:Work rdf:about="">
				<dc:format>image/svg+xml</dc:format>
				<dc:type rdf:resource="http://purl.org/dc/dcmitype/StillImage"/>
				<dc:title/>
			</cc:Work>
		</rdf:RDF>
	</metadata>
	<g transform="translate(0 -287.74)">
		<path d="m2.3812 288.93h8.4667" fill="none" stroke="#000" stroke-width=".79375"/>
		<path d="m2.3812 290.78h8.7312" fill="none" stroke="#000" stroke-width=".79375"/>
		<g stroke-width=".26458" aria-label="abc">
			<path d="m4.3358 294.49q-0.44711 0-0.61954 0.10226-0.17243 0.10225-0.17243 0.34886 0 0.19649 0.12832 0.31278 0.13032 0.11428 0.35288 0.11428 0.30676 0 0.49122-0.21653 0.18646-0.21855 0.18646-0.57944v-0.0822zm0.73583-0.15238v1.2812h-0.36892v-0.34085q-0.12631 0.20451-0.31478 0.30275-0.18847 0.0962-0.46115 0.0962-0.34486 0-0.54936-0.19248-0.2025-0.19448-0.2025-0.51929 0-0.37894 0.25263-0.57142 0.25463-0.19247 0.75788-0.19247h0.51728v-0.0361q0-0.25464-0.16842-0.39298-0.16641-0.14035-0.46917-0.14035-0.19248 0-0.37493 0.0461-0.18245 0.0461-0.35087 0.13834v-0.34085q0.2025-0.0782 0.39298-0.11629 0.19047-0.0401 0.37092-0.0401 0.48721 0 0.72781 0.25263 0.2406 0.25263 0.2406 0.7659z"/>
			<path d="m7.4436 294.5q0-0.40701-0.16842-0.63758-0.16641-0.23258-0.45914-0.23258-0.29273 0-0.46115 0.23258-0.16641 0.23057-0.16641 0.63758t0.16641 0.63959q0.16842 0.23057 0.46115 0.23057 0.29273 0 0.45914-0.23057 0.16842-0.23258 0.16842-0.63959zm-1.2551-0.78394q0.11629-0.2005 0.29273-0.29674 0.17844-0.0983 0.42506-0.0983 0.40902 0 0.66365 0.32481 0.25664 0.32481 0.25664 0.85412 0 0.52932-0.25664 0.85412-0.25463 0.32481-0.66365 0.32481-0.24661 0-0.42506-0.0962-0.17644-0.0982-0.29273-0.29874v0.33684h-0.37092v-3.1198h0.37092z"/>
			<path d="m10.054 293.46v0.34486q-0.15639-0.0862-0.31478-0.12832-0.15639-0.0441-0.31679-0.0441-0.35889 0-0.55738 0.22857-0.19849 0.22656-0.19849 0.63758t0.19849 0.63959q0.19849 0.22656 0.55738 0.22656 0.1604 0 0.31679-0.0421 0.15839-0.0441 0.31478-0.13032v0.34084q-0.15438 0.0722-0.3208 0.10827-0.16441 0.0361-0.35087 0.0361-0.50726 0-0.806-0.31879-0.29874-0.31879-0.29874-0.86014 0-0.54936 0.30075-0.86414 0.30275-0.31479 0.82806-0.31479 0.17042 0 0.33283 0.0361 0.1624 0.0341 0.31478 0.10426z"/>
		</g>
		<ellipse cx="5.7457" cy="290.75" rx="1.3488" ry="1.3489" fill="none" stroke="#06f" stroke-linecap="round" stroke-linejoin="round" stroke-width=".79375" style="paint-order:markers stroke fill"/>
		<path d="m6.8275 291.74 1.8559 1.856" fill="#0cf" stroke="#06f" stroke-linecap="round" stroke-width=".79375"/>
	</g>
</svg>
