<?xml version="1.0" encoding="UTF-8"?>
<svg width="50" height="35" version="1.1" viewBox="0 0 13.229 9.2604" xmlns="http://www.w3.org/2000/svg" xmlns:xlink="http://www.w3.org/1999/xlink">
	<defs>
		<linearGradient id="linearGradient1756">
			<stop stop-color="#f00" offset="0"/>
			<stop stop-color="#f55" offset="1"/>
		</linearGradient>
		<radialGradient id="radialGradient1758" cx="5.1594" cy="4.4979" r=".39687" gradientTransform="matrix(1 0 0 8.6667 0 -34.484)" gradientUnits="userSpaceOnUse" xlink:href="#linearGradient1756"/>
		<radialGradient id="radialGradient1760" cx="7.8052" cy="4.4979" r=".39687" gradientTransform="matrix(1 0 0 8.6667 0 -34.484)" gradientUnits="userSpaceOnUse" xlink:href="#linearGradient1756"/>
		<radialGradient id="radialGradient1762" cx="6.6146" cy="3.3073" r="3.4396" gradientTransform="matrix(1 0 0 .11538 0 2.9257)" gradientUnits="userSpaceOnUse" xlink:href="#linearGradient1756"/>
		<radialGradient id="radialGradient1764" cx="6.6146" cy="5.9531" r="3.4396" gradientTransform="matrix(1 0 0 .11538 0 5.2662)" gradientUnits="userSpaceOnUse" xlink:href="#linearGradient1756"/>
	</defs>
	<g fill="#f00" stroke-width=".79375">
		<path d="m5.1594 1.0583v6.8792" stroke="url(#radialGradient1758)"/>
		<path d="m7.8052 1.0583v6.8792" stroke="url(#radialGradient1760)"/>
		<path d="m3.175 3.3073h6.8792" stroke="url(#radialGradient1762)"/>
		<path d="m3.175 5.9531h6.8792" stroke="url(#radialGradient1764)"/>
	</g>
	<g>
		<g aria-label="0">
			<path d="m4.1449 1.4596q-0.13323 0-0.2007 0.13152-0.066616 0.13067-0.066616 0.39372 0 0.26219 0.066616 0.39372 0.06747 0.13067 0.2007 0.13067 0.13409 0 0.2007-0.13067 0.06747-0.13152 0.06747-0.39372 0-0.26305-0.06747-0.39372-0.066616-0.13152-0.2007-0.13152zm0-0.13665q0.21437 0 0.3271 0.16996 0.11359 0.1691 0.11359 0.49193 0 0.32198-0.11359 0.49193-0.11273 0.1691-0.3271 0.1691t-0.32795-0.1691q-0.11273-0.16996-0.11273-0.49193 0-0.32283 0.11273-0.49193 0.11359-0.16996 0.32795-0.16996z" stroke-width=".26458"/>
		</g>
		<g transform="translate(2.3283)" aria-label="0">
			<path d="m4.1449 1.4596q-0.13323 0-0.2007 0.13152-0.066616 0.13067-0.066616 0.39372 0 0.26219 0.066616 0.39372 0.06747 0.13067 0.2007 0.13067 0.13409 0 0.2007-0.13067 0.06747-0.13152 0.06747-0.39372 0-0.26305-0.06747-0.39372-0.066616-0.13152-0.2007-0.13152zm0-0.13665q0.21437 0 0.3271 0.16996 0.11359 0.1691 0.11359 0.49193 0 0.32198-0.11359 0.49193-0.11273 0.1691-0.3271 0.1691t-0.32795-0.1691q-0.11273-0.16996-0.11273-0.49193 0-0.32283 0.11273-0.49193 0.11359-0.16996 0.32795-0.16996z" stroke-width=".26458"/>
		</g>
		<g transform="translate(4.6831)" aria-label="0">
			<path d="m4.1449 1.4596q-0.13323 0-0.2007 0.13152-0.066616 0.13067-0.066616 0.39372 0 0.26219 0.066616 0.39372 0.06747 0.13067 0.2007 0.13067 0.13409 0 0.2007-0.13067 0.06747-0.13152 0.06747-0.39372 0-0.26305-0.06747-0.39372-0.066616-0.13152-0.2007-0.13152zm0-0.13665q0.21437 0 0.3271 0.16996 0.11359 0.1691 0.11359 0.49193 0 0.32198-0.11359 0.49193-0.11273 0.1691-0.3271 0.1691t-0.32795-0.1691q-0.11273-0.16996-0.11273-0.49193 0-0.32283 0.11273-0.49193 0.11359-0.16996 0.32795-0.16996z" stroke-width=".26458"/>
		</g>
		<g transform="translate(0 2.6458)" aria-label="0">
			<path d="m4.1449 1.4596q-0.13323 0-0.2007 0.13152-0.066616 0.13067-0.066616 0.39372 0 0.26219 0.066616 0.39372 0.06747 0.13067 0.2007 0.13067 0.13409 0 0.2007-0.13067 0.06747-0.13152 0.06747-0.39372 0-0.26305-0.06747-0.39372-0.066616-0.13152-0.2007-0.13152zm0-0.13665q0.21437 0 0.3271 0.16996 0.11359 0.1691 0.11359 0.49193 0 0.32198-0.11359 0.49193-0.11273 0.1691-0.3271 0.1691t-0.32795-0.1691q-0.11273-0.16996-0.11273-0.49193 0-0.32283 0.11273-0.49193 0.11359-0.16996 0.32795-0.16996z" stroke-width=".26458"/>
		</g>
		<g transform="translate(2.3283 2.6458)" aria-label="0">
			<path d="m4.1449 1.4596q-0.13323 0-0.2007 0.13152-0.066616 0.13067-0.066616 0.39372 0 0.26219 0.066616 0.39372 0.06747 0.13067 0.2007 0.13067 0.13409 0 0.2007-0.13067 0.06747-0.13152 0.06747-0.39372 0-0.26305-0.06747-0.39372-0.066616-0.13152-0.2007-0.13152zm0-0.13665q0.21437 0 0.3271 0.16996 0.11359 0.1691 0.11359 0.49193 0 0.32198-0.11359 0.49193-0.11273 0.1691-0.3271 0.1691t-0.32795-0.1691q-0.11273-0.16996-0.11273-0.49193 0-0.32283 0.11273-0.49193 0.11359-0.16996 0.32795-0.16996z" stroke-width=".26458"/>
		</g>
		<g transform="translate(4.6831 2.6458)" aria-label="0">
			<path d="m4.1449 1.4596q-0.13323 0-0.2007 0.13152-0.066616 0.13067-0.066616 0.39372 0 0.26219 0.066616 0.39372 0.06747 0.13067 0.2007 0.13067 0.13409 0 0.2007-0.13067 0.06747-0.13152 0.06747-0.39372 0-0.26305-0.06747-0.39372-0.066616-0.13152-0.2007-0.13152zm0-0.13665q0.21437 0 0.3271 0.16996 0.11359 0.1691 0.11359 0.49193 0 0.32198-0.11359 0.49193-0.11273 0.1691-0.3271 0.1691t-0.32795-0.1691q-0.11273-0.16996-0.11273-0.49193 0-0.32283 0.11273-0.49193 0.11359-0.16996 0.32795-0.16996z" stroke-width=".26458"/>
		</g>
		<g transform="translate(-3.3333e-8 5.2917)" aria-label="0">
			<path d="m4.1449 1.4596q-0.13323 0-0.2007 0.13152-0.066616 0.13067-0.066616 0.39372 0 0.26219 0.066616 0.39372 0.06747 0.13067 0.2007 0.13067 0.13409 0 0.2007-0.13067 0.06747-0.13152 0.06747-0.39372 0-0.26305-0.06747-0.39372-0.066616-0.13152-0.2007-0.13152zm0-0.13665q0.21437 0 0.3271 0.16996 0.11359 0.1691 0.11359 0.49193 0 0.32198-0.11359 0.49193-0.11273 0.1691-0.3271 0.1691t-0.32795-0.1691q-0.11273-0.16996-0.11273-0.49193 0-0.32283 0.11273-0.49193 0.11359-0.16996 0.32795-0.16996z" stroke-width=".26458"/>
		</g>
		<g transform="translate(2.3283 5.2917)" aria-label="0">
			<path d="m4.1449 1.4596q-0.13323 0-0.2007 0.13152-0.066616 0.13067-0.066616 0.39372 0 0.26219 0.066616 0.39372 0.06747 0.13067 0.2007 0.13067 0.13409 0 0.2007-0.13067 0.06747-0.13152 0.06747-0.39372 0-0.26305-0.06747-0.39372-0.066616-0.13152-0.2007-0.13152zm0-0.13665q0.21437 0 0.3271 0.16996 0.11359 0.1691 0.11359 0.49193 0 0.32198-0.11359 0.49193-0.11273 0.1691-0.3271 0.1691t-0.32795-0.1691q-0.11273-0.16996-0.11273-0.49193 0-0.32283 0.11273-0.49193 0.11359-0.16996 0.32795-0.16996z" stroke-width=".26458"/>
		</g>
		<g transform="translate(4.6831 5.2917)" aria-label="0">
			<path d="m4.1449 1.4596q-0.13323 0-0.2007 0.13152-0.066616 0.13067-0.066616 0.39372 0 0.26219 0.066616 0.39372 0.06747 0.13067 0.2007 0.13067 0.13409 0 0.2007-0.13067 0.06747-0.13152 0.06747-0.39372 0-0.26305-0.06747-0.39372-0.066616-0.13152-0.2007-0.13152zm0-0.13665q0.21437 0 0.3271 0.16996 0.11359 0.1691 0.11359 0.49193 0 0.32198-0.11359 0.49193-0.11273 0.1691-0.3271 0.1691t-0.32795-0.1691q-0.11273-0.16996-0.11273-0.49193 0-0.32283 0.11273-0.49193 0.11359-0.16996 0.32795-0.16996z" stroke-width=".26458"/>
		</g>
	</g>
</svg>
